<?xml version="1.0" standalone="no"?>
<!DOCTYPE svg PUBLIC "-//W3C//DTD SVG 20010904//EN"
 "http://www.w3.org/TR/2001/REC-SVG-20010904/DTD/svg10.dtd">
<svg version="1.0" xmlns="http://www.w3.org/2000/svg"
 width="435.000000pt" height="435.000000pt" viewBox="0 0 435.000000 435.000000"
 preserveAspectRatio="xMidYMid meet">
<metadata>
Created by potrace 1.14, written by Peter Selinger 2001-2017
</metadata>
<g transform="translate(0.000000,435.000000) scale(0.100000,-0.100000)"
fill="#000000" stroke="none">
<path d="M173 4175 l-122 -122 85 -89 c138 -144 404 -469 404 -492 0 -6 4 -12
8 -14 16 -6 162 -252 218 -366 31 -64 60 -125 65 -135 20 -38 81 -216 104
-303 30 -109 38 -158 52 -294 13 -129 8 -368 -11 -470 -3 -14 -7 -42 -10 -63
-28 -184 -158 -517 -289 -738 -45 -77 -137 -220 -147 -229 -3 -3 -23 -30 -45
-60 -59 -83 -262 -324 -353 -419 l-80 -85 67 -65 c36 -36 91 -91 122 -122 l57
-58 63 63 c51 50 162 147 302 266 88 75 337 250 356 250 5 0 11 4 13 8 4 12
186 113 283 158 162 75 417 159 512 169 17 2 60 9 95 16 176 32 517 12 728
-45 142 -38 386 -130 414 -157 6 -5 16 -9 24 -9 8 0 33 -12 56 -26 22 -14 95
-57 161 -96 66 -39 122 -75 123 -79 2 -5 8 -9 13 -9 8 0 102 -67 179 -127 74
-58 243 -203 323 -277 54 -50 103 -93 108 -94 10 -4 239 222 239 235 0 4 -34
44 -76 88 -142 149 -386 453 -451 560 -6 11 -34 56 -61 100 -72 116 -116 200
-172 325 -27 61 -49 111 -49 113 0 3 -11 36 -27 79 -19 51 -72 264 -79 318 -3
25 -9 70 -13 100 -4 30 -6 125 -6 210 1 139 5 199 19 280 3 14 7 39 10 55 3
17 12 57 20 90 9 33 17 69 20 79 8 34 26 90 35 111 5 11 19 47 31 80 26 70
113 254 162 340 36 64 157 257 167 265 3 3 30 39 60 80 69 94 188 238 256 310
29 30 77 82 107 114 l54 60 -56 55 c-31 31 -86 86 -122 122 l-66 67 -74 -70
c-67 -63 -196 -178 -259 -232 -14 -12 -43 -35 -65 -51 -22 -16 -56 -42 -75
-58 -19 -15 -40 -32 -47 -37 -40 -32 -206 -138 -305 -194 -190 -109 -389 -192
-589 -245 -79 -21 -98 -25 -184 -37 -27 -3 -59 -9 -70 -11 -50 -11 -357 -9
-440 4 -125 18 -129 19 -228 43 -183 44 -414 141 -612 255 -95 55 -274 171
-285 185 -3 3 -21 17 -40 30 -76 53 -259 207 -356 298 -44 43 -92 87 -105 98
l-24 22 -122 -123z"/>
</g>
</svg>
