<?xml version="1.0" encoding="UTF-8" standalone="no"?>
<svg
   version="1.0"
   width="300.000000pt"
   height="300.000000pt"
   viewBox="0 0 300.000000 300.000000"
   preserveAspectRatio="xMidYMid meet"
   id="svg80"
   sodipodi:docname="logo.svg"
   inkscape:version="1.1 (c68e22c387, 2021-05-23)"
   xmlns:inkscape="http://www.inkscape.org/namespaces/inkscape"
   xmlns:sodipodi="http://sodipodi.sourceforge.net/DTD/sodipodi-0.dtd"
   xmlns="http://www.w3.org/2000/svg"
   xmlns:svg="http://www.w3.org/2000/svg">
  <defs
     id="defs84" />
  <sodipodi:namedview
     id="namedview82"
     pagecolor="#ffffff"
     bordercolor="#666666"
     borderopacity="1.0"
     inkscape:pageshadow="2"
     inkscape:pageopacity="0.0"
     inkscape:pagecheckerboard="0"
     inkscape:document-units="pt"
     showgrid="false"
     inkscape:zoom="1.925"
     inkscape:cx="240.51948"
     inkscape:cy="196.88312"
     inkscape:window-width="1920"
     inkscape:window-height="974"
     inkscape:window-x="-11"
     inkscape:window-y="-11"
     inkscape:window-maximized="1"
     inkscape:current-layer="svg80" />
  <metadata
     id="metadata2">
Created by potrace 1.10, written by Peter Selinger 2001-2011
</metadata>
  <path
     d="m 147,21.7 c -7.85,1.25 -17.7,3.7 -19,4.65 -14.15876,5.428615 -31.331337,19.797639 -35.85,37.2 -6.4,27.05 -6.55,43.25 -0.45,43.25 1.95,0 4,0.5 4.6,1.1 0.6,0.6 1.85,1.1 2.75,1.1 3.45,0 3.25,7.7 -0.3,11.1 -4.2,4 -5.25,3.25 -5.2,-3.5 0,-5.9 -2.8,-8.75 -5.8,-5.75 -3.377922,16.57437 7.761361,28.90402 8.1,31.15 0.15,1.9 0.95,4.25 1.75,5.1 0.497251,11.65403 3.92542,10.85661 -3.05,17.3 -1.95,1.8 -3.55,3.7 -3.55,4.3 0,0.6 -0.6,1.3 -1.35,1.6 -0.9,0.35 -1.65,3.1 -2.05,7.55 -0.7,6.85 -0.85,7.2 -5.8,11.95 l -5.05,4.9 1.75,3.65 c 1.75,3.7 4.5,4.95 4.5,2.05 0,-0.9 1.25,-2.8 2.75,-4.25 1.5,-1.45 4.45,-4.8 6.55,-7.4 2.1,-2.6 4.5,-4.75 5.3,-4.75 4.4,0 7.95,-35.6 4,-39.55 -1.15,-1.15 -1.55,-2.55 -1.15,-4.1 0.45,-1.75 0.15,-2.35 -1.05,-2.35 -1.4,0 -1.45,-0.25 -0.3,-1.6 1.1,-1.35 1.05,-1.85 -0.6,-3 -1.7,-1.25 -1.7,-1.4 -0.15,-1.4 1.35,0 1.5,-0.4 0.8,-1.75 -2.5,-4.6 3.05,-12.55 6,-8.75 2,2.5 2.5,7.5 0.8,7.5 -0.6,0 -0.8,0.45 -0.45,1 0.35,0.55 -0.1,1 -1,1 -1.1,0 -0.55,1.1 1.95,3.65 1.95,2 3.55,4.1 3.55,4.65 0,0.55 1,-0.1 2.25,-1.45 2.55,-2.75 3.45,-10.3 1.1,-9.45 -2.1,0.8 -2.85,-4.05 -0.95,-5.95 0.9,-0.85 1.65,-2.55 1.75,-3.75 0.1,-1.2 0.25,-3.4 0.35,-4.9 0.1,-1.5 -0.2,-2.5 -0.65,-2.2 -0.45,0.3 -0.85,-0.2 -0.85,-1.05 0,-0.85 -0.7,-1.55 -1.6,-1.55 -1.35,0 -1.5,-0.85 -1,-5.25 1,-8.75 1.3,-10.05 3.55,-15.05 1.2,-2.65 2,-5.35 1.75,-6 -0.25,-0.65 -0.95,0.05 -1.55,1.55 -0.75,1.8 -1.6,2.5 -2.6,2.15 -0.85,-0.35 -1.25,-1.05 -0.9,-1.6 0.35,-0.65 0.95,-0.5 1.45,0.35 1.1,1.7 1.05,0.05 -0.05,-2.65 -0.75,-1.85 -0.9,-1.85 -1.55,-0.25 -0.4,0.95 -1.05,1.5 -1.5,1.25 -0.4,-0.25 -1.35,0.9 -2.05,2.6 -0.9,2.2 -1.5,2.7 -2.1,1.7 -0.7,-1.05 -1.05,-1 -1.85,0.2 -0.65,1.05 -0.95,1.1 -1,0.2 0,-0.7 0.7,-1.5 1.5,-1.85 0.85,-0.3 1.5,-0.95 1.5,-1.45 0,-0.5 -0.65,-0.9 -1.5,-0.9 -0.8,0 -1.5,0.45 -1.5,1 0,0.55 -1.8,1 -4,1 -4,0 -5.35,-1.25 -2.5,-2.35 C 96.35,83.3 97,82.5 97,81.8 96.95,80.85 96.65,80.95 95.9,82 c -0.9,1.25 -1,1.2 -0.5,-0.35 0.35,-1 0.6,-2.35 0.6,-3 0,-0.7 0.35,-0.6 0.9,0.25 0.7,1.05 1.25,0.65 2.5,-1.75 0.9,-1.75 1.45,-3.15 1.2,-3.15 23.52854,-25.554943 -6.716612,-0.107826 10.3,-15.4 1.9,-1.95 3.7,-3.35 4,-3.15 0.35,0.2 1.45,-0.85 2.55,-2.3 1.9,-2.65 1.9,-2.65 -0.1,-0.9 -1.1,0.95 -2.6,1.75 -3.25,1.75 -0.7,0 -2.7,0.95 -4.45,2.1 -2.6,1.7 -2.5,1.5 0.6,-1.1 2.05,-1.75 3.5,-3.6 3.2,-4.05 -0.25,-0.45 0.4,-0.65 1.5,-0.45 2.74514,0.779672 3.4346,-3.807888 5.6,-3.1 0.8,0.3 1.3,0 1.2,-0.7 -0.15,-0.65 0.35,-1.05 1.1,-0.9 0.75,0.15 2.55,-0.5 4,-1.5 4.8,-3.2 7.2,-4.2 8.7,-3.65 C 136.4,41 137,40.6 137,39.7 c 0,-1.85 5,-3.7 9.9,-3.7 2.7,0.05 3.2,0.3 2.1,1 -0.9,0.6 -1,1 -0.3,1 0.65,0 1.45,-0.45 1.8,-1 0.35,-0.55 1.75,-0.7 3.15,-0.4 5.25,1.35 12.85,0.95 12.6,-0.6 -0.2,-1 0.3,-0.85 1.5,0.55 1.25,1.5 2.45,1.85 4.25,1.4 1.4,-0.35 3.05,-0.2 3.75,0.35 1.85,1.4 1.5,-0.3 -0.5,-2.7 -1.25,-1.5 -0.95,-1.4 1.05,0.35 3.55,3.15 6.1,3.65 4.65,0.95 -0.6,-1.1 -1.4,-1.75 -1.8,-1.5 -5.08661,-7.26245 5.97055,1.472569 8.15,1.6 14.79813,8.417849 7.26499,24.237825 18.2,37.35 3.05,3.6 5.5,6.95 5.5,7.45 0,1.25 -2.9,2.4 -4.1,1.65 -0.55,-0.35 -0.85,0 -0.65,0.75 0.15,0.9 -0.8,1.25 -3.05,1.15 -2.85,-0.15 -3.85,0.55 -7.25,4.85 -4.6,5.8 -4.75,6.95 -1.6,14.6 1.35,3.15 2.9,7.3 3.55,9.25 0.85,2.7 1.7,3.55 3.7,3.75 6.85,0.55 12.5,6.9 8.75,9.75 -1.65,1.2 -2.05,1.15 -3.6,-0.7 -0.95,-1.15 -1.75,-1.75 -1.75,-1.35 0,0.4 -0.9,-0.35 -2,-1.65 l -2,-2.35 1.6,3.9 c 0.85,2.2 1.35,5 1.1,6.25 -0.2,1.3 -0.05,2.35 0.35,2.35 0.45,0 1.1,0.9 1.45,2 0.35,1.1 1,1.8 1.5,1.5 0.45,-0.3 0.75,0.95 0.65,2.75 -0.1,1.8 -0.5,3 -0.95,2.75 -0.45,-0.3 -1.3,0.3 -1.8,1.25 -1.05,1.9 -5.4,2.4 -6.4,0.75 -0.35,-0.55 -0.05,-1.05 0.7,-1.1 0.7,-0.05 0.2,-0.45 -1.2,-0.9 -1.7,-0.55 -1.95,-0.85 -0.75,-0.9 1.4,-0.1 1.65,-0.65 1.15,-2.65 -0.5,-1.9 -0.05,-3.2 1.65,-5 1.55,-1.65 2,-2.8 1.3,-3.5 -0.65,-0.65 -1.6,-0.35 -2.85,1.05 -1,1.1 -2.45,2 -3.25,2 -0.8,0 -1.25,0.6 -0.95,1.3 0.25,0.75 -0.35,1.85 -1.35,2.5 -1.05,0.65 -1.65,1.8 -1.35,2.6 0.3,0.75 0,1.75 -0.7,2.15 -0.85,0.55 -0.95,0.35 -0.4,-0.65 0.65,-1.1 0.55,-1.15 -0.55,-0.15 -2.65,2.45 -2.2,5.25 0.85,5.25 1.55,0 3.35,-0.55 4,-1.2 1,-1 1.65,-1 3.2,0 1.1,0.65 2.6,1.2 3.4,1.2 1.65,0 3.05,3.45 2.1,5 -0.4,0.65 -1.25,0.65 -2.45,0.05 -2.5,-1.35 -4.95,-1.4 -24.05,-0.55 -9.35,0.4 -16.15,0.35 -15.65,-0.15 0.45,-0.45 1.3,-0.85 1.85,-0.85 0.6,0 2.25,-1.6 3.65,-3.5 1.45,-1.95 2,-3 1.15,-2.45 -0.8,0.6 -2.4,1.05 -3.5,1 -2.55,-0.05 -5.55,2.65 -4.05,3.7 0.7,0.45 0.6,0.7 -0.2,0.75 -1.35,0 -1.7,4.75 -0.5,6.65 0.55,0.85 1.8,0.8 4.75,-0.3 6.25,-2.3 35.55,-2.45 37.8,-0.15 2.4,2.35 2.1,6 -0.75,9.35 -1.35,1.55 -2.2,3.2 -1.95,3.65 0.3,0.45 0.1,0.8 -0.35,0.8 -0.5,0 -0.75,2.05 -0.6,4.55 0.15,3.3 -0.15,4.7 -1.25,5.15 -0.85,0.3 -1.3,1.15 -1,1.85 0.25,0.7 -0.15,1.55 -0.95,1.85 -0.8,0.3 -1.45,1.3 -1.45,2.2 0,1.3 -0.3,1.4 -1.35,0.5 -1.6,-1.3 -4.95,-0.4 -4,1.1 0.35,0.65 -0.25,0.75 -1.75,0.25 -2.1,-0.65 -2.25,-0.55 -1.05,0.9 1.2,1.4 0.95,1.6 -2.3,1.45 -2,-0.05 -4.15,0.4 -4.8,1.05 -0.85,0.85 -0.85,1.15 0.05,1.15 0.65,0 1.2,0.45 1.2,0.95 0,0.55 -0.65,0.75 -1.5,0.4 -0.8,-0.3 -1.5,-0.1 -1.5,0.5 0,1.4 -5.05,0.45 -10.8,-2 -2.75,-1.15 -4.05,-2.25 -3.6,-3 0.4,-0.65 0.3,-0.9 -0.25,-0.55 -0.55,0.35 -2.25,-0.05 -3.8,-0.85 -1.5,-0.8 -3.4,-1.45 -4.15,-1.45 -0.8,0 -1.4,-0.5 -1.4,-1.05 0,-0.6 -0.8,-0.95 -1.75,-0.75 -1.8,0.35 -2.8,-0.2 -6.9,-3.95 C 143,179 141.1,178 140.05,178 c -1,0 -2.1,-0.65 -2.4,-1.5 -0.35,-0.85 -1.65,-1.5 -2.9,-1.5 -1.3,0 -3.45,-1.3 -5,-3.05 -1.75,-2 -3.15,-2.8 -4,-2.3 -0.95,0.6 -0.85,0.9 0.4,1.15 1.6,0.3 3.5,3.2 2.1,3.2 -1.7,0 -6.05,-5.35 -5.5,-6.8 0.45,-1.1 0.15,-1.4 -1,-0.95 -1.35,0.55 -2.35,-0.45 -3.25,-3.25 -0.75,-2.5 -3.05,-6 -4.15,-6.4 -1.9,-0.75 -1.7,1.95 0.55,8.1 1.05,2.85 1.65,5.4 1.4,5.65 -1.35,1.35 0.95,2.5 3.25,1.65 2.15,-0.85 2.45,-0.7 2.45,1.4 0,2.5 2.5,4.25 3.55,2.5 0.35,-0.55 1.5,-0.7 2.55,-0.35 1.15,0.35 1.9,0.1 1.9,-0.65 0,-0.7 0.25,-1 0.55,-0.7 0.25,0.3 0.05,1.7 -0.5,3.15 -0.8,2.15 -0.7,2.65 0.55,2.65 0.85,0 1.3,0.35 1.05,0.8 -0.3,0.45 1.15,0.6 3.15,0.35 2.05,-0.2 3.35,-0.05 2.95,0.4 -0.7,0.75 4.85,5.45 6.5,5.45 0.45,0 2.15,0.9 3.8,2 1.6,1.1 4.3,2.9 5.9,4 1.65,1.1 4.1,2 5.5,2 1.4,0 2.55,0.4 2.55,0.95 0,0.5 0.9,0.75 2.05,0.55 1.1,-0.2 1.75,0 1.45,0.5 -0.3,0.45 -0.1,1.15 0.5,1.5 0.55,0.35 1,0.15 1,-0.45 0,-0.65 1,-0.45 2.4,0.5 1.7,1.1 2.6,1.25 3.1,0.45 0.45,-0.75 1.15,-0.5 2.05,0.7 1.65,2.15 1.9,6.3 0.4,6.3 -0.6,0 -0.85,0.4 -0.55,0.85 0.3,0.45 -0.35,1.8 -1.45,2.95 -1.05,1.15 -1.95,2.35 -1.95,2.65 0,1.3 2.4,0.35 4.1,-1.6 l 1.85,-2.1 3.6,2.85 c 2,1.6 4.8,3.55 6.3,4.4 16.75,9.45 42.15,32.55 42.15,38.4 0,3.2 -5.7,-1.15 -22.5,-17.1 -9.7,-9.3 -21.15,-18 -22.15,-16.95 -0.3,0.25 0.45,1 1.65,1.65 1.2,0.65 1.9,1.75 1.65,2.5 -0.3,0.75 0.6,2.1 2.05,3.05 3.8,2.45 8.3,6.5 11.75,10.4 4.45,5.05 8.3,8.65 18.35,17.05 8.7,7.25 13.55,14.05 11.1,15.55 -0.5,0.35 -0.6,1.1 -0.2,1.75 1.75,2.8 1.1,3.95 -1,1.9 -13.6,-13.25 -20.05,-19.2 -20.75,-19.2 -0.45,0 -2.3,-1.4 -4.15,-3.05 -5.3,-4.95 -6.7,-5.45 -6.15,-2.2 0.25,1.5 0.45,3.55 0.45,4.5 0,0.95 2.15,3.2 4.7,4.95 2.6,1.75 5.15,3.6 5.7,4.05 0.55,0.45 3.7,2.85 6.95,5.35 3.3,2.5 7.85,6.2 10.1,8.25 6.6,5.9 9,12 2.6,6.6 -1.75,-1.45 -3.15,-2.1 -3.15,-1.5 0,0.6 0.65,1.35 1.5,1.7 0.8,0.3 1.3,0.9 1.05,1.3 -0.25,0.4 0.5,1.3 1.75,1.95 2.35,1.25 4.7,5.4 4.7,8.3 0,1 0.5,1.8 1.05,1.8 0.6,0 0.8,0.45 0.45,1 -0.35,0.6 -1.05,0.75 -1.55,0.45 -0.55,-0.3 -0.95,-0.1 -0.95,0.5 0,0.6 2.35,1.05 5.6,1.05 h 5.6 l -0.65,-3.6 c -0.4,-2 -2,-7.5 -3.6,-12.25 -1.65,-4.75 -2.95,-9.9 -2.95,-11.4 0,-1.55 -0.6,-4.3 -1.4,-6.15 -0.75,-1.8 -1.7,-5.3 -2.05,-7.7 -4.4,-28.5 -14.55,-42.9 -36.1,-51.4 -17.35,-6.8 -20.65,-4.55 -5,3.5 9.75,5 23.55,15.75 23.55,18.35 0,0.45 1.8,3.85 4,7.55 5.25,8.8 5.05,9.7 -0.5,2.45 -5.9,-7.75 -15.05,-17.3 -20,-20.9 -4.5,-3.3 -5.45,-3.9 -14.25,-8.95 -9.25,-5.3 -7.3,-12.4 3.95,-14.4 10.05,-1.75 13.8,-6.05 13.8,-15.9 0,-3.6 0.95,-7.05 3.45,-12.35 C 216.05,148.6 219,128.5 215,116 c -2.45,-7.65 -2,-13.55 1.5,-20.35 2.15,-4.1 1.85,-6.05 -1.25,-9.75 -1.5,-1.8 -2.6,-4.05 -2.45,-5 0.15,-1 -1.55,-7.1 -3.8,-13.6 -2.25,-6.5 -4.35,-13.6 -4.65,-15.8 -0.3,-2.2 -1.1,-4.7 -1.7,-5.5 C 194.492,27.363154 165.42964,19.469969 147,21.7 Z M 210,92 c 0,0.55 -0.45,1 -1.05,1 -0.55,0 -0.35,1.25 0.5,2.95 2.1,3.95 2.1,3.95 -2.3,2.95 -2.25,-0.5 -5.2,-0.45 -7.05,0.1 -3.75,1.05 -3.7,0.45 0.4,-4.45 C 203.4,91.1 210,89.3 210,92 Z m -1.45,11.2 c 1.05,3.25 -7.45,7.3 -10,4.75 -0.6,-0.6 -0.25,-0.95 0.9,-0.95 2.5,0 5.55,-2.85 5.55,-5.1 0,-2.4 2.7,-1.4 3.55,1.3 z"
     id="path4"
     style="fill:#000000;stroke:none;stroke-width:0.05"
     sodipodi:nodetypes="cccsssccccccscccccssssscsccsccssscscccsssssccsccccccccccccssssccccscccccccsccccccsccsccsscccscscccccscccccccccsccccsscsccccccccscsccccccsscscccssccccccccccscccsscccccssscsccscssccscscccscccccscsccsccscccsccsscccscccsscsccccsccscccccccsccscscccscscssccsscccsccccscccccscccccssccssccccscsssc" />
  <path
     d="m 107,70.25 c 0,0.7 -0.9,1.85 -2.05,2.55 -1.1,0.7 -1.75,1.7 -1.4,2.3 0.35,0.55 -1,3 -3.05,5.45 -2.7,3.35 -3.2,4.45 -2,4.45 1.85,0 5.4,-3.8 5.45,-5.8 0.05,-0.7 0.7,-1.5 1.55,-1.85 0.8,-0.3 1.3,-0.9 1.05,-1.3 -0.25,-0.35 0.2,-1.95 1,-3.5 1.7,-3.3 1.75,-3.55 0.45,-3.55 -0.55,0 -1,0.55 -1,1.25 z"
     id="path8"
     style="fill:#000000;stroke:none;stroke-width:0.05" />
  <path
     d="m 149.15,83.3 c -0.6,0.75 -0.85,1.7 -0.45,2.05 0.35,0.35 -0.25,0.65 -1.3,0.65 -2.5,0.05 -10.85,3.85 -10.1,4.65 0.3,0.3 -0.5,2.3 -1.85,4.45 -2.95,4.65 -3,4.9 -0.45,4.9 1.25,0 2.2,-0.9 2.6,-2.5 0.35,-1.35 0.95,-2.3 1.35,-2.05 0.4,0.25 2.2,-1.15 4,-3.05 1.85,-1.95 3.9,-3.3 4.65,-3 0.75,0.3 1.55,0.15 1.85,-0.3 1.25,-2 26.2,-0.2 29.25,2.15 0.7,0.55 2,0.45 3.35,-0.3 2.5,-1.3 1.1,-3.65 -2.65,-4.35 -1.1,-0.25 -3.8,-1.15 -5.95,-2.1 -5.35,-2.3 -22.7,-3.15 -24.3,-1.2 z"
     id="path10"
     style="fill:#000000;stroke:none;stroke-width:0.05" />
  <path
     d="m 168.4,95.45 c 2.15,3.3 2,3.85 -0.55,2.45 -4.2,-2.25 -10.95,-1.45 -17.85,2.1 -3.55,1.85 -6.95,3.45 -7.5,3.55 -0.55,0.05 -1.6,0.2 -2.3,0.3 -0.75,0.1 -1.05,0.55 -0.75,1.05 0.3,0.5 2.35,0.65 4.55,0.35 2.3,-0.3 4,-0.1 4,0.45 0,0.55 1.15,1.5 2.5,2.1 2.8,1.3 3.05,0.55 1.35,-3.25 -1.6,-3.5 -0.5,-4.2 2.75,-1.65 3.15,2.5 6.65,1.15 7.2,-2.75 0.4,-2.45 1.1,-2.6 4.65,-1 4.25,1.95 0.5,7.7 -4.7,7.2 -1.75,-0.15 -2.55,0.15 -2.15,0.8 0.35,0.6 0.05,1.5 -0.7,1.95 -0.95,0.65 -0.3,0.85 2.1,0.8 4.95,-0.2 8.85,-1.8 9.55,-4 0.3,-1.05 1,-1.9 1.5,-1.9 0.55,0 0.95,-0.5 0.95,-1.05 0,-2.65 2.85,-4.05 3.55,-1.75 0.4,1.25 0.25,2.35 -0.3,2.55 -3,1 -4.7,3.15 -3.5,4.4 1.4,1.4 6.7,-2.9 7.8,-6.3 1.15,-3.65 -5.15,-8.95 -7.05,-5.9 -0.3,0.55 -1.45,0.1 -2.55,-1 -2.8,-2.8 -4.55,-2.5 -2.55,0.5 z"
     id="path12"
     style="fill:#000000;stroke:none;stroke-width:0.05" />
  <path
     d="m 146.75,97.05 c -2.05,1.1 -3.75,2.15 -3.75,2.3 0,1.1 6.2,-0.9 7.6,-2.45 2.15,-2.4 0.9,-2.35 -3.85,0.15 z"
     id="path14"
     style="fill:#000000;stroke:none;stroke-width:0.05" />
  <path
     d="m 183.6,112.6 c -0.75,1.9 0.15,3.65 1.45,2.85 0.55,-0.3 0.95,-0.3 0.95,0 0,0.3 -2.1,1.55 -4.7,2.75 -4.8,2.25 -16.3,13.1 -16.3,15.4 0,2.25 1.65,2.4 3.5,0.4 2.5,-2.75 3.4,-2.55 8.2,2 2.35,2.25 4.45,3.6 4.8,3 0.75,-1.2 4.5,-1.35 4.5,-0.15 0,1.45 4.2,0.55 5.1,-1.05 1.4,-2.55 -3.1,-4.8 -9.55,-4.8 -5.55,0 -5.55,0 -5.55,-3.1 0,-3.1 5.05,-10.25 7.4,-10.5 0.6,-0.05 1.75,-0.15 2.5,-0.25 0.8,-0.1 1.15,-0.45 0.75,-0.8 -0.35,-0.4 0.05,-1.45 0.85,-2.35 0.85,-0.95 1.25,-2.45 0.9,-3.35 -0.8,-2.1 -4,-2.15 -4.8,-0.05 z"
     id="path16"
     style="fill:#000000;stroke:none;stroke-width:0.05" />
  <path
     d="m 107.25,143.4 c -0.95,2 -0.8,2.7 0.8,4.15 2.05,1.85 2.4,1.3 2,-3.05 -0.35,-3.25 -1.6,-3.75 -2.8,-1.1 z"
     id="path20"
     style="fill:#000000;stroke:none;stroke-width:0.05" />
  <path
     d="m 96,195 c 0,1.65 0.35,2.95 0.75,2.85 2.2,-0.45 4.25,1.45 3.1,2.8 -2.95,3.6 -6.75,5.45 -8.8,4.35 -2.2,-1.15 -3.15,1.2 -1.05,2.5 0.55,0.35 1,0.1 1,-0.5 0,-0.6 0.45,-0.85 0.95,-0.55 1.55,0.95 0.25,2.95 -2.7,4.3 -1.5,0.7 -3.75,2.7 -5,4.5 -1.55,2.2 -2.25,2.7 -2.25,1.5 0,-1.6 -1.1,-2.1 -6.5,-3 -2.15,-0.35 3.4,-3.6 7.1,-4.15 2.75,-0.4 2.8,-2.45 0.1,-3.7 -3.05,-1.35 -6.95,0.45 -14.35,6.75 -2.85,2.4 -8.8,7.25 -13.25,10.75 -11.45,9.15 -24.1,20.75 -24.1,22.25 0,0.65 -2.05,2.7 -4.6,4.5 -4.2,3.05 -13.4,13.9 -13.4,15.9 0,0.45 -2.15,3.3 -4.8,6.35 -5.4,6.15 -9,12.15 -7.9,13.25 0.4,0.4 1.25,0.2 1.9,-0.45 0.65,-0.65 2.05,-1.2 3.05,-1.2 1.05,0 2.5,-0.55 3.3,-1.25 3.95,-3.55 4.3,-3.7 4.85,-2.45 0.35,0.65 0.35,0.25 0.05,-0.95 -0.35,-1.35 0.05,-2.35 1.1,-2.7 0.85,-0.35 1.3,-1.1 0.95,-1.7 -0.4,-0.55 0.1,-2.2 1,-3.55 0.9,-1.4 1.45,-3.15 1.15,-3.85 -0.8,-2.1 8.05,-5.65 15.7,-6.3 5.15,-0.4 6.8,-0.25 6.25,0.6 -0.45,0.75 0.1,1.15 1.6,1.15 4.45,0 18.7,11.9 20.3,16.95 0.35,1.2 0.9,1.95 1.2,1.65 0.6,-0.6 2.05,0.75 4.7,4.4 1.35,1.85 1.65,1.95 1.1,0.5 -0.45,-1.1 -0.9,-3.25 -1.05,-4.8 -0.7,-7.45 -15.7,-22.1 -22.55,-22 -2.7,0.05 -4.9,-0.35 -4.9,-0.9 0,-1.3 -16.15,-0.8 -18,0.6 -1.35,1 -1.35,0.9 0,-0.8 2.3,-2.9 8.7,-5.35 17,-6.5 4.15,-0.6 9.3,-1.55 11.55,-2.2 11.2,-3.3 26.85,14.9 35.05,40.95 1.6,5 3.25,9.15 3.7,9.15 1.15,0 0.05,-7.85 -1.35,-9.55 C 87,289.25 87.1,289 88.6,289 c 1.6,0 1.55,-0.2 -0.45,-1.6 -1.25,-0.85 -2.1,-2.1 -1.85,-2.75 0.2,-0.6 -0.25,-1.75 -1,-2.45 -1.35,-1.4 -0.8,-3.65 0.7,-2.7 0.45,0.25 0.55,-0.5 0.25,-1.7 -0.35,-1.25 -0.8,-1.7 -1,-1 -0.25,0.65 -0.8,1.2 -1.2,1.2 -1,0 -2.05,-3.7 -1.25,-4.45 0.85,-0.85 1.15,-3.55 0.35,-3.25 -0.35,0.1 -0.75,-0.2 -0.85,-0.65 -0.1,-0.45 -1,-1.45 -2,-2.15 -1,-0.75 -1.5,-1.6 -1.15,-1.95 1.15,-1.15 -9.6,-12.5 -16.05,-17 -3.75,-2.6 -14.75,-5.9 -16.3,-4.9 -0.45,0.25 -0.8,-0.35 -0.8,-1.3 0,-1.6 -0.2,-1.55 -1.45,0.3 -1.9,2.7 -4.75,3.4 -6.95,1.8 -1.95,-1.4 10.45,-8.45 14.9,-8.45 1.25,0 3.55,-0.65 5.15,-1.5 L 60.5,233 h -5 c -3.85,-0.05 -4.6,-0.3 -3.25,-1.05 1.75,-1.05 17.5,-1.5 18.45,-0.55 0.3,0.25 -1.5,1.45 -3.95,2.6 -4.5,2.1 -10.1,7 -8,7 0.6,0 2.35,-1.05 3.9,-2.35 1.6,-1.3 4.45,-3.15 6.35,-4.15 1.95,-0.95 4.25,-2.5 5.1,-3.4 0.9,-0.85 3.7,-3.35 6.25,-5.5 2.55,-2.15 4.65,-4.5 4.65,-5.2 0,-2.15 2.95,-0.45 4.55,2.65 0.8,1.55 2.45,4 3.7,5.4 1.25,1.4 3.15,3.65 4.2,5 1.1,1.3 2.3,2.2 2.65,2 0.35,-0.25 1.25,0.25 1.9,1.05 0.7,0.85 1.85,1.5 2.55,1.5 0.75,0 1.6,0.45 1.95,1 0.35,0.55 -0.05,0.7 -0.95,0.4 -2.2,-0.85 -1.9,0.9 0.4,2.35 2.2,1.35 3.1,0.55 3.5,-3.3 0.25,-2.1 0.05,-2.3 -1.25,-1.2 -1.3,1.05 -1.45,0.95 -1,-0.85 0.45,-1.85 -10.8,-14.65 -13.15,-14.95 -5.1,-0.7 -8.2,-5.5 -5.5,-8.5 2.7,-3 3.85,-2.5 12.05,5.5 5.1,4.95 8.15,7.25 9.25,6.9 1.3,-0.45 1.35,-0.35 0.25,0.45 -1.75,1.25 -0.55,3.2 2,3.2 3.8,0 8.7,3.15 6.4,4.15 -2,0.8 -2,0.8 0,0.7 2.6,-0.2 6.2,1.3 14.35,6.05 3.65,2.1 12.6,6.85 19.9,10.55 9.5,4.85 14.05,7.75 16.15,10.4 4.7,5.85 26.7,27.55 24.75,24.4 -0.4,-0.6 -0.25,-1.4 0.35,-1.75 0.55,-0.35 1,-0.15 1,0.45 0,0.55 0.45,1.05 1.05,1.05 1.15,0 8.9,8.05 8.95,9.25 0,2.1 4.5,4.85 8.75,5.4 l 4.75,0.6 -4.45,-3.85 c -5.15,-4.45 -6.75,-5.95 -17.05,-15.6 -12,-11.2 -13.3,-12.35 -17.5,-15.35 -2.2,-1.6 -5.35,-4 -7,-5.3 l -3,-2.45 4.85,0.55 c 4,0.45 5.6,1.3 9.25,4.85 2.4,2.35 4.4,3.9 4.4,3.35 0,-0.5 -1.6,-2.2 -3.5,-3.75 -4.05,-3.25 -4.4,-4.45 -1.25,-4.9 1.5,-0.2 3.4,0.85 5.75,3.2 3.65,3.6 8.1,7.35 11.9,9.95 1.15,0.85 2.1,1.85 2.1,2.3 0,0.45 1.1,1.9 2.5,3.15 1.35,1.25 2.15,2.6 1.75,3 -0.35,0.4 0.1,0.4 1.05,0.05 1.2,-0.45 1.7,-0.15 1.7,0.95 0,0.95 0.8,1.95 1.75,2.35 0.95,0.35 2.35,1.25 3.05,1.95 0.75,0.7 2.35,1.3 3.6,1.3 1.45,0 2.7,0.9 3.4,2.45 1.25,2.75 -0.65,2.65 -4,-0.2 -4.6,-3.95 -3.1,0.05 2.1,5.5 5.9,6.15 11.55,8.85 9.15,4.3 -1.4,-2.55 -1.3,-3.3 0.2,-2.45 0.7,0.4 0.15,-0.5 -1.15,-1.95 -2.45,-2.7 -3.75,-3.5 -2.6,-1.65 0.35,0.55 0.2,1 -0.35,1 -1.25,0 -2.3,-4.4 -1.55,-6.4 1.25,-3.3 -22.25,-23.8 -30.55,-26.6 -6.4,-2.15 -6.75,-2.55 -4.6,-4.95 1,-1.1 1.55,-2.65 1.25,-3.45 -0.35,-0.8 -0.1,-1.65 0.55,-1.85 0.65,-0.2 0.75,-0.9 0.25,-1.7 -0.65,-1.1 -1.05,-1 -2.15,0.45 -0.7,1 -2.55,2.7 -4.1,3.75 l -2.75,1.95 2.7,-0.45 c 4,-0.65 2.35,1 -2.2,2.25 -4.95,1.35 -12.3,0.3 -11.6,-1.65 0.3,-0.75 -0.1,-1.35 -1,-1.35 -0.85,0 -1.25,0.45 -0.9,1 0.35,0.55 0.15,1 -0.45,1 -0.55,0 -1.05,-0.65 -1.05,-1.4 0,-1.75 -6.05,-3.9 -8.35,-3 -1.2,0.45 -1.5,0.2 -1.1,-0.85 0.65,-1.7 -2.55,-3.4 -3.5,-1.85 -0.35,0.55 -1.9,0.35 -3.9,-0.45 -2.05,-0.9 -3,-1.85 -2.55,-2.6 0.4,-0.7 0.3,-0.9 -0.35,-0.5 -1.25,0.75 -6.25,-1.25 -6.25,-2.5 0,-0.45 -0.65,-0.85 -1.5,-0.85 -3.05,0 -35.75,-22.35 -38,-26 -0.4,-0.65 1.4,0.5 4,2.45 2.65,2 5,3.4 5.3,3.05 0.35,-0.3 -0.45,-1.25 -1.7,-2.15 -1.25,-0.85 -4.15,-3.3 -6.4,-5.45 -4.6,-4.25 -5.95,-4.85 -5.05,-2.15 0.6,1.6 0.5,1.65 -1.1,0.1 -1.3,-1.2 -1.5,-2.05 -0.75,-3.5 1.5,-2.7 7.2,-7.9 7.2,-6.55 0,0.65 -0.45,1.2 -1,1.2 -0.55,0 -1,0.45 -1,1 0,1.4 10.2,10.95 11.75,11 0.7,0 1.25,0.45 1.25,1 0,0.55 0.7,1 1.55,1 0.8,0 1.75,0.65 2.1,1.5 0.3,0.8 1,1.5 1.55,1.5 0.55,0 1.8,1 2.85,2.25 1.25,1.5 1.9,1.75 1.9,0.85 0.05,-1.1 0.55,-1 2.05,0.4 1.55,1.4 1.75,2.05 0.8,2.65 -1,0.6 -0.8,1.15 0.7,2.25 1.1,0.8 2.15,1.1 2.3,0.65 0.85,-2.4 7.3,1.35 6.55,3.75 -0.35,1.15 -0.25,1.3 0.35,0.5 0.55,-0.8 1.35,-0.9 2.35,-0.25 1.15,0.75 1.2,1.1 0.15,1.8 -2.1,1.35 0.6,2.9 6.15,3.55 5.6,0.65 6.65,1.2 6.65,3.2 0,0.85 0.45,1.25 1,0.9 0.55,-0.35 1,-0.2 1,0.3 0,0.45 1.15,1.4 2.55,2.05 1.4,0.65 2.3,0.75 2,0.25 -0.3,-0.5 0.35,-0.7 1.45,-0.4 1.1,0.3 2.3,0.95 2.55,1.4 0.85,1.35 5.2,1.05 5.75,-0.35 0.35,-0.9 0.9,-0.7 1.9,0.65 1.15,1.4 1.9,1.65 3.4,0.85 2.1,-1.1 4.4,-0.65 4.4,0.85 0,0.55 -1,1.35 -2.25,1.85 -1.65,0.65 -1.8,0.95 -0.55,1 0.9,0 1.95,-0.4 2.35,-1 0.35,-0.6 1.15,-0.85 1.8,-0.65 1.2,0.45 6.65,-1.95 6.65,-2.9 0,-0.3 -0.45,-1.4 -1.05,-2.45 -0.7,-1.35 -0.7,-2.55 0.05,-3.95 1.35,-2.55 -2.2,-2.8 -6.65,-0.5 -8.25,4.3 -21.9,-1.9 -44.85,-20.5 -14,-11.35 -25.25,-19 -27.85,-19 -1.8,0 -2.4,-0.45 -2.05,-1.4 0.55,-1.35 -4.35,-5.6 -6.5,-5.6 -0.6,0 -1.1,1.35 -1.1,3 z m -17.6,24.4 c 4.4,1.15 4.7,1.4 3.15,2.7 -0.95,0.75 -2.75,2.4 -4,3.65 C 76.3,227 74.8,228 74.2,228 c -0.55,0 -1.2,0.55 -1.45,1.25 -0.35,1 -0.75,1 -1.95,0 -1,-0.85 -3.05,-1.05 -6.15,-0.6 -3.2,0.4 -4.65,0.25 -4.65,-0.5 0,-0.65 1,-1.2 2.25,-1.25 1.25,-0.1 2.7,-0.25 3.25,-0.35 0.55,-0.15 1.45,-0.35 2,-0.5 0.55,-0.1 -0.35,-0.8 -2,-1.55 l -3,-1.3 2.75,-0.7 c 1.55,-0.4 3.85,-0.5 5.2,-0.25 2.75,0.5 1.45,-2.8 -1.4,-3.6 -0.85,-0.25 -0.2,-0.45 1.45,-0.5 1.65,-0.05 5.2,0.5 7.9,1.25 z"
     id="path28"
     style="fill:#000000;stroke:none;stroke-width:0.05" />
</svg>
