<?xml version="1.0" encoding="UTF-8" standalone="no"?>
<!-- Created with Inkscape (http://www.inkscape.org/) -->

<svg
   width="180.66763mm"
   height="158.59648mm"
   viewBox="0 0 180.66763 158.59648"
   version="1.1"
   id="svg5"
   inkscape:version="1.1 (c68e22c387, 2021-05-23)"
   sodipodi:docname="logo.svg"
   xmlns:inkscape="http://www.inkscape.org/namespaces/inkscape"
   xmlns:sodipodi="http://sodipodi.sourceforge.net/DTD/sodipodi-0.dtd"
   xmlns="http://www.w3.org/2000/svg"
   xmlns:svg="http://www.w3.org/2000/svg">
  <sodipodi:namedview
     id="namedview7"
     pagecolor="#ffffff"
     bordercolor="#666666"
     borderopacity="1.0"
     inkscape:pageshadow="2"
     inkscape:pageopacity="0.0"
     inkscape:pagecheckerboard="0"
     inkscape:document-units="mm"
     showgrid="false"
     lock-margins="true"
     fit-margin-top="0"
     fit-margin-left="0"
     fit-margin-right="0"
     fit-margin-bottom="0"
     inkscape:zoom="0.70911897"
     inkscape:cx="232.6831"
     inkscape:cy="396.26637"
     inkscape:window-width="1920"
     inkscape:window-height="1000"
     inkscape:window-x="-11"
     inkscape:window-y="35"
     inkscape:window-maximized="1"
     inkscape:current-layer="layer1" />
  <defs
     id="defs2">
    <clipPath
       clipPathUnits="userSpaceOnUse"
       id="clipPath940">
      <rect
         style="opacity:0.05;fill:#0000ff;fill-rule:evenodd;stroke-width:8.15602"
         id="rect942"
         width="7429.252"
         height="4496.1128"
         x="-6448.2871"
         y="-6493.4648"
         transform="matrix(0,-1,-1,0,0,0)" />
    </clipPath>
  </defs>
  <g
     inkscape:label="Layer 1"
     inkscape:groupmode="layer"
     id="layer1"
     transform="translate(7.129044,-28.905274)">
    <g
       transform="matrix(0,-0.03527778,-0.03527778,0,185.95616,257.9639)"
       fill="#000000"
       stroke="none"
       id="g802"
       clip-path="url(#clipPath940)">
      <path
         d="m 170,6736 c 0,-8 19,-25 43,-39 92,-55 227,-210 227,-262 0,-8 10,-19 23,-24 41,-16 57,-44 55,-96 -2,-36 -7,-49 -20,-53 -22,-5 -23,-16 -3,-32 19,-16 19,-47 0,-83 -8,-15 -12,-40 -9,-55 10,-54 -102,-330 -160,-392 -13,-14 -32,-41 -41,-60 -10,-19 -78,-94 -151,-167 C 33,5372 0,5334 0,5314 c 0,-25 0,-25 63,18 106,72 308,285 344,363 17,38 32,62 61,98 12,16 22,35 22,43 0,8 8,31 19,52 10,20 22,59 26,86 3,27 14,60 22,73 9,13 13,26 10,29 -3,3 1,25 9,47 13,38 24,115 40,303 5,57 4,62 -20,78 -15,9 -39,19 -55,22 -69,14 -190,142 -191,202 0,21 -3,22 -90,22 -71,0 -90,-3 -90,-14 z"
         id="path560" />
      <path
         d="m 530,6675 c 0,-3 8,-13 19,-24 10,-10 21,-25 24,-32 4,-12 7,-12 18,0 12,11 12,14 0,18 -7,3 -21,14 -29,24 -16,18 -32,25 -32,14 z"
         id="path564" />
      <path
         d="m 650,6602 c 0,-16 86,-91 125,-109 33,-16 40,-23 38,-46 -2,-27 12,-38 20,-14 5,17 59,-12 65,-35 3,-12 14,-18 31,-18 20,0 37,-11 60,-40 20,-25 40,-40 54,-40 13,0 28,-5 35,-12 9,-9 15,-9 23,-1 15,15 2,51 -22,58 -10,4 -19,11 -19,16 0,5 -5,9 -11,9 -5,0 -31,16 -56,35 -25,19 -51,35 -58,35 -7,0 -15,7 -19,15 -3,8 -14,15 -25,15 -11,0 -21,3 -23,8 -5,11 -140,99 -165,106 -13,4 -23,12 -23,17 0,5 -7,9 -15,9 -8,0 -15,-4 -15,-8 z"
         id="path566" />
      <path
         d="m 860,6290 c -6,-11 -8,-25 -5,-30 3,-5 1,-17 -4,-27 -14,-23 -43,-202 -36,-214 16,-25 32,8 41,86 6,53 18,87 35,96 25,13 24,54 0,85 -20,25 -20,25 -31,4 z"
         id="path568" />
      <path
         d="m 1127,6303 c -3,-5 12,-34 32,-67 27,-44 48,-64 86,-84 79,-40 84,-42 106,-42 29,0 76,-50 58,-61 -8,-4 -10,-11 -6,-16 4,-4 16,-3 25,3 23,15 41,7 35,-15 -5,-21 48,-62 55,-43 5,17 32,15 32,-2 0,-21 44,-46 61,-35 12,8 12,11 -1,22 -8,6 -20,25 -25,42 -6,17 -19,31 -30,34 -11,2 -33,14 -51,27 -17,13 -37,24 -44,24 -7,0 -23,10 -34,23 -12,12 -31,28 -43,36 -11,7 -44,29 -75,50 -30,20 -80,53 -111,74 -60,40 -63,41 -70,30 z"
         id="path570" />
      <path
         d="m 728,6065 c -7,-33 -2,-44 11,-29 4,5 5,20 1,34 -6,25 -6,25 -12,-5 z"
         id="path572" />
      <path
         d="m 1150,6081 c 0,-11 29,-35 35,-29 10,9 -7,38 -21,38 -8,0 -14,-4 -14,-9 z"
         id="path574" />
      <path
         d="m 1210,6005 c 0,-18 5,-25 19,-25 26,0 36,17 21,35 -19,23 -40,18 -40,-10 z"
         id="path576" />
      <path
         d="m 1072,5948 c -16,-16 -15,-40 1,-62 11,-15 15,-15 24,-4 19,22 20,72 3,75 -9,2 -21,-2 -28,-9 z"
         id="path578" />
      <path
         d="m 1672,5938 c -16,-16 -15,-33 3,-48 19,-16 20,-14 28,28 7,34 -8,43 -31,20 z"
         id="path580" />
      <path
         d="m 1130,5910 c 0,-24 15,-27 24,-4 9,22 8,24 -9,24 -8,0 -15,-9 -15,-20 z"
         id="path582" />
      <path
         d="m 1790,5856 c 0,-14 5,-28 11,-32 17,-10 32,12 24,35 -9,29 -35,27 -35,-3 z"
         id="path584" />
      <path
         d="m 1490,5850 c 0,-5 7,-10 15,-10 8,0 15,5 15,10 0,6 -7,10 -15,10 -8,0 -15,-4 -15,-10 z"
         id="path586" />
      <path
         d="m 892,5838 c -18,-18 -14,-28 8,-28 11,0 20,6 20,14 0,21 -15,27 -28,14 z"
         id="path588" />
      <path
         d="m 752,5831 c 4,-13 18,-16 19,-4 0,4 -5,9 -11,12 -7,2 -11,-2 -8,-8 z"
         id="path590" />
      <path
         d="m 1530,5810 c 0,-11 6,-23 14,-26 8,-3 20,-19 26,-35 14,-33 35,-38 50,-10 19,36 12,57 -25,74 -47,22 -65,21 -65,-3 z"
         id="path592" />
      <path
         d="m 1830,5802 c 0,-20 53,-53 79,-50 40,5 36,42 -4,45 -16,0 -40,4 -52,8 -14,4 -23,3 -23,-3 z"
         id="path594" />
      <path
         d="m 703,5747 c -13,-18 -23,-43 -23,-55 0,-13 -7,-25 -15,-28 -8,-4 -15,-10 -15,-16 0,-5 -7,-16 -16,-25 -10,-10 -12,-19 -6,-25 13,-13 62,19 62,40 0,9 10,26 22,39 23,24 49,88 40,98 -12,12 -28,3 -49,-28 z"
         id="path596" />
      <path
         d="m 1350,5671 c 0,-5 7,-12 16,-15 22,-9 24,-8 24,9 0,8 -9,15 -20,15 -11,0 -20,-4 -20,-9 z"
         id="path598" />
      <path
         d="m 1307,5653 c -13,-12 -7,-23 13,-23 11,0 20,7 20,15 0,15 -21,21 -33,8 z"
         id="path600" />
      <path
         d="m 1243,5636 c -20,-9 -23,-19 -23,-63 0,-28 3,-54 8,-56 4,-3 25,13 47,34 38,38 39,40 25,66 -18,31 -27,34 -57,19 z"
         id="path602" />
      <path
         d="m 1898,5581 c -19,-18 -24,-41 -10,-41 16,0 52,32 52,46 0,19 -21,17 -42,-5 z"
         id="path604" />
      <path
         d="m 600,5544 c 0,-8 -13,-29 -30,-46 -32,-32 -39,-58 -15,-58 8,0 15,5 15,11 0,5 16,17 35,25 36,15 42,31 25,65 -13,23 -30,25 -30,3 z"
         id="path606" />
      <path
         d="m 984,5537 c -42,-23 -46,-57 -6,-57 32,0 52,16 52,41 0,22 -21,30 -46,16 z"
         id="path608" />
      <path
         d="m 866,5475 c -4,-14 -3,-33 2,-41 8,-14 10,-14 21,0 8,9 22,16 32,16 25,0 34,19 12,26 -10,3 -26,10 -35,15 -24,13 -25,12 -32,-16 z"
         id="path610" />
      <path
         d="m 1557,5493 c -4,-3 -7,-15 -7,-25 0,-11 -7,-18 -19,-18 -38,0 -69,-88 -38,-107 8,-4 19,-17 25,-28 10,-19 11,-19 18,-1 4,10 2,27 -4,37 -15,24 -15,66 -1,75 6,3 22,1 35,-7 13,-7 25,-10 27,-8 15,20 47,82 43,86 -2,2 -14,-2 -26,-9 -18,-10 -24,-10 -27,0 -5,13 -16,16 -26,5 z"
         id="path612" />
      <path
         d="m 741,5427 c -18,-21 -20,-26 -7,-36 11,-9 19,-7 40,12 14,13 26,29 26,36 0,19 -36,12 -59,-12 z"
         id="path614" />
      <path
         d="m 2005,5409 c -10,-15 3,-25 16,-12 7,7 7,13 1,17 -6,3 -14,1 -17,-5 z"
         id="path616" />
      <path
         d="m 644,5389 c -16,-17 -16,-22 -4,-29 22,-14 27,-12 34,13 12,44 1,50 -30,16 z"
         id="path618" />
      <path
         d="m 455,5359 c -4,-6 -5,-13 -2,-16 7,-7 27,6 27,18 0,12 -17,12 -25,-2 z"
         id="path620" />
      <path
         d="m 1077,5343 c -11,-10 -8,-63 3,-63 6,0 10,16 10,35 0,36 -2,40 -13,28 z"
         id="path622" />
      <path
         d="m 1750,5346 c 0,-2 7,-9 15,-16 12,-10 15,-10 15,4 0,9 -7,16 -15,16 -8,0 -15,-2 -15,-4 z"
         id="path624" />
      <path
         d="m 2175,5306 c -16,-24 -16,-28 -3,-44 9,-9 13,-22 11,-29 -2,-6 0,-14 5,-17 13,-8 24,82 13,102 -7,13 -11,11 -26,-12 z"
         id="path626" />
      <path
         d="m 353,5262 c -43,-27 -56,-52 -28,-52 7,0 18,6 22,13 4,7 22,19 40,26 20,8 30,18 26,27 -7,18 -10,17 -60,-14 z"
         id="path628" />
      <path
         d="m 1322,5200 c -63,-58 -77,-79 -44,-61 27,14 44,-1 36,-32 -8,-33 -3,-33 45,-1 50,32 56,49 29,74 -19,17 -19,20 -5,26 17,6 23,39 9,48 -4,2 -36,-22 -70,-54 z"
         id="path630" />
      <path
         d="m 1437,5246 c -12,-31 -8,-46 13,-46 23,0 26,18 7,44 -13,18 -14,18 -20,2 z"
         id="path632" />
      <path
         d="m 2092,5221 c -11,-19 -27,-32 -48,-35 -47,-9 -104,-78 -104,-125 0,-23 -26,-29 -32,-9 -7,21 -78,-22 -78,-48 0,-11 -11,-31 -25,-44 -13,-12 -22,-27 -19,-31 12,-19 43,-7 78,31 21,22 46,40 58,40 20,0 89,45 97,63 1,4 14,20 27,34 13,14 24,31 24,37 0,6 18,29 40,51 44,45 50,65 20,65 -13,0 -28,-12 -38,-29 z"
         id="path634" />
      <path
         d="m 2546,5233 c -3,-4 7,-20 23,-37 16,-17 31,-44 34,-61 3,-16 13,-50 22,-75 11,-29 18,-84 20,-159 3,-104 2,-114 -15,-118 -11,-3 -22,-18 -26,-37 -3,-17 -13,-44 -22,-61 -24,-47 -104,-135 -129,-141 -13,-4 -23,-9 -23,-14 0,-4 -15,-22 -32,-42 -67,-71 -96,-108 -87,-113 22,-14 151,67 252,160 22,19 43,35 47,35 5,0 20,23 34,52 20,40 24,60 19,91 -5,34 -3,42 18,58 21,16 24,26 27,122 4,96 2,108 -23,161 -31,65 -27,81 10,46 63,-59 110,-228 94,-340 -4,-31 -1,-57 10,-85 10,-26 16,-69 16,-121 0,-76 -2,-82 -34,-125 -70,-90 -217,-209 -295,-239 -13,-5 -27,-14 -31,-19 -3,-6 -15,-11 -26,-11 -25,0 -99,-37 -99,-50 0,-6 -19,-10 -43,-10 -24,0 -52,-7 -63,-15 -10,-8 -36,-15 -57,-15 -24,0 -40,-5 -43,-15 -5,-11 -21,-15 -59,-15 -57,0 -85,-7 -85,-21 0,-16 134,-11 156,6 10,8 33,15 50,15 17,0 37,7 44,15 7,9 21,13 35,9 13,-3 37,1 53,10 17,9 47,16 66,16 19,0 36,5 38,11 4,11 56,33 113,48 38,10 145,70 145,82 0,5 15,16 33,25 70,36 173,168 183,237 4,23 13,54 20,69 8,15 14,38 14,52 0,14 4,28 10,31 6,4 2,22 -11,47 -17,33 -20,53 -16,91 6,45 2,60 -25,107 -4,8 -10,21 -13,28 -13,31 -17,40 -43,84 -26,46 -147,178 -162,178 -6,0 -22,12 -67,50 -14,11 -46,13 -57,3 z"
         id="path636" />
      <path
         d="m 1647,5175 c -7,-14 -28,-34 -47,-44 -20,-10 -36,-27 -38,-40 -4,-25 -4,-25 37,-5 30,15 91,86 91,106 0,18 -30,6 -43,-17 z"
         id="path638" />
      <path
         d="m 1152,5071 c -52,-60 -65,-91 -37,-91 9,0 15,9 15,24 0,32 20,44 27,17 3,-12 8,-21 11,-21 3,0 22,19 44,42 36,39 37,43 23,65 -9,13 -19,23 -23,23 -4,0 -31,-27 -60,-59 z"
         id="path640" />
      <path
         d="m 795,5050 c -3,-5 1,-10 9,-10 8,0 18,5 21,10 3,6 -1,10 -9,10 -8,0 -18,-4 -21,-10 z"
         id="path642" />
      <path
         d="m 1025,4990 c -3,-5 3,-10 14,-10 12,0 21,5 21,10 0,6 -6,10 -14,10 -8,0 -18,-4 -21,-10 z"
         id="path644" />
      <path
         d="m 1293,4947 c -4,-7 -17,-17 -27,-20 -10,-4 -16,-10 -13,-13 3,-4 14,-3 24,2 10,4 27,8 38,8 24,1 27,29 3,34 -9,2 -20,-3 -25,-11 z"
         id="path646" />
      <path
         d="m 2033,4948 c -4,-7 -25,-22 -47,-33 -21,-11 -41,-25 -43,-32 -3,-7 -12,-13 -20,-13 -8,0 -32,-13 -52,-28 -20,-16 -45,-32 -56,-37 -19,-7 -18,-9 8,-18 27,-11 37,-40 17,-52 -14,-9 -12,-25 3,-25 8,0 27,14 43,31 16,17 41,43 57,57 15,15 27,32 27,38 0,13 70,79 90,86 8,2 11,11 7,21 -8,20 -23,22 -34,5 z"
         id="path648" />
      <path
         d="m 2465,4920 c -15,-30 -13,-50 6,-50 5,0 9,7 9,15 0,9 7,18 15,21 19,8 20,44 0,44 -8,0 -22,-14 -30,-30 z"
         id="path650" />
      <path
         d="m 2275,4917 c -4,-10 -5,-21 -1,-24 10,-10 18,4 13,24 -4,17 -4,17 -12,0 z"
         id="path652" />
      <path
         d="m 1680,4896 c 0,-16 28,-42 36,-33 3,3 -4,15 -15,26 -14,14 -21,17 -21,7 z"
         id="path654" />
      <path
         d="m 1145,4875 c -36,-15 -83,-63 -52,-52 10,4 27,7 38,7 10,0 33,13 51,30 28,25 30,29 13,29 -11,0 -34,-7 -50,-14 z"
         id="path656" />
      <path
         d="m 1617,4874 c -11,-11 -8,-44 3,-44 15,0 24,30 13,41 -5,5 -12,6 -16,3 z"
         id="path658" />
      <path
         d="m 2420,4825 c 0,-27 9,-32 28,-13 18,18 14,38 -8,38 -15,0 -20,-7 -20,-25 z"
         id="path660" />
      <path
         d="m 2960,4821 c 0,-11 7,-32 15,-48 38,-74 59,-146 73,-253 5,-39 12,-55 22,-55 12,0 15,18 15,102 0,67 -4,104 -11,107 -6,2 -14,17 -18,33 -8,32 -74,133 -87,133 -5,0 -9,-9 -9,-19 z"
         id="path662" />
      <path
         d="m 2315,4764 c -38,-36 -91,-74 -117,-85 -26,-12 -50,-29 -53,-39 -3,-10 -17,-25 -30,-34 -14,-9 -25,-23 -25,-32 0,-25 42,-8 140,56 25,16 54,34 66,39 44,20 84,63 95,103 6,22 7,44 2,48 -4,5 -39,-21 -78,-56 z"
         id="path664" />
      <path
         d="m 1534,4806 c -14,-11 -16,-18 -8,-26 8,-8 14,-7 24,5 7,8 19,15 26,15 8,0 14,5 14,10 0,15 -33,12 -56,-4 z"
         id="path666" />
      <path
         d="m 1730,4680 c -11,-11 -29,-20 -39,-20 -10,0 -29,-9 -42,-19 -19,-16 -22,-22 -11,-32 9,-10 15,-10 24,-1 7,7 20,12 30,12 9,0 21,6 25,13 4,6 21,19 37,27 16,8 31,21 34,28 6,20 -36,14 -58,-8 z"
         id="path668" />
      <path
         d="m 0,4675 c 0,-8 4,-15 9,-15 5,0 18,-3 28,-7 17,-6 17,-5 -1,15 -22,26 -36,28 -36,7 z"
         id="path670" />
      <path
         d="m 3110,4632 c 0,-22 27,-79 41,-87 5,-4 9,-17 9,-31 0,-13 6,-24 13,-24 11,0 57,-87 57,-108 0,-5 7,-15 15,-22 11,-9 15,-32 15,-81 0,-38 4,-69 9,-69 12,0 21,25 21,58 0,15 4,33 9,41 6,9 13,-9 20,-55 11,-65 10,-73 -13,-135 -23,-61 -24,-67 -8,-83 15,-15 15,-16 -7,-16 -32,0 -59,17 -75,48 -8,15 -28,41 -45,57 -17,17 -31,37 -31,46 0,8 -5,20 -10,25 -7,7 -5,20 5,41 9,19 13,42 9,62 -11,52 -24,46 -24,-12 0,-41 -4,-56 -16,-61 -11,-4 -19,3 -27,24 -6,16 -15,30 -19,30 -4,0 -8,15 -8,34 0,18 -7,39 -15,46 -8,7 -15,16 -15,21 0,12 -38,49 -50,49 -5,0 -10,-4 -10,-9 0,-16 41,-81 51,-81 5,0 9,-11 9,-25 0,-14 7,-28 15,-31 8,-4 15,-15 15,-25 0,-24 31,-75 71,-117 9,-9 20,-27 24,-40 4,-13 18,-28 31,-34 13,-6 24,-18 24,-27 0,-31 30,-61 61,-61 35,0 40,-28 8,-50 -12,-8 -39,-27 -60,-42 -21,-15 -49,-30 -63,-34 -18,-4 -26,-15 -31,-41 -10,-55 9,-64 47,-22 18,20 38,38 43,40 6,2 31,28 55,56 25,29 51,53 59,53 8,0 29,-11 47,-25 39,-30 44,-31 44,-7 0,20 -59,82 -78,82 -20,0 -14,19 13,43 22,19 26,35 34,112 10,100 2,131 -59,218 -71,100 -86,123 -93,137 -4,8 -16,29 -27,45 -11,17 -23,36 -26,44 -9,18 -50,61 -58,61 -3,0 -6,-8 -6,-18 z"
         id="path672" />
      <path
         d="m 1475,4557 c -16,-7 -32,-14 -35,-18 -3,-3 -16,-12 -29,-18 -17,-9 -20,-16 -12,-24 7,-7 16,-6 29,6 10,9 32,20 50,23 17,3 39,15 48,25 16,18 16,19 -2,18 -10,-1 -32,-6 -49,-12 z"
         id="path674" />
      <path
         d="m 1068,4483 c -10,-2 -18,-9 -18,-15 0,-6 10,-8 23,-4 12,3 26,6 30,6 5,0 5,5 2,10 -6,10 -9,11 -37,3 z"
         id="path676" />
      <path
         d="m 2104,4469 c -9,-16 18,-30 33,-17 7,6 10,14 7,19 -7,13 -31,11 -40,-2 z"
         id="path678" />
      <path
         d="m 525,4410 c 3,-5 15,-10 26,-10 11,0 17,5 14,10 -3,6 -15,10 -26,10 -11,0 -17,-4 -14,-10 z"
         id="path680" />
      <path
         d="m 580,4390 c 0,-13 28,-25 38,-16 3,4 0,11 -8,16 -20,13 -30,12 -30,0 z"
         id="path682" />
      <path
         d="m 1745,4350 c -8,-13 15,-13 35,0 12,8 11,10 -7,10 -12,0 -25,-4 -28,-10 z"
         id="path684" />
      <path
         d="m 1620,4320 c 0,-5 14,-10 30,-10 17,0 30,5 30,10 0,6 -13,10 -30,10 -16,0 -30,-4 -30,-10 z"
         id="path686" />
      <path
         d="m 1473,4302 c -35,-2 -63,-7 -63,-12 0,-12 130,-13 148,-1 20,12 -10,17 -85,13 z"
         id="path688" />
      <path
         d="m 905,4290 c 3,-6 20,-10 37,-10 38,0 34,5 -10,13 -21,4 -31,3 -27,-3 z"
         id="path690" />
      <path
         d="m 2817,4216 c -4,-10 -5,-21 -2,-24 9,-9 17,6 13,25 -3,17 -4,17 -11,-1 z"
         id="path692" />
      <path
         d="m 1533,4203 c 9,-2 25,-2 35,0 9,3 1,5 -18,5 -19,0 -27,-2 -17,-5 z"
         id="path694" />
      <path
         d="m 3045,4104 c -21,-33 -14,-40 25,-24 18,8 30,20 30,31 0,28 -35,24 -55,-7 z"
         id="path696" />
      <path
         d="m 3466,4078 c -11,-77 -11,-91 1,-95 19,-7 46,54 33,76 -5,11 -10,29 -10,40 0,38 -18,22 -24,-21 z"
         id="path698" />
      <path
         d="m 3650,4063 c -14,-3 -29,-9 -34,-14 -6,-5 -18,-9 -27,-9 -10,0 -20,-4 -24,-10 -8,-13 17,-50 33,-50 29,0 72,-32 93,-70 13,-22 48,-57 81,-80 32,-23 59,-49 60,-58 0,-9 2,-22 2,-27 1,-6 9,-21 18,-34 36,-50 114,-79 256,-92 54,-5 117,-13 142,-19 25,-5 88,-9 140,-10 h 95 l 37,41 c 66,72 41,99 -45,51 -68,-38 -138,-50 -157,-27 -13,16 -10,20 44,57 6,4 7,10 3,14 -3,4 -12,2 -19,-4 -7,-6 -46,-10 -86,-10 -69,0 -73,1 -70,21 2,17 9,21 27,19 19,-3 22,0 17,13 -3,10 -1,24 5,31 14,17 3,34 -22,34 -14,0 -21,-9 -25,-30 -4,-16 -9,-30 -13,-30 -3,0 -28,20 -56,45 -27,25 -56,45 -65,45 -9,0 -20,4 -25,8 -6,5 -44,15 -85,22 -92,15 -100,19 -153,78 -98,109 -92,105 -147,95 z"
         id="path700" />
      <path
         d="m 2585,4030 c -23,-26 -4,-26 26,0 18,15 20,19 8,20 -9,0 -24,-9 -34,-20 z"
         id="path702" />
      <path
         d="m 3075,4030 c -3,-5 -17,-10 -31,-10 -14,0 -27,-7 -31,-16 -3,-9 -12,-13 -21,-9 -11,4 -52,-31 -134,-114 -65,-67 -118,-123 -118,-126 0,-11 23,-4 77,21 82,39 320,264 279,264 -8,0 -18,-4 -21,-10 z"
         id="path704" />
      <path
         d="m 1695,4000 c -77,-3 -135,-7 -130,-8 22,-6 332,-10 363,-5 17,3 32,9 32,14 0,9 -23,9 -265,-1 z"
         id="path706" />
      <path
         d="m 3117,3935 c -4,-8 -2,-17 4,-21 11,-6 39,13 39,27 0,15 -37,10 -43,-6 z"
         id="path708" />
      <path
         d="m 3540,3935 c 0,-8 5,-15 10,-15 6,0 10,7 10,15 0,8 -4,15 -10,15 -5,0 -10,-7 -10,-15 z"
         id="path710" />
      <path
         d="m 3470,3869 c 0,-17 4,-20 23,-15 12,3 25,6 30,6 4,0 7,7 7,15 0,10 -10,15 -30,15 -24,0 -30,-4 -30,-21 z"
         id="path712" />
      <path
         d="m 3415,3848 c -5,-27 -16,-42 -39,-56 -50,-30 -206,-183 -212,-209 -5,-18 -11,-22 -28,-18 -16,5 -18,4 -6,-4 13,-9 13,-12 -1,-23 -9,-7 -36,-40 -61,-73 -25,-33 -55,-69 -67,-79 -11,-11 -21,-24 -21,-29 0,-6 -11,-25 -25,-43 -14,-18 -25,-39 -25,-47 0,-9 -3,-17 -7,-19 -9,-3 -53,-64 -53,-73 0,-13 21,-3 27,13 8,20 21,36 46,60 9,9 17,22 17,29 0,7 4,13 8,13 4,0 26,24 47,52 22,29 51,64 65,78 14,14 36,39 48,55 13,17 65,74 115,128 76,83 94,97 114,92 13,-3 23,-1 23,5 0,5 -5,10 -11,10 -5,0 -8,4 -4,10 3,5 12,7 20,3 11,-3 13,-1 9,10 -8,21 26,57 53,57 13,0 39,-17 63,-41 26,-26 40,-35 40,-25 0,9 -4,16 -10,16 -5,0 -10,5 -10,12 0,19 -51,88 -65,88 -7,0 -19,10 -28,23 -15,22 -15,22 -22,-15 z"
         id="path714" />
      <path
         d="m 4900,3790 c -87,-21 -113,-29 -119,-38 -3,-5 -34,-18 -69,-27 -34,-10 -65,-21 -68,-26 -2,-4 -2,-20 2,-34 8,-34 32,-29 54,10 10,18 26,31 40,33 14,2 33,10 44,18 23,16 114,19 160,5 86,-26 117,-29 132,-13 9,8 14,28 12,46 l -3,31 -75,2 c -41,0 -91,-3 -110,-7 z"
         id="path716" />
      <path
         d="m 5185,3781 c -27,-6 -30,-10 -31,-46 -1,-26 -11,-54 -27,-79 -15,-21 -27,-50 -27,-63 0,-31 -22,-39 -54,-17 -25,16 -28,16 -45,0 -15,-14 -24,-15 -40,-6 -12,6 -21,17 -21,24 0,13 -68,66 -85,66 -5,0 -16,7 -26,16 -15,14 -23,14 -53,3 -44,-16 -50,-41 -8,-33 32,6 88,-26 123,-70 24,-31 24,-43 -1,-51 -11,-3 -20,-11 -20,-16 0,-5 -21,-9 -47,-9 -39,0 -52,5 -79,31 -31,30 -32,30 -39,10 -3,-12 -10,-21 -14,-21 -16,0 -101,-62 -101,-74 0,-7 13,-24 28,-38 22,-20 40,-26 81,-26 46,-2 53,1 61,22 11,29 40,26 83,-10 30,-26 86,-44 132,-44 17,0 46,-4 65,-10 38,-11 50,-4 53,30 1,12 11,29 23,37 20,12 29,12 74,-1 28,-9 67,-25 86,-36 19,-12 42,-19 52,-16 11,4 29,-2 44,-13 13,-11 37,-23 51,-26 15,-4 27,-13 27,-20 0,-23 18,-27 44,-9 l 26,16 -26,34 c -19,24 -22,34 -12,34 8,0 19,-5 25,-11 12,-12 43,-6 43,9 0,4 -20,18 -45,30 l -45,22 v -25 c 0,-30 -25,-34 -33,-5 -3,13 -14,20 -29,20 -13,0 -44,10 -69,22 -32,16 -59,21 -99,20 -32,-1 -68,4 -85,12 -16,8 -38,17 -47,20 -18,5 -25,36 -9,36 5,0 35,27 67,60 32,33 74,68 93,78 27,12 37,25 41,47 5,27 10,31 40,27 16,-3 12,-32 -5,-38 -29,-12 -15,-24 28,-24 23,0 55,-8 72,-18 29,-18 30,-18 45,1 16,19 17,19 71,-3 29,-13 62,-34 72,-47 22,-27 39,-29 57,-8 12,15 50,21 50,8 0,-3 -7,-14 -16,-24 -17,-19 -13,-49 6,-49 6,0 16,14 21,30 6,17 17,30 24,30 7,0 35,-20 63,-45 27,-25 54,-45 60,-45 5,0 27,-26 48,-57 22,-32 45,-62 52,-66 6,-4 12,-12 12,-17 0,-6 8,-19 18,-29 36,-40 42,-51 42,-73 1,-27 18,-52 43,-61 14,-5 16,-11 7,-26 -16,-30 -12,-43 10,-36 14,4 20,2 20,-8 0,-9 -6,-17 -12,-19 -8,-3 -1,-19 20,-45 17,-23 32,-52 32,-66 0,-13 7,-30 15,-37 8,-7 15,-23 15,-35 0,-12 7,-28 15,-35 8,-7 19,-27 24,-44 l 9,-31 1,30 c 1,17 6,37 11,45 9,13 11,13 20,0 5,-8 10,-21 10,-27 0,-7 11,-20 24,-28 13,-9 27,-23 30,-32 5,-12 0,-14 -26,-9 -18,3 -38,2 -44,-2 -13,-8 -27,-85 -29,-159 -1,-29 -7,-58 -13,-66 -7,-8 -16,-49 -20,-91 -8,-71 -7,-79 11,-91 20,-14 20,-15 -7,-25 -21,-8 -25,-13 -18,-26 5,-9 7,-35 5,-58 -3,-27 1,-48 11,-61 14,-19 15,-19 33,-2 17,17 17,19 0,28 -29,17 -10,27 28,15 42,-13 46,-37 10,-70 -14,-13 -25,-30 -25,-39 0,-9 -9,-21 -20,-27 -11,-6 -20,-18 -20,-26 0,-22 -61,-112 -119,-173 -28,-30 -51,-58 -51,-63 0,-8 24,-13 50,-9 8,1 26,3 40,4 17,1 26,9 28,24 2,12 10,27 18,33 8,7 14,18 14,25 0,7 7,19 17,26 23,20 85,107 113,159 14,25 31,53 38,62 8,9 11,22 7,28 -4,6 8,30 27,53 55,69 61,85 84,265 4,27 2,42 -5,42 -6,0 -11,-7 -11,-15 0,-8 -4,-15 -10,-15 -5,0 -10,11 -10,25 0,14 4,25 8,25 11,0 34,91 26,99 -4,3 -9,0 -11,-6 -9,-26 -23,-12 -23,24 v 36 l 21,-19 22,-19 -8,55 c -4,30 -10,78 -14,106 -4,29 -12,58 -18,65 -6,8 -14,29 -18,47 -8,40 -33,91 -57,116 -22,25 -23,32 -1,45 16,9 16,11 -2,31 -11,12 -31,43 -45,70 -87,165 -291,363 -415,402 -16,5 -39,13 -50,18 -49,20 -123,42 -155,46 -31,4 -83,17 -177,45 -101,30 -277,45 -348,30 z m 781,-246 c 16,-8 42,-28 58,-45 15,-17 41,-37 57,-46 16,-8 29,-19 29,-25 0,-5 25,-34 55,-64 55,-53 69,-88 39,-99 -26,-10 -32,-7 -38,17 -3,13 -17,36 -31,51 -14,15 -25,31 -25,37 0,15 -22,10 -36,-8 -12,-17 -13,-17 -20,2 -4,11 -13,24 -21,28 -7,4 -13,15 -13,22 0,8 -4,15 -9,15 -5,0 -23,13 -41,30 -24,22 -30,35 -25,51 6,18 4,20 -14,14 -12,-3 -21,-4 -21,0 0,4 21,33 26,35 0,0 14,-7 30,-15 z m -906,-74 c 0,-47 -10,-55 -56,-47 -40,8 -44,23 -9,32 15,4 25,13 25,24 0,17 12,27 33,29 4,1 7,-17 7,-38 z m 1080,-228 c 0,-7 -4,-13 -10,-13 -5,0 -10,12 -10,28 0,21 2,24 10,12 5,-8 10,-21 10,-27 z m 100,-33 c 21,-21 27,-65 10,-75 -11,-7 -40,52 -40,80 0,20 6,19 30,-5 z m -73,-34 c -11,-27 -27,-17 -27,16 0,30 1,31 16,16 9,-9 14,-24 11,-32 z m 23,-33 c -1,-29 -15,-53 -31,-53 -24,0 -24,14 -1,39 18,20 32,26 32,14 z m 132,-58 c 6,-14 15,-25 20,-25 4,0 8,-22 8,-50 0,-49 -1,-50 -30,-50 -32,0 -37,9 -18,39 9,15 9,25 0,46 -15,32 -16,65 -2,65 6,0 16,-11 22,-25 z m 98,-200 c 10,-12 10,-21 2,-38 -6,-12 -13,-44 -17,-72 -9,-83 -11,-90 -30,-113 -38,-43 -73,-15 -46,36 27,48 42,90 53,143 13,62 18,68 38,44 z m 16,-249 c 7,-18 -58,-86 -81,-86 -28,0 -15,30 20,47 21,10 35,24 35,35 0,21 18,24 26,4 z m -82,-181 c -9,-14 -21,-22 -26,-19 -5,3 -1,14 9,24 26,27 36,24 17,-5 z m 79,-22 c -10,-29 -14,-34 -23,-28 -6,4 -4,14 3,25 15,25 29,26 20,3 z m -113,-29 c 0,-16 -16,-19 -25,-4 -8,13 4,32 16,25 5,-4 9,-13 9,-21 z"
         id="path718" />
      <path
         d="m 3022,3758 c -18,-18 -15,-28 8,-28 13,0 20,7 20,20 0,23 -10,26 -28,8 z"
         id="path720" />
      <path
         d="m 3640,3747 c 0,-7 -7,-23 -16,-35 -12,-17 -19,-20 -34,-12 -24,13 -37,-5 -19,-26 18,-22 2,-30 -21,-9 -23,21 -50,13 -50,-15 0,-11 -4,-20 -9,-20 -4,0 -6,-11 -3,-25 3,-17 -1,-27 -12,-31 -9,-3 -16,-13 -16,-20 0,-8 -8,-18 -17,-21 -41,-15 -70,-45 -66,-66 3,-15 -7,-32 -31,-56 -20,-19 -36,-42 -36,-51 0,-10 -26,-42 -57,-72 -63,-60 -255,-282 -262,-301 -2,-7 -19,-29 -37,-50 -19,-20 -34,-41 -34,-46 0,-5 -18,-28 -40,-51 -22,-23 -40,-48 -40,-56 0,-8 -13,-44 -30,-81 -16,-36 -30,-72 -30,-79 0,-7 -5,-25 -11,-41 -7,-15 -13,-50 -15,-77 -2,-27 -11,-57 -20,-67 -14,-16 -14,-18 5,-24 14,-4 21,-15 21,-31 0,-19 5,-24 24,-24 14,0 28,-4 31,-10 3,-5 15,-10 26,-10 15,0 19,7 19,38 -1,20 -7,48 -15,62 -9,15 -14,54 -15,100 0,67 4,84 34,143 19,37 42,74 50,83 9,8 16,19 16,22 0,4 10,18 23,32 12,14 33,41 47,61 14,20 48,62 75,94 46,53 231,259 265,295 54,59 88,97 96,111 8,14 87,108 124,148 24,26 41,72 35,92 -7,22 5,25 23,7 13,-13 22,-4 103,90 8,10 7,17 -1,27 -15,19 -80,20 -80,2 z"
         id="path722" />
      <path
         d="m 5740,3538 c 0,-7 -3,-23 -6,-35 -5,-17 -2,-23 10,-23 9,0 16,-3 16,-7 0,-5 18,-28 40,-53 22,-25 40,-50 40,-56 0,-6 11,-21 25,-34 14,-13 25,-19 25,-13 0,17 -31,73 -41,73 -5,0 -9,11 -9,25 0,14 -6,25 -13,25 -7,0 -24,25 -38,55 -22,50 -49,73 -49,43 z"
         id="path724" />
      <path
         d="m 4450,3505 c -13,-14 -20,-28 -16,-32 9,-9 105,-8 114,1 7,8 -47,55 -64,56 -6,0 -21,-11 -34,-25 z"
         id="path726" />
      <path
         d="m 2060,3431 c -13,-26 -13,-31 5,-31 8,0 15,4 15,9 0,5 3,16 6,25 9,23 -13,20 -26,-3 z"
         id="path728" />
      <path
         d="m 4205,3410 c -11,-5 -37,-9 -57,-9 -20,-1 -40,-6 -43,-11 -4,-6 -21,-8 -40,-4 -38,7 -58,-12 -31,-31 9,-7 15,-23 14,-35 -3,-26 10,-34 32,-20 11,7 12,12 3,21 -9,9 -5,17 17,36 23,19 36,23 64,18 24,-5 42,-2 60,10 43,28 29,46 -19,25 z"
         id="path730" />
      <path
         d="m 5876,3413 c -11,-11 -6,-23 9,-23 9,0 19,-8 22,-17 4,-10 11,-22 16,-28 5,-5 19,-30 31,-54 21,-45 49,-71 62,-58 4,4 0,15 -9,25 -10,10 -17,32 -17,49 0,18 -6,33 -15,37 -8,3 -15,12 -15,21 0,8 -5,15 -11,15 -6,0 -23,9 -39,20 -15,11 -30,17 -34,13 z"
         id="path732" />
      <path
         d="m 5720,3400 c 0,-13 28,-25 38,-16 3,4 0,11 -8,16 -20,13 -30,12 -30,0 z"
         id="path734" />
      <path
         d="m 3886,3154 c -10,-9 -16,-33 -16,-58 0,-35 -5,-46 -28,-63 -16,-12 -46,-48 -68,-80 -21,-32 -48,-66 -61,-76 -13,-10 -23,-27 -23,-37 0,-9 -7,-23 -15,-30 -8,-7 -17,-27 -21,-46 -3,-19 -21,-53 -40,-76 -19,-24 -34,-52 -34,-62 0,-11 -6,-27 -13,-35 -14,-17 -31,-66 -42,-116 -3,-16 -14,-41 -24,-54 -18,-23 -19,-24 -62,-8 -24,8 -51,18 -60,22 -9,3 -23,0 -30,-8 -95,-99 -138,-150 -159,-191 -14,-26 -41,-67 -61,-90 -19,-22 -56,-68 -81,-102 -51,-66 -215,-224 -233,-224 -7,0 -33,-20 -58,-44 -26,-24 -54,-46 -62,-50 -16,-6 -12,-26 5,-26 17,0 111,67 323,228 72,55 126,112 179,190 17,26 34,49 37,52 3,3 37,52 76,110 88,133 81,126 102,108 10,-8 26,-18 36,-21 9,-4 17,-11 17,-17 0,-5 6,-10 13,-10 17,0 54,-42 67,-74 5,-15 10,-56 10,-92 0,-44 6,-77 19,-102 24,-46 83,-102 108,-102 11,0 24,-5 30,-11 6,-6 52,-14 102,-17 50,-2 91,-9 91,-14 0,-5 10,-13 23,-18 12,-6 36,-19 52,-29 33,-22 89,-49 150,-75 22,-9 52,-24 67,-32 14,-7 33,-14 41,-14 9,0 28,-6 44,-14 49,-24 125,-44 218,-56 50,-6 113,-16 140,-22 41,-8 58,-7 88,6 55,23 38,36 -37,29 -77,-7 -113,1 -121,26 -3,12 -19,21 -40,25 -19,4 -39,15 -44,25 -8,15 -19,17 -65,13 -30,-2 -63,-1 -72,2 -16,6 -15,8 4,22 28,19 28,37 0,69 -18,21 -27,24 -60,19 -49,-8 -58,12 -33,80 13,37 19,89 21,191 10,390 13,438 23,448 21,21 11,27 -39,27 -57,0 -59,-3 -37,-100 15,-69 15,-288 0,-443 -10,-101 -16,-124 -41,-165 -27,-44 -31,-47 -68,-44 -59,5 -111,21 -129,39 -9,9 -33,19 -53,24 -58,12 -193,48 -202,54 -5,3 -7,12 -4,19 3,7 -2,19 -11,26 -8,7 -15,18 -15,25 0,7 -11,16 -25,19 -32,8 -34,43 -2,56 20,8 19,9 -9,9 -48,1 -58,21 -50,101 5,56 3,70 -8,70 -19,0 -51,99 -37,113 6,6 11,21 11,32 0,18 41,105 132,279 9,18 23,38 32,45 9,8 16,24 16,37 0,13 4,24 9,24 15,0 96,111 108,145 6,19 18,32 34,35 22,6 24,10 20,56 -4,62 -24,79 -55,48 z m 325,-1304 c 5,0 9,-5 9,-11 0,-15 -43,-7 -48,10 -3,10 0,12 12,8 10,-4 22,-7 27,-7 z"
         id="path736" />
      <path
         d="m 2845,3140 c -3,-11 -10,-20 -15,-20 -4,0 -10,-9 -13,-20 -3,-13 0,-20 9,-20 8,0 14,6 14,14 0,7 7,19 15,26 17,14 20,40 6,40 -5,0 -13,-9 -16,-20 z"
         id="path738" />
      <path
         d="m 2790,3055 c 0,-8 5,-15 10,-15 6,0 10,7 10,15 0,8 -4,15 -10,15 -5,0 -10,-7 -10,-15 z"
         id="path740" />
      <path
         d="m 5180,3045 c 0,-12 51,-77 95,-121 52,-51 71,-84 98,-168 14,-43 14,-54 2,-83 -11,-25 -12,-40 -4,-61 8,-19 8,-42 0,-77 -44,-208 -48,-224 -65,-270 -20,-52 -20,-74 0,-82 17,-6 64,33 64,55 0,7 16,41 36,74 45,78 71,196 73,340 2,61 -1,70 -24,90 -14,12 -30,40 -36,62 -25,99 -60,140 -154,185 -11,5 -31,21 -44,35 -22,23 -41,33 -41,21 z"
         id="path742" />
      <path
         d="m 2756,3005 c -3,-8 -1,-17 3,-20 5,-3 11,2 15,10 3,8 1,17 -3,20 -5,3 -11,-2 -15,-10 z"
         id="path744" />
      <path
         d="m 2725,2951 c -6,-11 9,-23 19,-14 9,9 7,23 -3,23 -6,0 -12,-4 -16,-9 z"
         id="path746" />
      <path
         d="m 5117,2853 c -4,-3 -7,-20 -7,-36 0,-20 -6,-30 -19,-34 -15,-4 -51,-60 -51,-79 0,-10 54,7 72,22 13,13 19,13 37,2 26,-16 26,-24 2,-38 -11,-5 -29,-24 -41,-40 l -22,-31 26,-34 c 14,-18 42,-39 61,-45 20,-7 34,-15 32,-18 -2,-4 -10,-21 -17,-39 -20,-45 -50,-60 -83,-38 -21,13 -27,28 -33,72 -4,36 -14,63 -28,77 l -21,21 -7,-50 c -10,-62 8,-136 34,-143 10,-2 18,-8 18,-13 0,-5 7,-9 15,-9 8,0 15,-6 15,-12 0,-7 18,-24 40,-38 47,-28 47,-42 -1,-52 -30,-6 -37,-3 -61,23 -15,17 -29,36 -31,42 -3,9 -7,9 -17,0 -11,-10 -10,-17 5,-40 53,-84 100,-103 156,-62 37,26 37,49 -1,79 -29,25 -39,50 -20,50 6,0 10,6 10,14 0,7 7,19 15,26 8,7 15,26 15,42 0,16 7,37 16,46 26,25 12,109 -35,217 -35,78 -40,91 -45,108 -6,18 -18,22 -29,10 z"
         id="path748" />
      <path
         d="m 2622,2780 c -12,-16 -22,-34 -22,-40 0,-12 -12,-29 -54,-70 l -28,-29 19,-40 c 22,-44 33,-44 33,-1 0,15 7,33 15,40 8,7 15,20 15,29 0,9 6,25 14,36 7,11 16,32 20,48 3,15 11,27 16,27 6,0 10,7 10,15 0,23 -14,18 -38,-15 z"
         id="path750" />
      <path
         d="m 5217,2803 c -14,-13 -6,-38 17,-61 14,-12 27,-19 29,-15 7,11 -38,85 -46,76 z"
         id="path752" />
      <path
         d="m 4344,2616 c -7,-18 13,-56 29,-56 7,0 18,4 26,9 12,8 13,12 1,26 -23,28 -50,38 -56,21 z"
         id="path754" />
      <path
         d="m 2459,2602 c -39,-25 -199,-179 -199,-191 0,-6 -6,-11 -13,-11 -7,0 -20,-18 -30,-40 -11,-27 -23,-40 -37,-40 -21,0 -50,-46 -50,-80 v -21 l 29,20 c 16,12 35,34 42,49 6,15 29,35 49,45 21,10 64,49 96,87 33,39 83,95 112,126 28,31 52,60 52,65 0,14 -22,10 -51,-9 z"
         id="path756" />
      <path
         d="m 4593,2533 c -20,-7 -16,-22 17,-60 35,-40 37,-47 10,-70 -74,-63 -111,-108 -107,-128 20,-85 20,-85 3,-85 -24,0 -32,-47 -11,-70 31,-34 45,-24 86,58 17,35 20,54 15,97 -5,42 -2,57 10,69 32,32 92,11 151,-55 19,-21 44,-39 54,-39 23,0 23,-1 3,45 -8,21 -43,66 -77,101 -34,35 -75,81 -91,104 -29,39 -38,44 -63,33 z"
         id="path758" />
      <path
         d="m 2514,2475 c -11,-59 22,-175 46,-160 15,9 12,41 -5,55 -10,9 -15,32 -15,76 0,69 -15,86 -26,29 z"
         id="path760" />
      <path
         d="m 3141,2440 c -13,-6 -67,-15 -120,-21 -99,-11 -137,-27 -114,-50 14,-14 114,-13 164,1 19,6 47,10 63,10 35,0 118,40 113,54 -5,14 -76,18 -106,6 z"
         id="path762" />
      <path
         d="m 5237,2419 c -22,-25 -18,-34 8,-16 10,8 16,19 14,26 -3,7 -11,4 -22,-10 z"
         id="path764" />
      <path
         d="m 2597,2310 c -22,-26 -21,-30 2,-30 24,0 31,9 22,33 -6,16 -8,16 -24,-3 z"
         id="path766" />
      <path
         d="m 4080,2303 c 0,-29 -52,-103 -72,-103 -10,0 -23,-11 -28,-24 -5,-13 -13,-25 -19,-27 -6,-2 -13,-19 -17,-36 -6,-29 -3,-34 21,-43 15,-6 47,-24 71,-41 70,-51 94,-24 94,109 0,54 -5,84 -16,100 -8,12 -14,34 -12,49 2,15 -3,28 -9,30 -8,3 -13,-4 -13,-14 z m -12,-142 c 2,-15 -4,-28 -17,-38 -12,-8 -21,-25 -21,-39 0,-29 -9,-30 -37,-5 -23,22 -21,71 3,71 7,0 18,9 24,21 15,26 44,21 48,-10 z"
         id="path768" />
      <path
         d="m 2424,2253 c -27,-27 -56,-58 -64,-69 -8,-12 -42,-54 -75,-94 -33,-40 -68,-84 -77,-99 -20,-30 -23,-61 -7,-61 17,0 178,160 185,184 3,12 17,32 29,46 24,26 71,127 63,135 -3,3 -27,-16 -54,-42 z"
         id="path770" />
      <path
         d="m 3038,2256 c -91,-97 -207,-208 -245,-236 -50,-37 -301,-285 -360,-357 -34,-42 -121,-103 -146,-103 -6,0 -25,-7 -41,-15 -22,-12 -50,-14 -110,-11 -54,3 -97,0 -135,-11 -88,-24 -111,-26 -137,-13 -19,11 -29,11 -51,1 -31,-14 -93,-35 -138,-46 -16,-4 -61,-9 -100,-10 -65,-1 -154,-17 -200,-35 -11,-5 -46,-11 -77,-14 -32,-3 -68,-11 -81,-17 -19,-8 -31,-8 -53,4 -20,10 -55,14 -109,12 -50,-1 -90,3 -107,12 -16,7 -40,19 -55,27 -16,7 -48,16 -73,19 -25,3 -72,20 -105,37 -97,51 -146,61 -330,67 -164,5 -171,5 -189,-16 -17,-18 -30,-21 -108,-21 -83,0 -88,-1 -88,-21 0,-22 0,-22 193,-15 105,4 207,12 225,19 24,8 40,8 65,-1 18,-7 39,-12 46,-12 10,0 41,-12 126,-50 11,-5 45,-19 75,-30 30,-12 62,-26 71,-30 9,-5 34,-12 55,-16 22,-3 44,-10 49,-15 18,-13 98,-32 140,-32 59,0 267,23 290,33 11,5 60,11 108,14 49,4 97,11 107,16 10,6 41,10 68,10 27,0 71,7 98,15 27,8 67,15 89,15 22,0 58,5 80,11 22,6 61,14 86,19 26,5 68,16 94,24 35,12 66,15 124,10 59,-5 84,-3 107,9 34,17 124,36 204,43 102,8 143,14 154,23 6,4 38,11 70,14 32,3 64,11 69,16 6,6 23,11 38,11 15,0 32,7 39,15 7,8 20,15 28,15 28,0 155,69 192,103 74,69 200,234 200,261 0,8 5,18 10,21 6,3 10,17 10,30 0,13 5,27 10,30 6,3 10,19 10,34 0,16 12,50 26,75 15,26 24,50 20,53 -7,7 -45,-38 -46,-55 0,-7 -7,-15 -15,-18 -8,-4 -15,-16 -15,-29 0,-13 -7,-25 -15,-29 -8,-3 -15,-15 -15,-26 0,-57 -151,-267 -236,-328 -49,-36 -162,-92 -184,-92 -9,0 -21,-5 -27,-11 -6,-6 -19,-9 -29,-7 -16,4 -14,7 9,16 15,6 27,16 27,22 0,5 6,10 14,10 7,0 19,7 26,15 7,8 21,15 31,15 10,0 21,5 24,11 14,21 -6,22 -49,1 -24,-12 -48,-22 -55,-22 -6,0 -11,-4 -11,-10 0,-5 -9,-10 -19,-10 -11,0 -33,-8 -50,-17 -25,-15 -34,-16 -51,-5 -26,16 -40,15 -40,-3 0,-8 -9,-15 -19,-15 -11,0 -23,-5 -27,-11 -10,-17 -115,-61 -130,-55 -36,14 -34,16 265,306 43,41 116,107 163,147 74,63 198,198 198,217 0,12 -49,6 -62,-8 z"
         id="path772" />
      <path
         d="m 3980,2255 c 0,-8 7,-15 15,-15 8,0 15,7 15,15 0,8 -7,15 -15,15 -8,0 -15,-7 -15,-15 z"
         id="path774" />
      <path
         d="m 2043,2170 c -28,-22 -71,-59 -95,-82 -24,-24 -54,-50 -67,-59 -14,-8 -21,-20 -18,-26 11,-18 60,11 132,79 36,34 74,67 85,75 11,8 25,23 30,34 17,31 -8,23 -67,-21 z"
         id="path776" />
      <path
         d="m 4912,2173 c -26,-5 -40,-29 -24,-45 12,-12 75,18 70,34 -5,14 -16,17 -46,11 z"
         id="path778" />
      <path
         d="m 6185,2170 c -3,-5 3,-10 14,-10 12,0 21,5 21,10 0,6 -6,10 -14,10 -8,0 -18,-4 -21,-10 z"
         id="path780" />
      <path
         d="m 4367,2148 c -28,-21 3,-105 46,-121 9,-3 17,-14 17,-23 0,-12 6,-15 24,-10 34,9 80,-11 105,-44 24,-33 51,-40 51,-12 -1,22 -28,56 -57,71 -13,7 -23,18 -23,25 0,20 -44,56 -68,56 -15,0 -30,12 -43,35 -23,39 -28,41 -52,23 z"
         id="path782" />
      <path
         d="m 5950,2104 c -17,-44 -12,-60 10,-31 21,27 27,57 10,57 -6,0 -15,-12 -20,-26 z"
         id="path784" />
      <path
         d="m 2582,2077 c -12,-13 -22,-29 -22,-36 0,-9 -9,-11 -32,-7 -42,7 -62,-5 -53,-33 5,-17 1,-23 -20,-31 -14,-5 -28,-18 -32,-27 -7,-22 -43,-63 -55,-63 -17,0 -266,-262 -276,-291 -9,-23 20,-5 49,31 18,22 41,43 53,46 12,4 53,38 91,75 121,119 154,149 163,149 14,0 72,68 72,84 0,9 9,20 21,26 35,19 99,82 93,91 -9,15 -30,10 -52,-14 z"
         id="path786" />
      <path
         d="m 2520,2075 c -10,-12 -10,-15 4,-15 9,0 16,7 16,15 0,8 -2,15 -4,15 -2,0 -9,-7 -16,-15 z"
         id="path788" />
      <path
         d="m 5115,2030 c -16,-5 -61,-20 -100,-34 -38,-14 -79,-26 -91,-26 -37,0 -88,-42 -97,-80 -5,-19 -20,-60 -34,-92 -14,-31 -23,-63 -20,-72 9,-23 47,-21 47,3 0,10 7,24 15,31 8,7 15,19 15,26 0,7 10,34 22,59 24,50 38,44 38,-17 0,-27 6,-40 20,-48 20,-11 28,-50 10,-50 -5,0 -10,-4 -10,-10 0,-5 8,-10 18,-10 20,0 142,-36 189,-56 17,-8 35,-14 41,-14 5,0 15,-7 22,-15 8,-9 29,-15 56,-15 36,0 50,6 78,33 40,39 54,93 36,137 -7,17 -9,45 -5,69 6,36 3,45 -21,74 -15,17 -39,37 -54,44 -16,6 -31,20 -34,31 -12,36 -73,50 -141,32 z m 75,-100 c 25,-21 50,-26 50,-10 0,6 4,10 9,10 13,0 22,-165 11,-194 -12,-33 -50,-36 -50,-5 0,11 -3,19 -7,17 -34,-18 -86,-39 -88,-36 -2,2 6,28 16,58 16,42 19,70 15,118 -6,69 3,77 44,42 z m -190,-21 c 0,-12 57,-68 70,-70 6,-1 14,-2 20,-3 5,0 15,-7 22,-14 11,-11 9,-17 -12,-33 -61,-47 -104,-33 -114,37 -9,68 -8,106 4,99 6,-3 10,-11 10,-16 z m 105,-9 c -3,-5 -13,-10 -21,-10 -8,0 -12,5 -9,10 3,6 13,10 21,10 8,0 12,-4 9,-10 z"
         id="path790" />
      <path
         d="m 4350,1970 c 0,-19 3,-21 12,-12 9,9 9,15 0,24 -9,9 -12,7 -12,-12 z"
         id="path792" />
      <path
         d="m 5770,1880 c 0,-13 -83,-50 -111,-50 -10,0 -19,-4 -19,-10 0,-5 -6,-10 -14,-10 -8,0 -26,-14 -39,-32 -14,-17 -40,-36 -58,-42 -19,-6 -35,-18 -37,-27 -3,-14 3,-15 44,-8 26,5 52,13 59,19 7,6 32,14 56,20 24,5 67,16 94,23 44,13 50,18 47,38 -2,13 -3,36 -3,51 0,15 -4,30 -9,33 -6,4 -10,1 -10,-5 z"
         id="path794" />
      <path
         d="m 4584,1859 c -2,-4 13,-9 34,-12 25,-5 41,-2 51,8 12,12 7,13 -34,12 -26,-1 -49,-5 -51,-8 z"
         id="path796" />
      <path
         d="m 5985,1811 c -3,-5 -1,-12 5,-16 12,-7 30,2 30,16 0,12 -27,12 -35,0 z"
         id="path798" />
      <path
         d="m 1737,1683 c -4,-3 -7,-13 -7,-21 0,-12 3,-12 15,-2 8,7 15,16 15,21 0,11 -14,12 -23,2 z"
         id="path800" />
    </g>
  </g>
</svg>
