<?xml version="1.0" encoding="UTF-8" standalone="no"?>
<svg
   version="1.0"
   width="350.00153pt"
   height="278.3952pt"
   viewBox="0 0 350.00152 278.39523"
   preserveAspectRatio="xMidYMid meet"
   id="svg94"
   sodipodi:docname="logo.svg"
   inkscape:version="1.1 (c68e22c387, 2021-05-23)"
   xmlns:inkscape="http://www.inkscape.org/namespaces/inkscape"
   xmlns:sodipodi="http://sodipodi.sourceforge.net/DTD/sodipodi-0.dtd"
   xmlns="http://www.w3.org/2000/svg"
   xmlns:svg="http://www.w3.org/2000/svg">
  <defs
     id="defs98" />
  <sodipodi:namedview
     id="namedview96"
     pagecolor="#ffffff"
     bordercolor="#666666"
     borderopacity="1.0"
     inkscape:pageshadow="2"
     inkscape:pageopacity="0.0"
     inkscape:pagecheckerboard="0"
     inkscape:document-units="pt"
     showgrid="false"
     height="299pt"
     fit-margin-top="0"
     fit-margin-left="25"
     fit-margin-right="25"
     fit-margin-bottom="0"
     lock-margins="false"
     inkscape:zoom="2.0275189"
     inkscape:cx="188.65422"
     inkscape:cy="210.10902"
     inkscape:window-width="1920"
     inkscape:window-height="1000"
     inkscape:window-x="-11"
     inkscape:window-y="35"
     inkscape:window-maximized="1"
     inkscape:current-layer="svg94" />
  <metadata
     id="metadata2">
Created by potrace 1.10, written by Peter Selinger 2001-2011
</metadata>
  <path
     d="m 149.40152,1.2375 c 0.45,1.45 -0.1,1.75 -3.2,1.85 -6.35,0.2 -6.7,0.35 -7,2.6 -0.3,1.85 -3.2,5.55 -3.2,4 0,-0.35 -1.25,0.05 -2.75,0.85 -2.6,1.4 -2.8,1.35 -3.7,-1.05 -0.55,-1.45 -1.7,-2.5 -2.85,-2.5 -1.45,0 -1.75,0.45 -1.2,1.75 0.4,0.95 1.15,3 1.7,4.5 0.55,1.5 1.4,2.75 1.9,2.75 0.5,0 0.9,0.4 0.9,0.95 0,0.5 -0.8,0.9 -1.75,0.85 -0.95,-0.05 -2.4,0.1 -3.2,0.3 -0.8,0.25 -1.6,-0.45 -1.85,-1.55 -0.35,-1.65 -0.2,-1.8 1.05,-0.8 0.8,0.7 1.7,0.95 2.05,0.6 0.8,-0.75 -6.15,-4.35 -8.4,-4.35 -1.9,0 -4.2,2.35 -3.2,3.35 0.35,0.35 -0.1,0.65 -1.05,0.65 -2.1,0 -2.1,2.35 0,5.55 0.9,1.4 1.35,2.75 1.05,3.05 -0.3,0.3 -1.05,-0.35 -1.65,-1.5 -1.15,-2.1 -4.05,-2.9 -4.05,-1.15 0,0.55 -0.65,0.75 -1.5,0.4 -1.8,-0.7 -1.95,0.75 -0.25,2.6 1,1.05 1,1.2 0,0.65 -0.7,-0.4 -1.25,-0.3 -1.25,0.25 0,0.5 0.75,1.2 1.65,1.55 1.5,0.6 1.45,0.8 -0.25,2.1 -1.7,1.25 -1.7,1.45 -0.2,1.45 0.9,0.05 1.95,0.5 2.3,1.05 0.35,0.6 0.1,0.95 -0.6,0.75 -0.65,-0.15 -2.2,1.2 -3.45,2.95 -2.2,3.2 -2.25,3.2 -4,1.25 -1.7,-1.9 -2.8,-1.85 -3.05,0.15 -0.1,0.5 -0.2,1.3 -0.25,1.8 -0.1,0.5 -1.5,2.2 -3.15,3.75 -4.45,4.2 -3.2,11.35 2,11.35 0.9,0 0.6,-0.75 -0.8,-2.05 -2.15,-2 -2.8,-4.05 -1.6,-5.2 0.35,-0.35 1.8,0.5 3.25,1.9 1.45,1.35 3.8,3 5.15,3.6 2.5,1.1 2.5,1.1 0.25,1.5 -1.25,0.2 -2.3,0.8 -2.35,1.3 -0.1,0.55 -0.2,1.4 -0.25,2 -0.1,0.55 -0.75,1.4 -1.55,1.85 -0.75,0.5 -1.05,1.4 -0.65,2 0.35,0.6 0.15,1.1 -0.45,1.1 -0.6,0 -1,-0.95 -0.8,-2.15 0.4,-2.75 -3.05,-4.1 -6.3,-2.5 -2.9,1.45 -3.95,8.8 -1.6,11.5 2.45,2.9 2.65,4.9 0.65,6.7 -2.5,2.25 -2.6,8.25 -0.25,10 1.45,1.05 1.5,1.5 0.4,2.8 -0.7,0.85 -1.05,2.15 -0.75,2.85 0.3,0.75 0.55,0.45 0.65,-0.7 0.15,-2 0.15,-2 1.1,0 0.95,2 0.95,2 0.55,-0.05 -0.25,-1.45 0.2,-2 1.5,-2 2,0 2.45,1.05 0.9,2 -0.55,0.35 -0.7,1.35 -0.35,2.25 0.5,1.3 0.1,1.5 -2.05,1.1 -1.8,-0.35 -2.65,-0.1 -2.65,0.85 0,0.75 -0.45,1.35 -1,1.35 -1.55,0 -1.2,6.7 0.45,8.2 4.1,3.65 4.25,3.7 6.45,2.15 2,-1.4 2.25,-1.25 2.5,1.9 0.15,1.75 4.35,3.8 6.4,3.05 1.55,-0.55 1.55,-0.45 -0.1,1.3 -1.4,1.5 -1.95,1.6 -2.55,0.6 -0.65,-1.05 -1.1,-1 -2.1,0.25 -1.85,2.25 -2.95,1.9 -2.35,-0.7 0.35,-1.8 0.25,-1.95 -0.55,-0.75 -0.6,0.8 -0.8,2.5 -0.5,3.75 0.3,1.25 0.15,2.85 -0.4,3.5 -2.45,3.1 -2.35,6.75 0.25,9.5 1.35,1.5 2.5,2.15 2.5,1.45 0,-0.8 0.5,-1 1.25,-0.55 0.85,0.5 0.8,0.2 -0.1,-0.95 -0.95,-1.15 -1.05,-1.7 -0.25,-1.7 0.65,0 1.45,0.7 1.75,1.6 0.5,1.25 0.8,1.3 1.45,0.25 0.65,-0.95 0.85,-0.7 0.9,0.9 0,1.2 0.8,2.75 1.8,3.35 1.3,0.8 1.65,2.05 1.4,4.45 -0.35,2.95 -0.05,3.45 2.2,4 3.35,0.85 5.7,-0.05 5,-1.9 -0.3,-0.8 -0.05,-1.75 0.55,-2.1 0.6,-0.4 0.8,-1.1 0.5,-1.6 -0.95,-1.6 2.3,-1.05 4,0.65 1.6,1.6 1.2,3.9 -0.5,2.85 -0.85,-0.5 -1.45,1.75 -1,3.95 0.05,0.5 -0.15,1.6 -0.55,2.5 -0.4,0.9 -0.75,1.9 -0.8,2.25 -0.05,0.4 -0.4,1 -0.8,1.4 -0.85,0.85 1,2.8 3.55,3.75 1.05,0.4 1.6,1.35 1.35,2.1 -0.3,0.75 0.2,2.25 1.1,3.3 0.95,1 1.8,2.45 1.95,3.15 0.25,1.2 1.05,6.85 1.2,8.45 0,0.45 0.4,0.6 0.85,0.3 0.45,-0.25 1.4,1.05 2.05,2.9 0.85,2.25 1.7,3.2 2.65,2.85 1,-0.4 1.3,0.05 1,1.55 -0.55,3 -1.4,4.1 -3.05,4.1 -0.8,0 -2.45,1.15 -3.7,2.6 -2.35,2.75 -10.85,6.95 -19.85,9.9 -2.95,0.95 -5.9,2.15 -6.55,2.65 -0.6,0.5 -2.95,0.6 -5.15,0.25 -3.45,-0.55 -4.6,-0.2 -7.65,2.15 -2.2,1.65 -5.7,3.1 -8.75,3.55 -3.35,0.55 -6.05,1.7 -7.75,3.35 -1.55,1.5 -3.9,2.6 -5.6,2.6 -2.4,0.1 -2.6,0.25 -1,0.85 1.2,0.45 1.5,1 0.8,1.45 -0.6,0.35 -1.8,0.4 -2.65,0.05 -1.85,-0.7 -8.7,2.25 -9.9,4.25 -1.05,1.8 -2.7,1.7 -2.7,-0.15 0,-1.3 -0.65,-1.2 -3.95,0.5 -2.2,1.1 -5.8,2 -8,2 -3.85,0 -4.05,0.15 -4.05,3 0,1.85 -0.5,3 -1.35,3 -3.85,0 -6.4,9.85 -3.2,12.35 0.7,0.55 0.65,0.95 -0.2,1.3 -0.9,0.35 -1.25,3.8 -1.25,12.3 v 11.8 l 4.05,2.7 c 5.25,3.45 8.6,1.95 4.8,-2.1 -1.2,-1.3 -1.85,-2.35 -1.35,-2.35 0.45,0 -0.1,-0.8 -1.2,-1.75 -1.1,-0.95 -2.75,-3.35 -3.7,-5.25 -2.4,-5.05 4.95,3.15 14.1,15.6 6.05,8.3 11.1,13.3 6.9,6.9 -1.45,-2.2 -1.45,-2.5 -0.1,-2.5 0.85,0 2.05,1.15 2.7,2.5 4.15,9.2 2.85,-8.55 -1.8,-24.1 -1,-3.25 -1.85,-6.15 -1.9,-6.4 -0.5,-2.5 -1.8,-5 -2.65,-5 -0.5,0 -0.7,0.45 -0.35,1 1.3,2.05 1.45,9.05 0.2,8.45 -0.65,-0.35 -0.4,0.05 0.6,0.9 1,0.8 1.75,1.85 1.65,2.3 -0.3,1.7 2.4,11.35 3.2,11.35 0.45,0 0.75,1.1 0.6,2.5 -0.35,4.45 -1.45,2.7 -3.35,-5.5 -1.25,-5.35 -2.35,-8 -3.3,-8 -0.8,0 -1.15,-0.3 -0.8,-0.65 0.4,-0.35 0.2,-1.25 -0.45,-2 -0.75,-0.95 -0.75,-1.35 -0.05,-1.35 0.7,0 0.9,-1.6 0.6,-4.25 -0.6,-4.85 -1.4,-6.3 -1.4,-2.5 0,1.45 -0.55,2.95 -1.15,3.35 -0.8,0.5 -1,0.2 -0.55,-0.95 0.35,-0.9 0.25,-1.65 -0.2,-1.65 -1.45,0 -4.6,-13.25 -4.2,-17.75 0.15,-1.95 3.1,-1.45 3.15,0.5 0,1.6 0.15,1.6 1.45,-0.1 1.3,-1.75 1.5,-1.75 3,-0.25 2.2,2.2 3.85,2 3.25,-0.3 -0.4,-1.55 -0.1,-1.85 1.55,-1.55 1.15,0.25 2.45,-0.15 2.9,-0.8 0.6,-0.95 0.75,-0.95 0.8,0.1 0,0.75 1,2.15 2.25,3.2 1.25,1.05 1.75,1.9 1.1,1.9 -0.6,0.05 -1.45,0.85 -1.8,1.8 -0.35,1.05 0.55,0.5 2.25,-1.25 1.7,-1.75 2.7,-3.6 2.35,-4.5 -0.5,-1.25 -0.65,-1.2 -0.95,0.25 -0.2,1 -0.75,1.5 -1.3,1.2 -0.5,-0.35 -0.7,-1 -0.35,-1.5 0.3,-0.5 -0.1,-0.7 -0.85,-0.4 -1.1,0.45 -1.3,-0.05 -0.95,-2 0.5,-2.65 3.35,-3.4 6.1,-1.65 1.7,1.05 5.35,0.2 4.55,-1.05 -0.35,-0.6 -1.05,-0.55 -1.8,0.1 -0.9,0.75 -1.25,0.6 -1.25,-0.45 0,-0.85 0.55,-1.5 1.25,-1.5 0.65,0 1.9,-0.25 2.75,-0.6 1.2,-0.45 1.45,0.1 1.15,2.55 -0.25,1.7 0,2.85 0.45,2.55 0.5,-0.3 1.25,0 1.65,0.65 0.45,0.7 0.3,0.9 -0.45,0.45 -0.65,-0.4 -1.15,-0.3 -1.15,0.25 0,0.55 0.45,1.15 1.05,1.35 0.65,0.2 0.45,1.55 -0.6,3.55 -1.65,3.4 -3.85,4.55 -2.75,1.5 0.45,-1.4 0.3,-1.5 -0.65,-0.6 -0.7,0.65 -1.95,0.95 -2.8,0.6 -1.15,-0.45 -1.3,-0.05 -0.75,1.8 0.85,2.6 4.3,5.85 6.3,5.9 0.75,0.05 1,0.55 0.65,1.15 -0.4,0.6 -0.1,1.5 0.65,2 1,0.65 1.05,0.85 0.15,0.9 -1.5,0 -1.65,3.4 -0.2,6.05 2.1,4 5.55,2.45 8.7,-4.05 1.6,-3.3 3.25,-5.7 3.6,-5.3 0.35,0.35 0.65,0.1 0.65,-0.55 0,-1.5 3.25,-1.5 4.8,0.05 0.65,0.65 1.2,2.75 1.2,4.65 v 3.5 l -2.25,-2.05 c -3.15,-2.85 -5.75,-3.6 -5.75,-1.7 0,0.85 -2.05,7.8 -4.6,15.45 -2.5,7.65 -4.25,14.4 -3.85,15.05 0.45,0.7 0.35,0.95 -0.3,0.55 -0.55,-0.35 -1.35,0.4 -1.75,1.6 -1,3.15 -3.25,-6.15 -4.05,-16.75 -1.1,-14.25 -3.25,-22.65 -5.4,-20.65 -1,0.95 -1.4,2.05 -0.9,2.6 1.3,1.45 1,2.75 -0.4,1.9 -0.95,-0.55 -1,-0.4 -0.1,0.7 0.65,0.8 1.4,3.25 1.7,5.45 0.3,2.2 0.85,6.25 1.2,9 0.4,2.75 0.7,8.7 0.7,13.25 l 0.05,8.25 h 3.3 c 1.8,0 3.55,-0.45 3.9,-1 0.55,-0.9 2.6,-0.75 7.75,0.65 2,0.55 2.5,-2.2 0.5,-3 -1,-0.4 -1,-0.5 0,-0.55 0.85,-0.05 1.1,-0.95 0.65,-2.6 -0.35,-1.4 -0.2,-2.5 0.35,-2.5 0.5,0 0.85,1.35 0.75,3 -0.1,2.05 0.3,3 1.25,3 1.15,0 1.4,-1.35 1.1,-6.8 -0.3,-5.4 -0.05,-7.2 1.3,-8.6 0.95,-1 1.55,-2.65 1.35,-3.7 -0.25,-1.1 0.2,-1.9 0.95,-1.9 0.75,0 1.65,-0.55 1.95,-1.25 0.35,-0.7 0.35,0.1 0,1.75 -1.45,7.15 -1.6,13.75 -0.35,12.95 0.8,-0.5 1,-0.35 0.55,0.4 -0.4,0.65 -1.15,0.9 -1.65,0.6 -0.55,-0.3 -0.95,0.3 -0.95,1.35 0,1.1 -0.3,3.35 -0.65,5.1 l -0.6,3.1 h 4.65 4.65 l -3.3,-3.1 c -1.8,-1.7 -2.75,-2.8 -2.1,-2.5 0.65,0.35 1.4,-0.5 1.75,-1.9 0.35,-1.4 1.05,-2.5 1.6,-2.5 0.5,0 0.7,-0.65 0.4,-1.45 -0.35,-0.9 0.75,-2.3 3,-3.75 1.95,-1.25 3.6,-3.1 3.6,-4.05 0,-0.95 0.45,-1.75 1,-1.75 0.55,0 1,-0.5 1,-1.05 0,-0.6 -0.8,-1 -1.75,-0.9 -3.5,0.35 -4.25,-0.1 -4.25,-2.7 0,-2.4 -0.25,-2.55 -3.1,-2 -2.55,0.55 -3,0.35 -2.5,-0.95 0.35,-0.85 0.6,-1.9 0.6,-2.35 0,-0.45 2.2,-1.1 4.85,-1.45 2.95,-0.4 5.6,-1.4 6.65,-2.6 1,-1.1 2.7,-2 3.8,-2 2.45,0 -0.15,3.5 -3.35,4.5 -2.2,0.7 -3.35,3.5 -2,4.85 0.7,0.7 1.95,0.2 3.85,-1.65 3.25,-3.15 4.05,-3.3 5.7,-1.05 0.85,1.15 1.95,1.45 3.85,1 2.5,-0.65 3.85,-3.65 1.65,-3.65 -0.55,0 -1,-0.5 -1,-1.05 0,-0.6 0.55,-0.75 1.25,-0.35 0.9,0.5 0.95,0.4 0.15,-0.5 -1.15,-1.25 -4.4,-0.5 -4.4,1 0,0.5 -0.35,0.9 -0.85,0.9 -0.45,0 -0.8,-0.55 -0.8,-1.25 0,-0.7 -0.35,-2.55 -0.7,-4.1 -0.5,-1.85 -0.35,-2.6 0.3,-2.15 0.9,0.55 1.2,-0.05 1,-2.1 -0.05,-0.3 0.6,-1.1 1.45,-1.75 3.65,-2.7 3.15,-7.3 -0.8,-7.25 -4.1,0.1 -4.3,0.35 -1.85,2.25 1.65,1.3 1.65,1.3 0,0.75 -1.3,-0.45 -1.6,-0.2 -1.2,0.9 0.35,0.8 0.15,1.8 -0.45,2.15 -0.55,0.35 -0.75,1.3 -0.45,2.15 0.4,1 -0.1,1.7 -1.5,2.1 -1.2,0.3 -2.15,0.95 -2.15,1.4 0,0.5 -0.45,0.9 -1,0.9 -1.8,0 -1.05,-1.65 1.2,-2.65 1.85,-0.85 1.95,-1.1 0.5,-1.65 -1.15,-0.45 -2.1,0.2 -3.15,2.1 -0.8,1.5 -1.55,2.25 -1.6,1.7 -0.8,-5.7 -0.75,-9.5 0.15,-9.5 0.55,0 0.75,-0.4 0.45,-0.9 -0.3,-0.5 0.2,-1.2 1.15,-1.55 0.9,-0.35 1.9,-0.15 2.25,0.4 0.35,0.55 1.15,0.15 1.8,-0.95 0.9,-1.4 0.9,-2.1 0.1,-2.6 -0.7,-0.45 -0.9,-0.25 -0.45,0.45 0.4,0.65 0.1,1.15 -0.8,1.15 -0.8,0 -1.8,-0.5 -2.15,-1.1 -1.05,-1.7 1.6,-2.85 4.3,-1.8 3.5,1.35 6.6,-0.6 5.8,-3.65 -0.55,-2.35 3.45,-4.75 5.15,-3.05 0.35,0.3 -0.05,0.6 -0.95,0.6 -1.75,0 -3.1,2.65 -1.8,3.45 1.25,0.8 5,-5.65 4.65,-8 -0.2,-1.05 0.2,-2.3 0.8,-2.7 0.75,-0.5 0.65,-0.7 -0.25,-0.75 -1.15,0 -1.15,-0.3 -0.1,-1.55 1,-1.25 0.95,-1.75 -0.55,-2.85 -2.4,-1.75 -1.3,-6.3 1.9,-7.75 2.6,-1.15 5,-5.4 4,-7 -0.4,-0.65 0.15,-0.65 1.4,0.05 1.55,0.85 2.25,0.8 2.85,-0.15 0.5,-0.8 1.05,0.2 1.5,2.75 1.15,6.25 1,10.7 -0.25,9.95 -0.6,-0.4 -1.5,-0.1 -2,0.65 -0.55,0.9 -0.75,-0.35 -0.5,-3.25 0.15,-2.6 -0.05,-5.3 -0.55,-6 -0.55,-0.9 -0.8,-0.25 -0.85,1.9 0,2.7 -0.4,3.25 -2.25,3.3 -2.1,0.1 -2.1,0.15 -0.3,0.85 1.7,0.65 1.75,0.9 0.4,1.7 -2.35,1.4 -3,6.7 -1.15,9.35 1.5,2.15 1.4,2.4 -1.3,4.65 -1.75,1.45 -2.15,2.15 -1.05,1.75 1.8,-0.65 1.8,16 -0.05,19 -0.35,0.55 -0.75,2.4 -0.95,4.05 -0.45,4.9 -0.65,5.6 -1.5,5.6 -1.35,0 -1,2.65 0.5,3.85 3.3,2.8 0.75,7.3 -3.8,6.6 -3.15,-0.45 -4.5,-0.25 -5.5,0.95 -2.6,3.15 -3.05,1.5 -0.6,-2.15 1.55,-2.25 2.15,-3.9 1.45,-4.1 -2,-0.7 -5.35,3.9 -9.95,13.6 -1.5,3.1 -2.65,4.25 -4.25,4.3 -2,0 -2.05,0.1 -0.45,1.05 2.9,1.65 5.75,1.9 5.75,0.45 0,-0.7 0.7,-1.9 1.55,-2.6 0.85,-0.7 1.3,-1.85 1.05,-2.6 -0.35,-0.9 0.25,-1.35 1.75,-1.35 2.7,0 4.7,1.75 4,3.5 -0.25,0.7 0,1.6 0.6,1.95 2.05,1.3 1.05,2.75 -1.45,2.15 -1.75,-0.45 -2.5,-0.25 -2.5,0.75 0,0.8 -0.65,1.95 -1.5,2.65 -0.8,0.65 -1.3,1.55 -1.05,1.9 0.2,0.35 -0.45,0.65 -1.45,0.65 -1,0 -1.8,-0.4 -1.7,-0.9 0.1,-0.5 -0.45,-1.15 -1.2,-1.4 -0.85,-0.3 -1.1,-0.05 -0.7,0.6 0.4,0.65 0.25,1.15 -0.35,1.15 -0.55,0 -1.05,0.4 -1.05,0.95 0,0.5 4.45,0.95 10,0.95 10,0.05 10,0.05 10,-2.45 0,-3.4 4.75,-3.35 8.8,0.05 4,3.35 10.35,3.05 7,-0.3 -0.85,-0.85 -0.85,-1.2 -0.05,-1.2 0.6,0 1.4,0.9 1.75,2 0.9,2.8 2.5,2.5 2.5,-0.45 0,-3.4 -5.4,-6.45 -6.8,-3.9 -1.1,1.95 -3.35,0.9 -2.55,-1.2 0.3,-0.8 0.1,-2.05 -0.55,-2.8 -0.6,-0.75 -0.75,-1.65 -0.35,-2.05 0.35,-0.4 -0.1,-0.4 -1.1,0 -1.25,0.45 -1.45,1 -0.7,1.75 0.55,0.55 1,1.75 1,2.6 -0.05,1 -0.4,0.75 -0.95,-0.6 -0.55,-1.35 -1.6,-2.1 -2.7,-1.9 -1,0.15 -1.25,0.05 -0.55,-0.15 0.7,-0.25 1,-0.85 0.7,-1.4 -0.3,-0.5 0.25,-0.9 1.2,-0.9 1.6,0 1.55,-0.25 -0.35,-2.15 -2.5,-2.5 -0.65,-8.6 2.25,-7.45 1.7,0.65 1.8,0.15 0.4,-2.45 -0.7,-1.4 -0.7,-1.95 0.05,-1.95 0.65,0 0.85,-0.45 0.5,-1 -0.9,-1.45 -2.75,-1.2 -1.9,0.25 0.4,0.7 0.35,0.9 -0.15,0.45 -0.8,-0.7 -1.45,-2.85 -1.65,-5.2 -0.05,-0.95 0.6,-5.2 1.55,-10 0.25,-1.1 0.75,-4.4 1.15,-7.3 0.45,-3.6 1.3,-5.7 2.6,-6.5 1.05,-0.65 1.9,-2.1 1.95,-3.2 0,-1.95 0.05,-1.95 1.45,-0.1 0.8,1.05 1.25,2.25 0.95,2.65 -0.25,0.4 0.25,2.65 1.05,5 0.85,2.35 1.3,4.45 1.05,4.7 -0.25,0.25 0,1 0.5,1.6 6.25,7.6 9.15,15.75 4.65,12.95 -0.5,-0.3 -0.45,-0.8 0.1,-1.2 0.65,-0.4 0.55,-1.3 -0.4,-2.55 -1.3,-1.8 -1.4,-1.75 -1.05,1.2 0.3,2.4 0,3.1 -1.3,3 -1.2,-0.1 -1.55,-0.8 -1.3,-2.35 0.25,-1.2 0.05,-2.4 -0.45,-2.7 -0.5,-0.35 -0.95,1 -1,2.9 -0.05,2.4 0.45,3.75 1.8,4.45 1.35,0.7 1.9,0.7 1.9,-0.05 0,-0.65 0.5,-0.8 1.1,-0.45 0.6,0.4 1.5,0.1 2,-0.65 1.15,-1.8 3.15,0.75 2.55,3.2 -0.3,1.25 0.15,1.5 1.65,1.1 1.5,-0.35 1.8,-0.15 1.2,0.8 -0.5,0.8 -0.4,1.05 0.2,0.65 0.6,-0.35 1.3,0.6 1.6,2.1 0.3,1.5 2.15,4.5 4.15,6.65 3.9,4.25 4.3,5.1 2,4.2 -0.9,-0.3 -1.3,-0.15 -0.95,0.4 0.35,0.55 1.15,1 1.8,1 0.7,0 1.3,1.8 1.5,4.2 0.35,4.95 1.6,6.8 4.7,6.8 2.65,0 3.85,-2.2 2.15,-3.95 -0.9,-0.95 -0.7,-1.15 0.85,-0.9 1.25,0.2 1.9,-0.15 1.75,-0.95 -0.25,-1.05 0.15,-1.05 2,-0.1 1.95,1.05 2.1,1.05 1,-0.25 -1.05,-1.3 -0.75,-1.5 2,-1.25 1.8,0.15 5.5,0.3 8.25,0.4 7.55,0.25 8.3,0.65 7.9,3.9 l -0.35,2.9 9,0.05 c 9.6,0.05 10.5,-0.25 6.2,-2.05 -2.15,-0.9 -2.4,-1.2 -1,-1.55 0.95,-0.2 1.75,-1.25 1.75,-2.3 0,-1.55 0.5,-1.8 2.85,-1.35 2.05,0.45 3.05,0.15 3.45,-1 0.7,-1.7 -0.8,-2.25 -1.75,-0.65 -0.8,1.25 -3.55,0.2 -3.55,-1.4 0,-0.65 1.1,-2.25 2.5,-3.55 1.7,-1.6 2.15,-2.7 1.5,-3.5 -0.6,-0.75 -0.55,-1.55 0.15,-2.25 1.7,-1.7 0.05,-3.45 -2.15,-2.25 -2.75,1.45 -4.3,1.25 -3.6,-0.55 0.3,-0.9 0.15,-1.3 -0.4,-0.95 -1.4,0.85 -1.25,-1.85 0.2,-3.3 1.6,-1.6 4.1,-1.55 3.25,0.05 -0.35,0.7 0.3,0.1 1.45,-1.25 1.15,-1.4 2.05,-2.8 2.1,-3.15 0.05,-1.5 3.45,-1.75 4.95,-0.35 2.05,1.85 3.7,1.95 4.35,0.25 0.35,-0.85 0.95,-0.65 2.05,0.75 1.25,1.6 1.9,1.8 3.35,0.9 1.3,-0.8 2.45,-0.8 4.1,-0.05 1.8,0.8 2.55,0.7 3.25,-0.4 0.95,-1.55 3.95,-0.4 4.7,1.8 1.35,4 -17.15,6.95 -18.7,3 l -0.9,-2.25 -0.1,2.25 c 0,1.2 -0.95,2.8 -2,3.45 -1.45,0.9 -1.65,1.55 -0.9,2.5 0.8,0.95 0.7,1.3 -0.55,1.3 -0.85,0 -1.6,0.45 -1.6,1 0,0.55 1,0.85 2.25,0.75 1.7,-0.2 2.3,0.35 2.6,2.25 0.2,1.35 1.05,3.3 1.9,4.25 1.9,2.15 0.9,3.55 -1.25,1.75 -1.2,-1 -1.5,-1 -1.5,0.15 0,0.75 -1.15,2.7 -2.6,4.35 l -2.6,3 3.55,0.3 c 1.95,0.2 4.5,-0.2 5.6,-0.8 1.45,-0.75 2.65,-0.75 4,-0.05 2.65,1.45 4.05,1.3 4.05,-0.35 0,-1.15 0.7,-1.25 3.6,-0.45 2.8,0.75 3.85,0.7 4.75,-0.4 0.65,-0.8 2.65,-2 4.45,-2.75 1.8,-0.7 3.05,-1.5 2.8,-1.75 -0.25,-0.25 -2.55,0.35 -5.05,1.3 -4.4,1.65 -4.65,1.65 -5.95,-0.05 -0.8,-1.1 -1.95,-1.6 -2.9,-1.2 -0.9,0.35 -1.9,0.2 -2.25,-0.35 -0.3,-0.5 -1.45,-0.95 -2.5,-0.95 -1.2,0 -2.65,-1.45 -3.95,-4 l -2.05,-4 h 2.65 c 1.6,0 4.3,1.5 7.15,4 2.5,2.2 5.55,4 6.75,4 3.25,0 8.8,-2.1 10.3,-3.95 0.75,-0.85 1.1,-1.05 0.8,-0.4 -0.35,0.65 0,1.35 0.75,1.65 0.75,0.3 1.9,2.55 2.5,5.05 0.8,3.15 1.8,4.7 3.25,5.2 2.7,0.85 4.3,-1.4 2.5,-3.55 -3,-3.55 -7.6,-12.2 -7.6,-14.3 0,-1.25 -0.4,-2.75 -0.9,-3.25 -0.5,-0.5 -1.2,-3.45 -1.6,-6.45 -1.05,-9 -1.15,-9.45 -1.7,-11 -0.75,-1.95 -3.05,-10.1 -3.4,-12 -0.15,-0.85 -0.6,-2.65 -0.95,-4.1 -0.5,-2.15 -0.2,-2.75 1.55,-3.2 1.35,-0.35 1.9,-1 1.5,-1.75 -0.55,-0.85 -1,-0.8 -1.6,0.2 -0.75,1.1 -1.05,1.1 -1.9,-0.15 -1.2,-1.85 -0.7,-3.6 0.95,-3.25 0.65,0.2 0.9,-0.15 0.55,-0.75 -0.35,-0.55 -1.2,-1 -1.95,-1 -2.05,0 -2.65,-2.75 -0.75,-3.5 1.6,-0.6 1.6,-0.7 0,-1.6 -0.95,-0.55 -1.45,-1.6 -1.15,-2.45 0.3,-0.85 0,-1.45 -0.8,-1.45 -1.15,-0.05 -1.15,-0.15 0,-0.9 0.95,-0.6 1.05,-1.05 0.25,-1.55 -1.6,-0.95 -1.35,-2.55 0.4,-2.55 0.85,0 1.5,0.55 1.55,1.25 0.05,1.95 7.9,6.95 9.8,6.25 0.85,-0.35 1.25,-0.3 0.9,0.1 -0.4,0.4 0.1,1.3 1.15,2.05 2.05,1.4 3.5,5.35 1.95,5.35 -0.55,0 -0.65,0.5 -0.25,1.15 0.5,0.85 1,0.75 1.8,-0.35 0.6,-0.8 1.9,-1.45 2.85,-1.45 2.45,0 2.2,0.55 -0.75,1.65 -2.55,0.95 -3.6,5 -1.35,5 0.65,0 0.9,0.3 0.55,0.65 -0.35,0.35 -1.35,0.05 -2.15,-0.65 -0.85,-0.65 -2.35,-1 -3.4,-0.75 -2.15,0.55 -2.55,-1.9 -0.45,-2.7 0.8,-0.3 1.15,-0.1 0.8,0.45 -0.35,0.55 -0.15,1 0.45,1 1.65,0 1.25,-1.8 -0.7,-2.9 -1.65,-1 -1.65,-1.05 0,-1.05 2.2,-0.05 2.25,-1.65 0.15,-2.85 -0.85,-0.5 -1.5,-1.3 -1.4,-1.75 0.1,-0.5 -0.4,-1.1 -1,-1.3 -0.9,-0.3 -0.9,0.15 -0.15,1.55 1.9,3.55 0.95,6.75 -1.9,6.5 -0.3,-0.05 -0.6,1 -0.7,2.25 -0.25,2.6 3.8,4.1 5.7,2.2 0.75,-0.75 1.05,-0.7 1.05,0.05 0,0.6 2.05,1.4 4.5,1.75 4.35,0.65 4.5,0.8 4.65,4.35 0.1,2.75 0.25,3.05 0.6,1.2 0.9,-5 6.4,-7.2 7.7,-3.1 1.35,4.25 3.85,4.9 3.4,0.9 -0.25,-2 -0.1,-3.45 0.35,-3.15 0.45,0.25 0.8,-0.2 0.8,-0.95 0,-1.55 5.65,-6.35 8.05,-6.8 6.05,-1.25 8.5,3.55 3.8,7.4 -3.25,2.65 -0.95,4.35 2.4,1.75 2.9,-2.3 5.15,-2.7 4.5,-0.8 -0.25,0.7 -1.2,1.1 -2.1,0.95 -1.05,-0.2 -1.45,0.2 -1.1,1.15 0.3,0.75 -0.1,2.05 -0.95,2.9 -1,1 -1.15,1.8 -0.45,2.5 0.7,0.7 0.35,1.5 -1.05,2.45 -1.15,0.8 -1.75,1.8 -1.35,2.2 0.35,0.4 -0.05,0.4 -1,0.05 -1.75,-0.65 -2.05,0 -3.25,8.05 -0.65,4.6 -3.6,13.5 -4.45,13.5 -0.3,0 -1.25,-2.45 -2.15,-5.45 -1.45,-4.9 -1.25,-7.85 0.45,-7.65 2.2,0.3 2.7,-0.1 2.2,-1.8 -0.4,-1.2 0.55,-4.1 2.45,-7.6 1.7,-3.1 2.65,-5.4 2.2,-5.1 -0.5,0.3 -1.4,-0.55 -2,-1.9 -0.7,-1.5 -0.75,-2.65 -0.15,-3 1.45,-0.95 1.15,-3.5 -0.45,-3.5 -0.8,0 -1.65,-0.55 -1.95,-1.25 -0.3,-0.8 -0.5,-0.65 -0.55,0.4 -0.05,0.9 -0.75,1.9 -1.55,2.2 -1.55,0.6 -1.7,11.95 -0.2,14.4 0.5,0.8 0.2,1.25 -0.8,1.25 -0.85,0 -1.6,-0.9 -1.65,-2 -0.25,-3.25 -0.3,-3.45 -2.55,-6.25 -2.55,-3.25 -4.85,-3.5 -6.35,-0.75 -0.95,1.8 -0.75,2 2.4,2 3.8,0 4.95,0.95 4,3.4 -0.7,1.9 -3.5,2.2 -3.15,0.35 0.15,-0.7 -0.95,-1.4 -2.5,-1.55 -2,-0.25 -2.75,0.1 -2.75,1.3 0,2.7 -2.35,1.15 -4.2,-2.75 -2.1,-4.35 -5.3,-6.75 -9,-6.75 -1.55,0 -2.8,-0.45 -2.8,-1 0,-0.55 -0.45,-1 -1,-1 -1.75,0 -1.05,3.9 0.9,4.95 2.2,1.15 6.45,7.75 6.65,10.3 0.15,1.4 -0.1,1.55 -1.25,0.6 -1.15,-0.95 -1.15,-1.35 -0.1,-2 0.95,-0.6 0.85,-0.8 -0.45,-0.85 -0.95,0 -1.75,0.65 -1.75,1.5 0,0.8 0.4,1.5 0.85,1.5 2.15,0 6.15,5.3 5.05,6.65 -0.75,0.85 -0.8,1.35 -0.1,1.35 0.55,0 1.2,-0.5 1.4,-1.15 0.3,-0.85 0.9,-0.9 2.35,-0.1 2.4,1.35 3.25,9.5 0.9,8.6 -0.8,-0.3 -1.45,-0.05 -1.45,0.55 0,0.6 0.55,1 1.25,0.85 0.7,-0.15 1.2,0.7 1.15,2 -0.1,2.9 0.95,2.85 2.55,-0.15 1.05,-1.95 1.05,-4.1 0.05,-11.1 -1,-6.95 -1,-8.9 0.05,-9.85 0.95,-0.85 1.1,-0.85 0.6,0.05 -0.4,0.65 0.3,1.85 1.55,2.75 1.25,0.85 1.85,1.55 1.4,1.55 -0.45,0 -0.4,0.55 0.15,1.25 0.55,0.7 1.35,3.7 1.7,6.75 0.4,3 0.9,7.2 1.2,9.35 0.8,6.45 4,12.2 4,7.15 0,-0.85 -0.45,-1.5 -1.05,-1.5 -0.6,0 -0.4,-0.5 0.4,-1.1 1.15,-0.8 1.2,-1.2 0.25,-1.55 -0.7,-0.3 -1.05,-0.9 -0.75,-1.35 0.3,-0.45 0.1,-1.9 -0.35,-3.15 -0.5,-1.3 -0.55,-3.25 -0.15,-4.35 0.8,-2.1 2.6,0.95 3.35,5.6 0.15,1.05 1.25,2.9 2.4,4.15 1.4,1.5 2,3.05 1.65,4.4 -0.35,1.15 -0.15,2.4 0.4,2.75 0.6,0.35 0.8,-0.3 0.45,-1.65 -0.55,-2 -0.4,-2.1 1.05,-0.9 0.95,0.75 1.45,1.8 1.15,2.25 -0.3,0.5 0.15,0.9 1,0.9 0.85,0 1.55,0.65 1.55,1.45 0,0.8 0.8,1.9 1.8,2.45 2.95,1.6 2.2,-2.85 -1.05,-6.4 -3.55,-3.85 -7.1,-11.1 -6.4,-13 1,-2.5 2.6,-1.7 4.4,2.25 0.95,2.05 2,3.95 2.35,4.25 0.3,0.25 0.9,1.75 1.3,3.3 1.3,5.4 2.75,1.75 2,-5.15 -1.2,-11.05 -0.75,-19.25 1.4,-25.3 1.5,-4.3 1.7,-6 0.85,-6.95 -0.95,-1.05 -0.85,-1.05 0.45,-0.1 1.3,1 1.9,0.9 2.9,-0.3 0.65,-0.8 1.65,-1.25 2.1,-0.95 0.5,0.3 0.9,0.1 0.9,-0.5 0,-0.55 0.65,-1.05 1.45,-1.05 0.8,0 -0.7,2 -3.25,4.45 l -4.7,4.4 -0.1,18.85 c -0.05,21.3 0.3,26.3 2,26.3 0.8,0 1.05,-2.2 0.85,-7.25 -0.3,-6 -0.15,-6.9 0.85,-5.25 0.7,1.1 1.7,2.35 2.3,2.75 0.65,0.4 0.7,0.75 0.1,0.75 -0.55,0 -1.05,2 -1.1,4.5 -0.1,2.45 0.25,4.2 0.75,3.9 0.5,-0.3 0.65,-0.9 0.4,-1.35 -0.3,-0.45 0.15,-1.4 0.95,-2.05 1.05,-0.85 1.5,-0.9 1.5,-0.1 0,0.6 -0.35,1.1 -0.85,1.1 -0.45,0 -0.8,0.65 -0.8,1.5 0,2.25 1,1.8 2.3,-0.95 0.85,-1.85 0.85,-2.6 0,-2.95 -0.85,-0.3 -0.85,-0.7 -0.05,-1.25 1.55,-1.2 3.35,-7.9 3.7,-13.85 0.3,-4.35 4.15,-9.4 5.9,-7.7 1.05,1.1 0.95,1.2 -0.6,0.6 -1.35,-0.5 -1.7,-0.4 -1.2,0.45 0.4,0.6 0.3,1.15 -0.2,1.15 -0.5,0 -0.85,2.25 -0.75,5 0.05,2.7 -0.2,4.4 -0.65,3.75 -0.85,-1.35 -0.95,-0.75 -1.15,6.4 -0.1,2.3 -0.65,4.35 -1.2,4.55 -0.6,0.2 -0.9,1.7 -0.65,3.35 0.6,4.05 3.8,3.7 3.5,-0.35 -0.1,-1.5 0.25,-2.5 0.75,-2.15 0.55,0.3 0.95,0 0.95,-0.65 0,-0.7 0.2,-1 0.5,-0.75 0.25,0.25 0.05,1.9 -0.45,3.65 -0.95,3.3 2.1,5.1 3.25,1.95 0.35,-1 0.7,-1 1.8,0 4.8,4.55 14.35,-11.2 14.45,-23.95 0.05,-4.25 -0.25,-7.5 -0.6,-7.25 -0.4,0.25 -1.35,-0.35 -2.1,-1.25 -0.9,-1.15 -0.95,-1.45 -0.1,-0.95 0.8,0.5 1.25,0.2 1.25,-0.8 0,-0.85 0.45,-1.55 1,-1.55 0.55,0 1,-0.5 1,-1.05 0,-0.6 -0.55,-0.75 -1.15,-0.35 -0.85,0.5 -0.95,0.15 -0.5,-1.1 1.75,-4.45 -4.75,-7.8 -8.15,-4.2 l -2.15,2.3 2.05,1.75 c 2,1.75 2.05,1.85 0.25,3.2 -2.3,1.7 -5.55,1.85 -7.15,0.25 -1.95,-1.95 -9.15,6.35 -9.2,10.6 0,0.6 -1.15,3.35 -2.5,6.1 -1.35,2.75 -2.45,5.55 -2.45,6.25 -0.05,1.85 -1.7,1.5 -2.6,-0.5 -1.15,-2.65 -1.35,-4.3 -0.5,-3.75 0.45,0.25 2.5,-2.8 4.55,-6.75 5.4,-10.4 8.8,-15.65 10.2,-15.7 2.4,-0.1 2.3,-2 -0.2,-3.65 -4.2,-2.75 -9.95,0.4 -13.3,7.3 -1.45,2.9 -2.9,5.3 -3.25,5.3 -1.5,0 1.2,-11.6 3.05,-13.15 1.1,-0.9 2,-2.15 2,-2.75 0,-3.2 4.85,-4.35 9.1,-2.15 4.9,2.55 14.8,2.8 11.3,0.3 -5.6,-4.05 -13.05,-8.25 -14.65,-8.25 -3.4,0 -8.55,-2.8 -11.9,-6.45 -3.35,-3.65 -11.85,-8.3 -11.85,-6.5 0,0.6 -0.65,0.6 -1.75,0 -0.95,-0.5 -3.9,-1.2 -6.5,-1.55 -3.65,-0.5 -5.9,-1.6 -9.95,-5.1 -5.3,-4.5 -10.85,-6.75 -15.65,-6.25 -3.4,0.3 -10.35,-3.7 -12.35,-7.15 -0.8,-1.45 -4.05,-4.05 -7.15,-5.85 -5.35,-3 -7.45,-6.15 -4.1,-6.15 0.85,0 1.3,-0.45 0.95,-1 -0.35,-0.55 -0.1,-1 0.5,-1 0.6,0 0.85,-0.45 0.5,-1 -0.35,-0.6 -0.05,-0.95 0.65,-0.75 0.7,0.15 1.45,-0.75 1.65,-2 0.2,-1.45 1.05,-2.25 2.35,-2.25 4.7,0 10.95,-4.95 9.3,-7.4 -0.8,-1.25 -1.1,-2.65 -0.7,-3.1 0.4,-0.45 0.15,-0.5 -0.6,-0.05 -0.8,0.45 -2.1,-0.05 -3.35,-1.4 -2.2,-2.4 -1.9,-4 0.4,-1.7 1.2,1.2 1.7,1.2 3.3,0.05 2.2,-1.65 3.9,-1.85 3,-0.4 -1.2,1.95 -1.55,6 -0.5,6 0.6,0 1.45,-1 1.9,-2.25 0.45,-1.25 1.1,-2.15 1.45,-2 1.9,0.75 3.05,0.15 1.65,-0.85 -1.2,-0.85 -1.05,-0.95 0.85,-0.55 1.8,0.4 2.15,0.15 1.7,-1.05 -0.4,-1 -0.1,-1.35 0.8,-1 1,0.4 1.25,-0.3 1,-2.9 -0.35,-3.05 -0.15,-3.4 2.05,-3.4 2.75,0 4.55,-3.45 2.7,-5.3 -0.6,-0.6 -1.1,-2.05 -1.1,-3.2 0,-1.15 -0.55,-2.65 -1.2,-3.3 -1.35,-1.35 -0.4,-2.7 3.3,-4.55 1.25,-0.65 3.2,-3.05 4.35,-5.35 1.15,-2.45 2.7,-4.15 3.55,-4.05 7.55,0.85 11.35,-7.4 5.6,-12.15 -0.9,-0.75 -1.6,-1.95 -1.6,-2.7 0,-0.8 -0.75,-1.4 -1.6,-1.4 -1.3,0 -1.4,0.3 -0.5,1.4 0.95,1.15 0.6,1.3 -2.1,1.05 -4.5,-0.45 -4.55,-0.5 -2.3,-1.45 1.7,-0.75 1.75,-0.85 0.25,-0.95 -2.25,-0.05 -2.15,-0.95 0.3,-3.95 1.55,-1.85 2.3,-2.15 3.2,-1.25 3.75,3.75 11.15,-1.1 10.55,-6.9 -0.35,-3.7 -2.8,-5.4 -2.8,-1.95 0,2.75 -1.55,5.6 -3.45,6.35 -2.25,0.85 -2.8,-0.95 -0.85,-2.9 1.05,-1.05 1.8,-3.45 1.9,-5.85 0.05,-2.25 0.5,-4.95 0.95,-6 1.05,-2.5 -2.9,-5.9 -5.95,-5.05 -1.15,0.3 -1.65,0.2 -1.05,-0.25 1.85,-1.4 5.5,-9.8 4.45,-10.15 -0.55,-0.15 -1,-0.95 -1,-1.75 0,-0.75 -0.55,-1.4 -1.25,-1.4 -0.95,-0.05 -0.9,-0.25 0.1,-0.9 2.15,-1.35 1,-5.55 -1.7,-5.95 -1.55,-0.2 -2.1,-0.8 -1.75,-1.75 0.3,-0.8 -0.1,-1.75 -0.9,-2.05 -0.85,-0.3 -1.5,-1.2 -1.5,-1.95 0,-0.75 -0.45,-1.4 -1,-1.4 -0.55,0 -1,-2.25 -1,-5 0,-4.8 0.6,-5.6 3.5,-5.05 0.55,0.15 0.7,-0.1 0.3,-0.5 -0.4,-0.35 -0.05,-1.35 0.75,-2.15 3.1,-3.05 -1.1,-11.45 -4.95,-9.95 -2.2,0.8 -1.15,2.65 1.5,2.65 1.1,0 1.8,0.35 1.55,0.8 -0.3,0.45 -0.15,1.4 0.3,2.15 1.05,1.7 -0.8,6.05 -2.6,6.05 -2.2,0 -4.3,-5.2 -3,-7.3 0.95,-1.55 0.7,-2.2 -1.65,-4.1 -2.5,-2 -2.65,-2.55 -1.7,-5.05 0.55,-1.55 0.8,-3.05 0.55,-3.35 -0.3,-0.3 -0.55,0.1 -0.55,0.85 0,1.05 -0.25,1.1 -1.2,0.15 -1.95,-1.95 -3.05,-1.4 -2.4,1.25 0.5,2 0.25,2.4 -1.45,2.25 -1.6,-0.1 -2,-0.65 -1.7,-2.35 0.3,-1.5 0.05,-2 -0.9,-1.65 -1.2,0.45 -1.8,-0.8 -1.45,-2.95 0.05,-0.4 -0.6,-0.75 -1.5,-0.75 -1,0 -1.4,-0.55 -1.05,-1.5 0.3,-0.8 0.25,-1.45 -0.15,-1.35 -1.9,0.25 -3.25,-0.25 -2.75,-1.1 0.3,-0.5 0.15,-1.15 -0.35,-1.5 -0.55,-0.3 -1.15,0.2 -1.4,1.2 -0.45,1.65 -0.45,1.65 -0.6,0 -0.05,-0.95 -0.6,-1.75 -1.15,-1.75 -0.6,0 -0.75,0.5 -0.35,1.15 0.5,0.8 0.25,0.9 -0.65,0.3 -1.2,-0.75 -4,-0.95 -6.7,-0.55 -0.4,0.1 -0.05,0.55 0.75,1.1 1.05,0.7 0.45,0.8 -2,0.35 -1.9,-0.35 -3.8,-1.1 -4.15,-1.65 -0.35,-0.55 -3.3,-1.05 -6.5,-1.15 -3.25,-0.1 -6.5,-0.5 -7.2,-0.95 -2.95,-1.85 -14.3,-0.7 -18.95,1.9 l -4.55,2.55 -2.55,-2.4 c -2.45,-2.25 -11.85,-6 -13.75,-5.5 -0.45,0.15 -1.95,-0.35 -3.35,-1.1 -2.35,-1.3 -2.4,-1.3 -1,0.45 2.15,2.6 -2.85,1.1 -5.15,-1.6 -1.95,-2.25 -3.7,-2.6 -1.85,-0.4 0.8,0.95 0.85,1.5 0.15,1.5 -0.55,0 -1.55,-0.8 -2.2,-1.75 -1.05,-1.65 -1.1,-1.65 -0.55,0 z m 11.85,9.5 c -0.4,1.05 -0.2,1.35 0.55,0.85 0.7,-0.4 1.4,0.3 1.8,1.95 0.45,1.85 0.95,2.3 1.75,1.5 0.55,-0.55 1.45,-1.05 1.95,-1.05 0.5,0 -1.3,2.05 -3.95,4.55 -2.65,2.5 -3.85,4.05 -2.6,3.45 2.5,-1.2 3.05,0.1 0.85,1.95 -1.1,0.9 -1.7,0.7 -2.8,-0.85 -1.75,-2.5 -6.45,-4.45 -7.35,-3 -0.35,0.55 -0.05,1.7 0.65,2.55 1.6,1.9 2.05,4.35 0.8,4.35 -0.5,0 -0.9,-0.55 -0.9,-1.25 -0.05,-0.85 -0.3,-0.8 -0.95,0.2 -0.5,0.8 -0.7,1.8 -0.4,2.25 0.25,0.45 0,0.8 -0.55,0.8 -0.55,0 -1.85,0.9 -2.9,2 -1.85,2 -1.85,2 -3.05,-0.55 -0.65,-1.4 -1.55,-2.3 -2.05,-2 -1.55,0.95 -3.05,-2 -2.9,-5.8 0.05,-2.05 0.5,-3.95 1,-4.25 0.45,-0.3 0.55,-0.95 0.25,-1.45 -0.5,-0.85 1.65,-1.45 3.85,-1.05 0.5,0.1 0.55,-0.3 0.2,-0.85 -0.4,-0.7 -1.9,-0.5 -4.25,0.5 -2.6,1.05 -3.9,1.2 -4.7,0.4 -0.75,-0.75 -0.55,-0.9 0.7,-0.4 1.4,0.55 1.65,0.3 1.1,-1.2 -0.35,-1 -0.3,-1.55 0.1,-1.15 0.45,0.4 1.5,0 2.35,-0.9 1.05,-1.05 1.75,-1.2 2,-0.45 0.2,0.65 0.8,1.15 1.35,1.15 0.55,0 0.7,-0.4 0.4,-0.95 -0.3,-0.5 -0.05,-1.25 0.6,-1.65 0.65,-0.4 0.9,-0.3 0.55,0.25 -1.2,2 1.05,3.8 3.4,2.7 2,-0.9 2.05,-1.05 0.55,-1.65 -1.05,-0.4 -1.5,-0.3 -1.15,0.3 0.35,0.55 0.15,1 -0.45,1 -1.35,0 -1.35,-0.2 0.45,-3.65 1.35,-2.55 1.7,-2.75 1.4,-0.7 -0.2,1.4 2.65,2.15 4.05,1.1 0.85,-0.65 1.2,-0.8 0.8,-0.3 -0.4,0.45 -0.25,1.45 0.4,2.2 0.85,1.05 0.7,1.35 -0.65,1.35 -1.2,0 -1.5,0.5 -1.1,1.65 0.55,1.4 0.4,1.45 -0.95,0.3 -1.45,-1.2 -1.6,-1.05 -1.3,1.05 0.25,1.75 -0.2,2.55 -1.5,2.8 -1.2,0.25 -1.65,0 -1.2,-0.7 0.35,-0.6 0.25,-1.1 -0.3,-1.1 -0.5,0 -1.2,0.75 -1.55,1.6 -0.4,1.05 -1.35,1.45 -2.6,1.1 -1.15,-0.3 -1.75,-0.1 -1.4,0.45 0.85,1.35 7.5,0.1 9.65,-1.9 1.1,-1 2.15,-1.3 2.55,-0.7 1,1.4 3.2,1.65 3.2,0.35 0,-0.65 0.9,-0.9 2,-0.6 1.35,0.35 1.75,0.15 1.25,-0.65 -0.4,-0.65 -0.75,-2.85 -0.75,-4.9 0,-2.05 -0.35,-3.75 -0.75,-3.75 -0.4,0 -1.2,0 -1.7,0 -0.55,0 -0.75,0.65 -0.4,1.5 0.3,0.8 0.1,1.5 -0.45,1.5 -1.45,0 -0.85,-3 0.85,-4.05 1.85,-1.15 5,1.7 4.2,3.8 z m 39.4,0.75 c -0.65,1.35 -1.65,2.5 -2.25,2.5 -0.6,0 -1.95,0.95 -2.95,2.05 -1.9,2.1 -1.9,2.1 1.1,1.45 2.25,-0.5 2.6,-0.4 1.45,0.4 -0.8,0.6 -2.3,1.1 -3.3,1.1 -0.95,0 -2.05,0.7 -2.35,1.6 -0.35,0.9 -0.9,1.15 -1.25,0.55 -0.75,-1.25 -7.3,0 -7.8,1.45 -0.45,1.4 2.8,1.4 4.7,0 1.35,-1 1.35,-0.9 0,0.85 -1.35,1.75 -1.35,1.85 0.3,1.25 1.15,-0.45 2,-0.1 2.4,0.95 0.5,1.3 0.85,1.2 1.9,-0.8 l 1.35,-2.35 v 2.35 c 0.05,1.8 0.35,2.15 1.3,1.35 0.85,-0.7 1.6,-0.6 2.45,0.35 1,1 1,1.4 0,1.8 -0.65,0.25 -0.15,0.55 1.1,0.55 1.3,0.05 3.3,0.6 4.5,1.25 2.2,1.15 2.2,1.15 0.3,-1 -1.7,-1.9 -1.7,-2.15 -0.25,-2.15 0.9,0 1.65,0.55 1.7,1.25 0,0.7 0.7,-0.05 1.55,-1.6 1.8,-3.3 1.3,-4.45 -0.9,-2.2 -1.85,1.85 -4.3,2 -5.3,0.4 -0.45,-0.75 -0.25,-0.9 0.6,-0.35 0.9,0.55 1.05,0.4 0.55,-0.45 -0.5,-0.8 -1.1,-0.9 -1.75,-0.25 -1.1,1.1 -4.8,0.4 -4.8,-0.9 0,-3.05 11.7,-3.7 13.8,-0.7 0.75,1 1.85,1.55 2.4,1.15 0.65,-0.4 0.8,-0.2 0.4,0.5 -0.45,0.7 0.2,1.55 1.6,2.1 1.25,0.5 1.75,0.95 1.05,1 -0.7,0 -1.25,0.85 -1.25,1.8 0,1.05 0.35,1.3 0.75,0.7 0.95,-1.3 5.5,-1.7 4.7,-0.4 -0.3,0.55 0.25,0.95 1.25,0.95 1.4,0.05 1.5,0.25 0.45,0.9 -0.9,0.55 -1,1.05 -0.3,1.5 0.6,0.35 0.8,1.3 0.5,2.15 -0.3,0.8 -0.05,1.45 0.6,1.45 0.65,0 0.85,0.55 0.4,1.25 -0.55,0.95 -0.35,0.95 0.85,-0.05 1.35,-1.1 2.05,-0.9 4.35,1.25 3.05,2.85 4.4,3.1 6.45,1.3 1.15,-1.05 1.25,-1 0.4,0.25 -0.55,0.8 -1,2.05 -0.95,2.75 0.1,2.1 1.95,1.15 3.3,-1.6 0.7,-1.45 1,-1.75 0.7,-0.65 -0.5,1.85 -0.4,1.8 1.55,-0.3 1.6,-1.65 2.5,-2 3.45,-1.25 0.65,0.55 1.55,0.75 1.9,0.35 0.35,-0.35 0.65,0.4 0.65,1.65 0,1.6 -0.45,2.1 -1.45,1.7 -2.2,-0.85 -2.8,0.9 -0.85,2.5 1.45,1.15 1.55,1.15 0.85,-0.05 -0.55,-0.9 -0.4,-1.2 0.4,-0.95 2.05,0.7 1.65,2.35 -0.65,2.65 -1.4,0.2 -2.55,-0.45 -3.3,-1.85 -1.15,-2.05 -1.2,-2.05 -2.95,-0.3 -1.75,1.8 -1.75,1.95 0.15,4.05 1.1,1.15 1.7,2.65 1.35,3.25 -0.8,1.25 0.15,1.25 2.95,0.05 1.7,-0.75 1.75,-0.85 0.25,-0.95 -0.95,0 -1.75,-0.75 -1.75,-1.65 0,-1.25 0.6,-1.45 2.65,-0.95 1.6,0.4 2.95,0.2 3.35,-0.5 0.45,-0.7 0.9,-0.35 1.25,0.95 0.3,1.15 0.2,1.85 -0.25,1.6 -0.5,-0.3 -1,0.5 -1.2,1.75 -0.4,3.1 -7.8,3.2 -9.2,0.15 -1.35,-2.95 -5.6,-4.8 -5.6,-2.4 0,1.05 -0.65,1.75 -1.45,1.6 -2.15,-0.3 -3.2,-1.6 -1.3,-1.6 1.85,0 2.95,-2.4 2.1,-4.6 -0.5,-1.25 -0.8,-1.3 -1.45,-0.25 -0.65,0.95 -0.85,1 -0.9,0.15 0,-0.7 -0.65,-1 -1.4,-0.7 -0.75,0.3 -1.75,0 -2.15,-0.7 -0.5,-0.75 -0.35,-0.95 0.4,-0.5 0.7,0.45 0.95,0.2 0.6,-0.7 -0.65,-1.6 -3.4,-1.85 -5.2,-0.45 -0.65,0.55 -1.85,0.75 -2.6,0.45 -2.6,-1 -4.25,0.95 -2.45,3 1.35,1.5 1.45,2.1 0.35,3.55 -1.3,1.8 -3.15,2.5 -2.1,0.85 0.3,-0.55 -0.6,-1.9 -2.1,-3 -1.45,-1.15 -2,-2.1 -1.3,-2.1 2,0 -0.1,-1.65 -3.05,-2.45 -2.2,-0.55 -2.3,-0.5 -0.9,0.65 1.3,1.05 1.4,1.55 0.35,2.5 -1.6,1.55 -3.95,-0.9 -3.1,-3.2 0.35,-0.8 0.25,-1.5 -0.2,-1.5 -0.45,0 -0.8,-0.65 -0.8,-1.45 0,-1.2 0.45,-1.1 2.55,0.35 2.9,2 7.4,3.4 6.55,2 -0.3,-0.5 0,-0.95 0.75,-0.95 0.7,-0.05 0.2,-0.5 -1.1,-1.05 -1.3,-0.5 -2.6,-0.75 -2.85,-0.5 -0.75,0.75 -5.4,-4.35 -4.85,-5.25 0.3,-0.5 -0.15,-1.7 -1,-2.75 -1.5,-1.85 -1.55,-1.8 -1.05,0.35 0.5,2.35 -1.25,3.2 -6.05,2.95 -2.3,-0.15 -2.15,-1.7 0.2,-1.7 0.75,0 1.7,-0.5 2.1,-1.15 0.4,-0.7 0.25,-0.9 -0.35,-0.5 -0.6,0.35 -1.3,0.1 -1.5,-0.6 -0.35,-0.95 -1.3,-0.75 -3.75,0.65 -3.2,1.85 -3.35,1.85 -4.65,0.05 -0.9,-1.25 -1.35,-1.4 -1.35,-0.45 0,0.9 -0.75,0.65 -2.3,-0.85 -1.3,-1.15 -3.2,-2.1 -4.25,-2.05 -1.1,0 -1.4,0.3 -0.7,0.55 0.7,0.3 1,0.95 0.7,1.45 -0.3,0.5 0.1,0.9 0.85,0.9 0.8,0 1.75,1 2.05,2.2 0.7,2.65 -0.1,3.8 -1.3,1.9 -0.45,-0.75 -1.35,-1.05 -1.95,-0.65 -0.6,0.35 -1.1,0.2 -1.1,-0.4 0,-0.55 -1.3,-1.05 -2.95,-1.05 -1.6,0 -3.2,-0.45 -3.55,-1 -0.35,-0.55 -0.05,-1 0.6,-1 0.7,0 0.95,-0.25 0.65,-0.6 -1.2,-1.2 -2.9,0.7 -1.8,2.05 0.55,0.65 0.7,1.55 0.3,1.95 -0.35,0.4 0.1,0.4 1.05,0.05 1.25,-0.5 1.7,-0.15 1.7,1.25 0,1.2 -0.7,1.85 -2,1.85 -1.1,0 -2,-0.4 -2,-0.9 0,-0.5 -0.6,-0.4 -1.35,0.2 -0.75,0.65 -1.6,0.9 -1.9,0.55 -0.3,-0.3 -0.9,0 -1.3,0.7 -0.5,0.75 -0.35,0.95 0.35,0.5 1.3,-0.8 0.9,4.35 -0.55,6.95 -1.15,2.05 -2.3,2.05 -3.45,0 -0.5,-0.85 -1.3,-1.35 -1.75,-1.05 -0.5,0.25 -0.65,-0.4 -0.35,-1.5 0.3,-1.1 0.95,-1.7 1.45,-1.4 0.5,0.3 0.85,0.2 0.75,-0.3 -0.4,-2.3 0.2,-5.35 1,-4.85 1.05,0.65 3.4,-2.05 3.75,-4.3 0.15,-0.9 0.7,-1.75 1.3,-1.95 0.6,-0.2 0.85,-0.75 0.55,-1.2 -0.25,-0.45 0.2,-1.05 1.05,-1.4 1,-0.35 1.35,-0.15 0.95,0.65 -0.35,0.7 -0.05,0.55 0.7,-0.35 0.75,-0.9 2.7,-1.55 4.55,-1.5 1.8,0.05 3.25,-0.25 3.25,-0.65 0,-0.4 -0.5,-0.75 -1.05,-0.75 -0.6,0 -0.95,-1.4 -0.75,-3.25 0.2,-2.3 -0.1,-3.25 -1.15,-3.25 -0.8,0 -1.8,1.45 -2.25,3.25 -0.5,1.8 -1.45,3.25 -2.2,3.25 -2,0 -7.4,2.95 -5.6,3.05 1.05,0.1 1.1,0.25 0.25,0.6 -0.7,0.3 -1.25,1.6 -1.25,2.85 0,2.8 -1.05,3.7 -2.95,2.55 -0.75,-0.5 -1,-1.35 -0.5,-2.1 0.5,-0.8 0.35,-1 -0.4,-0.55 -0.65,0.4 -1.15,0.25 -1.15,-0.35 0,-0.55 0.5,-1.05 1.05,-1.05 0.6,0 0.8,-0.45 0.45,-1 -0.7,-1.15 -2.55,-1.35 -2.4,-0.25 0.35,2 -0.25,2.6 -1.2,1.25 -0.8,-1.2 -0.9,-1.05 -0.4,0.65 0.75,2.75 -0.6,3.65 -3.65,2.4 -1.3,-0.5 -1.75,-0.95 -1.05,-1 0.7,0 1.75,-1.35 2.3,-3 1,-2.75 3,-3.35 5.7,-1.7 0.4,0.3 1.85,-0.4 3.25,-1.5 1.35,-1.1 1.8,-1.7 0.95,-1.3 -0.8,0.45 -1.15,0.4 -0.7,-0.1 0.4,-0.45 1.75,-1 2.95,-1.15 1.2,-0.2 2.65,-0.85 3.25,-1.45 0.7,-0.8 0.25,-0.95 -1.65,-0.65 -1.95,0.35 -2.55,0.1 -2.15,-0.85 0.3,-0.75 0.9,-1.35 1.4,-1.35 0.5,0 0.95,-0.8 1,-1.75 0.05,-1.05 0.25,-1.25 0.55,-0.5 0.3,0.7 1.05,0.95 1.7,0.55 0.65,-0.35 0.5,0.1 -0.25,1.05 -1.25,1.5 -1.15,1.6 0.5,1 2.8,-1 4.45,-2.45 3.85,-3.45 -0.3,-0.5 0.15,-0.6 1,-0.3 0.85,0.35 1.25,1.1 0.9,1.65 -0.4,0.65 -0.1,0.85 0.8,0.55 1.35,-0.55 1.75,0.7 2.1,5.95 0.15,2 1.35,1.45 2.55,-1.2 0.8,-1.8 0.8,-2.5 -0.05,-2.8 -0.6,-0.2 -0.8,-1.15 -0.45,-2.1 0.55,-1.4 1.05,-1.55 2.7,-0.65 1.6,0.85 2,0.75 2,-0.4 0,-1.3 0.35,-1.3 2.75,-0.05 3.85,2 4.25,1.85 4.25,-1.5 0,-3.3 1.7,-5 2.6,-2.6 0.55,1.35 1.05,1.2 3.15,-0.95 3.15,-3.1 3.35,-3.1 1.9,0 z m 33.6,3.7 c 1.9,2.2 2.25,3.8 0.85,3.8 -1.15,0 -3.6,-3 -2.45,-3 0.45,0 0.2,-0.45 -0.6,-0.95 -0.85,-0.55 -2.1,-0.55 -3.15,0 -1.4,0.75 -1.6,0.55 -1.2,-1.1 0.65,-2.45 3.9,-1.85 6.55,1.25 z m -116.75,2.05 c 0,3.1 -0.4,4.25 -1.5,4.25 -2.15,0 -2.4,-3 -0.45,-5.95 2.1,-3.2 1.95,-3.3 1.95,1.7 z m 93.3,0.3 c -0.65,2.3 -1.3,3.25 -1.55,2.3 -0.25,-1.1 -1.05,-1.5 -2.55,-1.15 -2.15,0.45 -2.15,0.4 -0.3,-1.1 1.05,-0.85 2.25,-1.3 2.7,-1.05 0.4,0.25 1.05,-0.45 1.4,-1.6 1.2,-3.8 1.45,-1.45 0.3,2.6 z m 7.3,-2.35 c 0.8,1.45 0.85,2.3 0.15,2.55 -0.55,0.2 -0.8,1.2 -0.55,2.25 0.45,1.6 0.9,1.75 2.5,0.9 2.55,-1.35 3.55,-0.35 2.05,2.1 -1.15,1.85 -1.05,1.85 2.9,0.45 5.15,-1.85 6.4,-1.85 4.95,-0.1 -0.85,1.05 -0.75,1.7 0.4,2.65 0.95,0.75 1.5,0.85 1.5,0.2 0,-1.85 3.85,-0.9 4.35,1.05 0.65,2.4 -1.4,3.15 -5.95,2.3 -2.85,-0.55 -3.4,-0.4 -2.75,0.65 0.45,0.7 0.85,1.7 0.85,2.2 0,0.5 0.65,1.15 1.4,1.4 0.95,0.3 1.2,-0.05 0.85,-1 -0.3,-0.85 0,-1.45 0.8,-1.45 0.75,0 1.6,0.6 1.9,1.3 0.25,0.75 -0.15,1.35 -1,1.35 -0.8,0 -1.45,0.65 -1.45,1.4 0,0.9 0.7,1.25 2,0.9 1.1,-0.3 2,-1.15 2,-1.9 0,-0.8 0.6,-1.1 1.5,-0.75 2.75,1.05 1.55,3.1 -2.15,3.8 -2.5,0.5 -3.9,0.3 -4.4,-0.55 -0.65,-1 -1.1,-1 -2.4,0.05 -1.35,1.15 -1.5,1.1 -1,-0.2 0.7,-1.8 -2.55,-3.35 -3.6,-1.7 -0.45,0.8 -0.9,0.85 -1.35,0.1 -0.35,-0.55 0.15,-1.5 1.15,-2.05 1.4,-0.8 1.5,-1.25 0.5,-2.25 -0.7,-0.7 -1.25,-1.7 -1.25,-2.3 0,-0.6 0.4,-0.45 0.9,0.3 0.6,1 0.95,0.8 1.4,-0.8 0.4,-1.65 0.15,-2.1 -1.15,-1.8 -0.9,0.2 -2.65,-0.7 -3.85,-1.95 -1.3,-1.35 -2.85,-2.05 -3.75,-1.7 -1.05,0.4 -1.55,0.05 -1.55,-1.1 0,-1.2 0.5,-1.5 1.7,-1.05 1.55,0.6 1.55,0.45 -0.1,-1.3 -1.65,-1.9 -1.65,-2 0.1,-3.05 1.55,-0.9 1.6,-1.2 0.3,-2.05 -0.95,-0.65 -1.05,-1 -0.3,-1.05 0.7,0 1.75,1 2.4,2.2 z m -88.1,5.5 c 0,0.3 -0.65,0.25 -1.5,-0.05 -0.8,-0.35 -1.5,-0.15 -1.5,0.4 0,0.55 0.7,1.3 1.6,1.6 1.65,0.65 0.15,2.3 -2.1,2.3 -0.55,0 -0.3,-0.4 0.5,-0.95 0.9,-0.6 1,-1 0.3,-1 -0.65,0 -1.45,0.4 -1.75,0.9 -0.75,1.2 2.1,3.45 3.4,2.65 0.65,-0.4 1.05,0.5 1.05,2.4 0,1.65 0.45,3.05 0.95,3.05 0.55,0 0.7,0.8 0.4,1.75 -0.5,1.4 -0.3,1.35 0.95,-0.25 1.25,-1.55 1.35,-2.25 0.4,-3 -0.65,-0.55 -1.3,-1.9 -1.45,-3 -0.2,-1.8 -0.1,-1.75 0.9,0.25 0.65,1.25 1.65,2.3 2.25,2.35 0.6,0.05 2.4,0.2 4,0.25 1.65,0.1 3.1,0.8 3.35,1.65 0.35,1.35 0.3,1.35 -0.65,0 -0.9,-1.3 -1.15,-1.3 -2.3,0 -0.7,0.8 -0.9,1.15 -0.4,0.75 0.5,-0.4 2.2,0.65 3.8,2.3 2.25,2.35 2.95,2.65 3.45,1.45 0.3,-0.8 1.2,-1.5 1.95,-1.5 0.75,0 1.4,-0.4 1.4,-0.95 0,-1.65 5.5,0.6 8.55,3.5 1.65,1.5 2.45,2.5 1.8,2.1 -0.65,-0.35 -1.35,-0.15 -1.55,0.5 -0.5,1.45 -3.8,2.05 -3.8,0.7 0,-0.55 -0.4,-0.7 -0.9,-0.4 -1.55,0.95 -7.1,1.35 -6.55,0.5 0.25,-0.45 0.05,-1.1 -0.45,-1.4 -0.55,-0.3 -1.25,-0.15 -1.6,0.45 -0.35,0.55 -1.05,1 -1.6,1 -0.55,0 -0.75,-0.45 -0.4,-1 0.35,-0.55 -0.15,-1 -1.05,-1 -1.1,0 -1.55,0.6 -1.2,1.8 0.3,1.2 -0.1,1.75 -1.4,1.75 -1,0 -1.85,-0.45 -1.85,-1 0,-0.6 -0.45,-0.4 -0.95,0.4 -0.65,1 -0.55,1.75 0.25,2.25 0.8,0.55 0.65,0.75 -0.5,0.8 -2.05,0 -3.6,-2.25 -1.95,-2.8 1.75,-0.55 -0.55,-3.2 -2.7,-3.15 -1.45,0 -1.4,0.2 0.15,1.4 1.05,0.8 1.4,1.6 0.8,2 -0.55,0.3 -2.7,-0.9 -4.8,-2.7 -2.1,-1.8 -3.15,-2.45 -2.35,-1.4 1.25,1.55 1.25,1.9 0,2.7 -1.2,0.75 -1.2,0.9 -0.05,0.95 0.75,0 2,0.8 2.7,1.75 0.8,1.05 1.35,1.25 1.35,0.5 0.05,-0.7 0.55,-1.25 1.1,-1.25 0.6,0 0.75,0.5 0.35,1.15 -0.4,0.7 -0.25,0.9 0.4,0.5 0.55,-0.4 1.35,-0.25 1.7,0.35 0.6,0.95 -0.65,1.4 -3.15,1.1 -0.65,-0.1 -1.55,0.4 -1.95,1.05 -0.45,0.8 -0.25,0.9 0.7,0.35 1.15,-0.65 1.15,-0.55 0.15,0.55 -1.05,1.1 -1.45,1.05 -2.6,-0.5 -1.35,-1.85 -1.4,-1.85 -2.5,0.05 -0.6,1.05 -1.1,1.55 -1.1,1.1 -0.05,-0.45 -0.55,-0.5 -1.15,-0.15 -0.65,0.4 -0.2,1.55 1.25,3.15 1.55,1.6 1.85,2.35 0.85,2.15 -0.8,-0.2 -1.4,0.2 -1.25,0.9 0.15,0.7 0.35,1.8 0.5,2.5 0.15,0.75 -0.7,1.2 -2,1.15 -1.25,-0.1 -2.25,0.3 -2.25,0.85 0,0.5 0.75,0.7 1.6,0.35 1.25,-0.5 1.45,-0.2 0.95,1.15 -1.15,2.85 -1.1,3.5 0.1,3.95 0.65,0.2 1.4,-0.4 1.65,-1.4 0.4,-1.45 0.5,-1.35 0.6,0.4 0.15,2.7 -3.05,4.75 -4.75,3.05 -0.9,-0.9 -1.15,-0.55 -1,1.3 0.05,1.35 0,2.9 -0.15,3.45 -0.45,1.85 0,3.5 0.9,3.25 0.85,-0.25 1.1,0.2 1.1,2.1 0,0.45 -0.65,0.8 -1.45,0.8 -0.8,0 -1.25,-0.35 -0.95,-0.8 0.3,-0.5 0,-0.85 -0.65,-0.85 -0.7,0 -1,-0.95 -0.75,-2.4 0.55,-2.75 -1.1,-2.9 -4,-0.3 -1,0.95 -2.15,1.45 -2.45,1.1 -0.35,-0.35 -0.35,0.35 -0.05,1.55 0.35,1.4 1.1,1.95 2.05,1.6 1,-0.4 1.3,-0.1 0.9,0.9 -0.45,1.15 0.1,1.4 2.4,1.15 3.25,-0.35 6.25,2.7 3.7,3.75 -0.75,0.3 -0.55,0.5 0.45,0.55 1.3,0.1 1.65,0.9 1.5,3.35 -0.35,5.65 -3.85,7.45 -7.2,3.75 -2.1,-2.3 -3.7,-2.65 -2.9,-0.6 0.3,0.75 1.45,1.65 2.6,1.95 1.35,0.35 1.85,1.05 1.45,2.1 -0.65,1.7 0.85,2.15 1.85,0.55 0.35,-0.55 1.4,-1 2.3,-1 1.3,0.05 1.4,0.2 0.35,0.9 -0.7,0.45 -1.3,1.2 -1.3,1.7 0.05,0.5 -1.05,0.75 -2.4,0.6 -2.85,-0.4 -3,0.25 -1,4.1 0.8,1.5 1,2.45 0.4,2.1 -0.65,-0.4 -0.9,-0.1 -0.6,0.7 0.25,0.75 1,1.3 1.6,1.15 0.65,-0.15 1.15,0.25 1.15,0.85 0,0.6 -0.65,0.85 -1.45,0.55 -0.85,-0.3 -1.8,-0.05 -2.15,0.55 -0.45,0.65 -0.25,0.85 0.45,0.4 0.75,-0.45 1.15,0.05 1.15,1.35 0,1.1 0.55,2.05 1.25,2.05 0.85,0.05 0.75,0.35 -0.25,1 -0.8,0.55 -1.05,1 -0.5,1 0.55,0.05 0.25,0.5 -0.7,1.05 -0.95,0.55 -2.05,2.7 -2.4,4.75 -0.4,2 -0.9,3.1 -1.15,2.4 -0.3,-0.8 -0.9,-0.95 -1.6,-0.4 -0.7,0.5 -2.1,0.4 -3.45,-0.35 l -2.35,-1.2 3.1,-1.1 c 3.55,-1.25 4.05,-2.15 0.8,-1.55 -1.8,0.35 -1.7,0.2 0.4,-0.65 3.45,-1.4 4.55,-4.95 1.5,-4.95 -1.6,-0.05 -1.8,-0.25 -0.8,-0.9 1.05,-0.65 1.1,-1.05 0.15,-1.6 -0.95,-0.6 -0.9,-0.95 0.1,-1.55 0.8,-0.5 1.65,-0.35 2.1,0.35 0.55,0.85 0.75,0.7 0.8,-0.45 0,-0.95 -0.45,-1.85 -1.05,-2.05 -0.95,-0.3 -1.7,-3.55 -1.9,-8.05 0,-0.95 -0.7,-1.75 -1.55,-1.75 -1.65,0 -2.05,1.55 -0.6,2.45 0.5,0.3 0.8,1.35 0.65,2.3 -0.15,0.95 0.25,2.15 0.85,2.6 0.7,0.5 0.45,0.65 -0.6,0.3 -1.25,-0.4 -1.55,-0.1 -1.15,1.15 0.35,1.05 -0.25,0.75 -1.55,-0.8 -1.1,-1.4 -2.05,-2.85 -2.1,-3.25 0,-0.45 -0.9,-0.2 -1.95,0.45 -1.1,0.7 -2.3,0.85 -2.75,0.4 -0.45,-0.5 -0.25,-1.05 0.4,-1.3 0.85,-0.3 0.6,-1.35 -0.75,-3.6 -2.4,-4 -2.5,-5.4 -0.2,-3.1 0.95,0.95 1.75,2.25 1.75,2.8 0,0.6 0.9,1.25 2,1.45 1.9,0.35 1.9,0.25 -0.2,-2 -2.15,-2.35 -2.3,-7.6 -0.15,-6.25 0.5,0.3 0.8,-1.05 0.7,-3.1 -0.15,-2 -0.6,-3.85 -1.05,-4.15 -0.45,-0.25 -0.8,-0.9 -0.8,-1.45 0,-0.55 0.4,-0.75 0.9,-0.45 0.5,0.3 1.15,0 1.45,-0.7 0.3,-0.75 0.5,-0.55 0.55,0.5 0.05,0.95 0.65,1.75 1.35,1.75 0.7,0 1.35,1.35 1.45,3.05 0.15,1.7 -0.2,2.75 -0.75,2.45 -1.75,-1.15 -0.95,2.15 1,3.95 1.85,1.65 1.9,1.65 1.4,-0.6 -0.45,-1.95 -0.3,-2.1 0.65,-0.85 0.95,1.25 1.1,1.1 0.65,-0.85 -0.35,-1.7 -0.15,-2.15 0.9,-1.75 0.9,0.3 1.45,-0.1 1.45,-1 0,-0.95 0.5,-1.25 1.25,-0.8 0.7,0.4 0.9,0.35 0.5,-0.1 -0.4,-0.45 -0.3,-1.3 0.2,-1.95 0.65,-0.8 0.15,-1.1 -1.65,-1.1 -1.45,0.05 -2.8,-0.5 -3.05,-1.2 -0.25,-0.85 0.2,-1.05 1.4,-0.65 1.5,0.5 1.55,0.4 0.4,-0.45 -0.9,-0.65 -1.9,-0.7 -2.6,-0.15 -2.8,2.35 -5.45,-4.35 -3,-7.55 1.75,-2.3 2,-1.25 0.45,1.85 -0.7,1.5 -0.25,1.25 1.5,-0.8 1.4,-1.65 2.55,-3.45 2.55,-4 0,-0.55 -0.4,-0.35 -0.95,0.5 -0.8,1.3 -1.1,1.25 -2.25,-0.3 -1.15,-1.6 -2.95,-2.35 -6.15,-2.6 -0.5,-0.05 -0.15,-0.95 0.8,-2 1.1,-1.2 2.85,-1.8 4.75,-1.7 2,0.15 3.3,-0.35 3.95,-1.55 0.5,-1 1.55,-1.55 2.4,-1.2 1.05,0.4 1.55,-0.15 1.6,-1.8 0.1,-1.7 0.25,-1.85 0.6,-0.6 0.25,1 0.85,1.5 1.4,1.2 0.5,-0.3 0.9,0.15 0.9,1.05 0,2.15 1.6,1.1 2.3,-1.5 0.3,-1.1 0.15,-1.8 -0.3,-1.5 -0.4,0.25 -1.35,-0.2 -2.05,-1.05 -1.1,-1.3 -0.95,-1.65 0.9,-2.1 1.35,-0.4 2.15,-1.35 2.15,-2.75 0,-1.2 0.55,-2.8 1.25,-3.55 1,-1.1 0.9,-1.25 -0.55,-0.7 -1.5,0.5 -1.7,0.25 -1.2,-1.35 0.8,-2.45 -2.25,-4.05 -3.6,-1.9 -0.7,1.15 -0.85,1.15 -0.9,0.05 0,-0.95 -0.75,-1.2 -2.5,-0.75 -1.5,0.4 -2.5,0.2 -2.5,-0.45 0,-0.6 -0.4,-0.8 -0.95,-0.5 -0.5,0.35 -0.85,-0.25 -0.8,-1.3 0.2,-2.35 2.7,-1.7 2.85,0.7 0.05,1.1 0.25,1.2 0.55,0.35 0.3,-0.7 -0.05,-2 -0.8,-2.9 -1.15,-1.45 -1.1,-1.6 0.3,-1.05 1,0.35 1.9,0.05 2.25,-0.8 0.3,-0.8 1.05,-1.45 1.65,-1.45 0.6,0 0.75,0.55 0.35,1.25 -0.4,0.7 0.65,0 2.35,-1.6 1.95,-1.8 3.25,-2.4 3.7,-1.7 0.4,0.6 1.05,0.85 1.5,0.55 0.45,-0.25 1.15,0.3 1.5,1.25 0.55,1.35 0.8,1.45 1.5,0.35 0.65,-1.1 1.2,-0.95 2.65,0.75 1.2,1.4 2.5,1.9 4,1.55 1.4,-0.35 2.65,0.05 3.55,1.25 3,4.05 5.85,2.5 3.85,-2.15 -0.75,-1.7 -0.85,-1.75 -0.95,-0.25 -0.05,2.2 -1.4,2.2 -4.65,0.1 -2.2,-1.45 -2.7,-1.5 -3.45,-0.25 -0.5,0.75 -0.95,0.95 -0.95,0.35 0,-0.6 0.45,-1.5 1.05,-2.1 0.75,-0.75 0,-1 -2.5,-0.8 -1.95,0.1 -3.55,-0.15 -3.55,-0.65 0,-0.5 0.6,-0.9 1.35,-0.9 0.7,0 1.3,-0.7 1.3,-1.5 0,-0.85 -0.6,-1.5 -1.3,-1.5 -0.75,0 -1.35,0.5 -1.35,1.05 0,0.6 -0.8,0.95 -1.75,0.8 -0.95,-0.15 -2.25,0 -2.85,0.4 -0.75,0.45 -1,-0.6 -0.85,-3.4 0.35,-4.25 1.45,-6.7 1.45,-3.1 0,2.4 1.75,3.25 4.5,2.2 1.1,-0.45 1.55,-0.85 0.95,-0.9 -0.55,0 -1.1,-1 -1.2,-2.15 -0.05,-1.2 0.15,-1.85 0.45,-1.5 0.35,0.3 1.25,-0.3 2,-1.35 1.15,-1.7 4.3,-1.9 4.3,-0.35 z m 6.25,1.95 c -0.95,0.4 -0.85,0.85 0.25,2 1.95,1.95 1.9,3.25 -0.1,4.05 -1.9,0.7 -3.45,-1.4 -2.65,-3.5 0.35,-0.95 0.15,-1.25 -0.5,-0.85 -0.6,0.4 -1.45,0.15 -1.85,-0.5 -0.4,-0.7 -0.3,-0.9 0.4,-0.5 0.55,0.4 1.35,0.25 1.7,-0.35 0.35,-0.55 1.4,-0.95 2.3,-0.9 1.05,0.05 1.2,0.25 0.45,0.55 z m -24.35,2.1 c -0.3,1.85 0.15,3.35 0.9,2.85 0.45,-0.25 1.45,0 2.25,0.55 1.2,0.85 1.15,0.95 -0.3,0.5 -1,-0.35 -1.75,-0.05 -1.8,0.65 0,1.6 -2.95,-2.3 -2.95,-4 0,-0.7 0.45,-1.3 1,-1.3 0.55,0 0.95,0.35 0.9,0.75 z m 133.95,1.85 c 0.2,1.05 0.85,2.2 1.45,2.55 1.7,1.1 -1.2,3.85 -4.05,3.85 -2.2,0 -2.35,-0.2 -1.1,-1.7 1.15,-1.45 1.15,-1.55 -0.15,-0.85 -1.2,0.7 -1.25,0.6 -0.25,-0.5 0.7,-0.75 1.25,-2.4 1.25,-3.75 0,-2.8 2.3,-2.5 2.85,0.4 z m -63.25,10.3 c -2.4,2.65 -2.1,5.4 0.5,4.55 1.8,-0.55 2,-0.35 1.45,1.45 -0.4,1.25 -0.25,2.1 0.4,2.1 0.55,0 1.1,-0.55 1.15,-1.25 0.05,-0.7 0.45,-0.15 0.9,1.25 0.8,2.5 1.55,-0.75 1.1,-4.65 -0.2,-1.7 1.65,-2.6 2.5,-1.2 0.45,0.7 0.3,0.9 -0.45,0.45 -0.65,-0.4 -1.15,-0.25 -1.15,0.35 0,0.55 0.95,1.05 2.05,1.05 1.6,0 1.95,0.45 1.5,1.9 -0.55,1.65 -0.2,1.9 2.1,1.65 2.55,-0.3 2.65,-0.25 0.85,1.05 -1.05,0.8 -1.5,1.4 -1,1.4 0.5,0 0.4,0.5 -0.25,1.15 -1.15,1.15 0.55,3.85 2.45,3.85 1,0.05 5.55,6.75 6.45,9.5 0.6,1.8 1.3,-0.6 1.05,-3.55 -0.05,-0.3 0.85,-0.6 2,-0.7 1.95,-0.15 2,-0.1 0.15,1.4 -1,0.8 -1.35,1.25 -0.7,0.95 0.6,-0.3 1.85,0.9 2.7,2.65 1.4,2.85 1.6,2.95 1.65,0.95 0,-1.95 0.25,-2.15 2.05,-1.2 1.1,0.6 1.75,1.55 1.4,2.05 -0.3,0.5 0.15,0.95 1,0.95 0.85,0 1.55,-0.4 1.55,-0.9 0,-2.95 6.35,-1.65 6.8,1.4 0.3,2.25 0.5,3 1.6,6.25 0.9,2.8 1.75,2.85 3.45,0.1 1.1,-1.75 1.5,-1.85 2.25,-0.75 0.7,1.1 0.85,1.05 0.9,-0.4 0,-1 0.4,-1.55 0.95,-1.25 0.5,0.3 1.2,0.15 1.5,-0.4 0.35,-0.5 1.2,-0.75 1.95,-0.45 2.2,0.85 2.6,-2.15 0.5,-3.95 -1.75,-1.5 -2.3,-1.35 -2,0.6 0.05,0.4 -0.8,0.75 -1.9,0.75 -1.1,0 -2.9,0.9 -4,2 -1.5,1.5 -2,1.65 -2,0.55 0,-0.8 -0.8,-1.9 -1.75,-2.45 -0.95,-0.6 -1.25,-1.05 -0.6,-1.05 0.6,-0.05 1.1,-0.6 1.1,-1.3 -0.15,-3.55 0.4,-4.75 2.2,-4.75 1.05,0 2.25,-0.5 2.65,-1.15 0.45,-0.75 0.25,-0.9 -0.7,-0.45 -0.75,0.4 -0.55,0.05 0.55,-0.85 2.3,-1.85 4.15,-2 5.15,-0.4 0.4,0.7 0.25,0.9 -0.4,0.5 -0.55,-0.4 -1.35,-0.25 -1.7,0.35 -0.35,0.55 0.05,1 0.9,1 0.8,0 1.95,0.8 2.5,1.75 0.9,1.65 1,1.65 1.7,-0.1 0.4,-1.15 0.15,-2.2 -0.7,-2.75 -0.75,-0.45 -0.95,-0.9 -0.35,-0.9 0.6,0 1.55,0.5 2.2,1.15 0.9,0.9 1.55,0.85 2.7,-0.1 1.25,-1.05 1.85,-1.05 3.25,0.1 1.15,0.9 1.45,0.95 0.95,0.1 -0.5,-0.8 -0.2,-1.25 0.75,-1.25 1,0 1.3,-0.55 0.9,-1.65 -0.45,-1.15 -0.25,-1.45 0.55,-0.95 0.7,0.45 0.95,1.65 0.6,2.75 -0.55,1.8 -0.4,1.9 1.45,0.9 1.15,-0.6 2.1,-1.55 2.1,-2.1 0,-0.5 0.75,-0.95 1.65,-0.95 1.25,0 1,0.6 -1,2.45 -3,2.75 -3.3,4.1 -1.25,4.9 0.9,0.3 1.25,1.35 0.9,2.65 -0.45,1.6 -0.8,1.85 -1.4,0.85 -0.45,-0.7 -0.35,-1.6 0.25,-1.95 0.55,-0.35 0.1,-0.85 -1.05,-1.15 -1.15,-0.3 -1.85,-0.2 -1.6,0.25 0.3,0.5 0.05,1.15 -0.5,1.5 -0.55,0.35 -0.85,0.95 -0.6,1.35 0.25,0.35 -0.25,1.55 -1.05,2.65 -1.5,2 -1.5,2 -1.2,-0.05 0.2,-1.1 -0.7,-3.15 -1.95,-4.5 -2,-2.1 -2.2,-2.15 -1.6,-0.45 0.55,1.65 0.45,1.8 -0.65,0.75 -1.7,-1.55 -3.8,-1.7 -2.25,-0.15 0.7,0.7 0.8,2.15 0.3,3.95 -0.7,2.4 -0.5,2.95 1.15,3.5 2.85,0.9 3.35,-0.1 1.45,-3 -0.9,-1.4 -1.2,-2.55 -0.6,-2.55 0.55,0 1.75,1.5 2.65,3.35 2.2,4.7 5.75,4 5.15,-0.95 -0.35,-3.1 -0.25,-3.2 1.2,-1.6 3.05,3.15 0.55,8.75 -3.4,7.65 -2.05,-0.55 -2.05,-0.5 -0.15,1 1.05,0.85 2.2,1.2 2.5,0.8 0.3,-0.4 1.25,-0.9 2.05,-1.1 0.85,-0.15 1.65,-0.7 1.85,-1.25 0.15,-0.5 0.75,-0.9 1.3,-0.9 0.55,0 0.7,0.45 0.35,1 -0.35,0.55 0.05,0.7 0.95,0.4 0.85,-0.35 1.55,-0.1 1.55,0.5 0,1.05 -1.95,1.55 -4.65,1.2 -0.65,-0.1 -1.5,0.3 -1.85,0.9 -0.35,0.6 -0.3,1 0.2,0.9 2.95,-0.5 3.5,0.25 1.3,1.8 l -2.45,1.7 2.5,0.65 2.45,0.65 -2.75,1.15 c -3.05,1.25 -3.55,2.9 -1.15,3.8 1.25,0.5 1.3,0.8 0.25,1.5 -1,0.65 -0.8,1 0.9,1.45 2.65,0.75 2.9,1.95 0.65,2.8 -1.85,0.7 -3.65,-0.15 -2.9,-1.4 1.2,-1.95 -4.95,0.8 -6.3,2.8 -1.3,1.95 -1.25,2.2 0.2,2.2 0.85,0 1.5,0.5 1.35,1.15 -0.15,0.6 1.2,2 3,3.1 3,1.75 3.2,1.8 2.6,0.2 -0.5,-1.2 -0.3,-1.55 0.5,-1.05 0.7,0.45 1.2,0.05 1.25,-1.1 0.05,-1.1 0.25,-1.3 0.6,-0.5 0.25,0.7 -0.05,2.65 -0.75,4.3 -1.05,2.5 -0.95,3.25 0.45,4.8 1.55,1.7 1.55,1.9 0.1,2.45 -0.9,0.35 -1.35,0.2 -1.05,-0.3 0.35,-0.5 0.15,-1.2 -0.45,-1.55 -0.55,-0.35 -1.05,-0.05 -1.1,0.7 -0.05,0.7 -0.7,-0.5 -1.45,-2.7 -0.7,-2.2 -1.35,-3.35 -1.35,-2.55 -0.1,1.15 -0.35,1.2 -1.3,0.25 -0.65,-0.65 -1.85,-1.2 -2.65,-1.2 -1.1,0 -0.95,0.45 0.5,1.75 1.95,1.8 2.2,3.95 0.9,8.15 -0.7,2.15 -0.55,2.3 1.8,1.75 2.2,-0.55 2.5,-0.35 2.1,1.5 -0.5,2.75 -1.45,3.7 -1.45,1.45 0,-1 -0.55,-1.6 -1.25,-1.35 -2.2,0.75 -1.45,4.2 1,4.55 2.75,0.4 1.25,4.4 -1.55,4.15 -3.35,-0.35 -4.3,0.1 -5.15,2.3 -0.65,1.5 -0.95,1.7 -1,0.6 0,-0.85 0.65,-2.15 1.45,-2.85 3.05,-2.55 0.5,-7.3 -2.85,-5.3 -0.65,0.35 -0.5,-0.1 0.25,-1.05 1.2,-1.45 1.2,-1.6 -0.2,-1.1 -1.8,0.7 -3.2,3.55 -1.55,3.2 0.6,-0.15 1.3,0.3 1.55,1 0.25,0.7 -0.2,1.25 -1.05,1.25 -1.95,0 -2.7,-2.55 -2.5,-8.2 0.15,-4.6 2.65,-9.5 3.55,-7.05 0.5,1.4 5.3,1.75 5.3,0.4 0,-0.45 -1.2,-1.4 -2.7,-2.05 -2.15,-1 -2.4,-1.4 -1.25,-2.15 1.1,-0.7 1.1,-0.9 0.15,-0.95 -0.75,0 -1.05,-0.45 -0.7,-1 1.15,-1.9 -1.05,-1 -2.5,1 -2.2,3.05 -4.3,2.6 -3.55,-0.85 0.35,-1.55 0.15,-4.1 -0.4,-5.75 -1,-2.7 -0.95,-2.75 0.45,-0.95 0.8,1.05 1.5,1.4 1.5,0.75 0,-0.65 1.5,-1.8 3.4,-2.6 1.85,-0.75 3.7,-1.95 4.1,-2.6 0.55,-0.9 0.25,-0.95 -1.15,-0.25 -1,0.55 -2.4,0.8 -3.05,0.55 -0.65,-0.25 -2.15,0.1 -3.35,0.75 -1.5,0.8 -2,0.8 -1.5,0.05 0.35,-0.6 0.1,-1.1 -0.65,-1.1 -1,-0.05 -1,-0.25 0.1,-0.9 0.85,-0.55 1.15,-1.8 0.8,-3.25 -0.5,-2.05 -0.45,-2.15 0.65,-0.7 0.9,1.2 1.7,1.4 2.95,0.7 1.1,-0.65 1.7,-0.6 1.7,0.1 0,0.6 0.45,1.05 1,1.05 0.55,0 1,-0.9 1,-2 0,-1.1 0.45,-2 0.95,-2 0.55,0 0.75,-0.65 0.45,-1.4 -0.3,-0.75 0.05,-1.75 0.7,-2.15 0.95,-0.6 0.75,-1 -0.65,-1.5 -1.8,-0.7 -1.75,-0.8 0.55,-1.8 1.4,-0.55 1.95,-1.05 1.3,-1.1 -0.7,0 -1,-0.75 -0.65,-1.55 0.4,-1.1 0.1,-1.35 -1.05,-0.9 -0.85,0.35 -1.6,0.2 -1.6,-0.35 0,-0.5 -0.6,-0.9 -1.35,-0.9 -0.7,0 -1.3,0.6 -1.3,1.3 0,0.75 0.3,1.35 0.65,1.35 0.85,0 0.6,5.25 -0.35,6.75 -0.35,0.6 -0.1,1.3 0.6,1.6 0.7,0.25 -1.05,0.55 -3.9,0.55 -2.85,0.05 -5.35,-0.3 -5.5,-0.8 -0.2,-0.5 -1.6,-0.7 -3.1,-0.4 -1.6,0.3 -2.45,0.95 -2.05,1.6 0.35,0.6 0.75,2.45 0.85,4.15 0.15,1.65 0.7,7.1 1.3,12.05 2.25,18.5 1.45,31.75 -2.1,36.25 -0.55,0.7 -0.6,1.25 -0.1,1.25 0.45,0 0.4,0.35 -0.2,0.75 -0.6,0.4 -1.85,2.9 -2.85,5.55 -1.35,3.55 -2.2,4.7 -3.35,4.25 -1.25,-0.5 -1.3,-0.35 -0.25,0.95 1.2,1.5 0.4,2.05 -2.3,1.6 -0.5,-0.1 -0.6,0.3 -0.25,0.8 0.3,0.55 0.1,1.25 -0.5,1.65 -0.6,0.35 -0.85,1.3 -0.55,2.1 0.35,0.8 0.15,1.2 -0.4,0.85 -0.55,-0.35 -1,-0.15 -1,0.4 0,0.55 -0.65,0.8 -1.5,0.45 -0.8,-0.3 -1.5,-0.05 -1.5,0.6 0,0.65 -0.45,0.9 -1,0.55 -1.45,-0.9 -1.2,1.6 0.5,4.85 1.5,2.85 1.15,5.2 -0.55,4.1 -0.55,-0.3 -0.95,0.65 -0.95,2.15 0,2.25 1.45,2.8 1.5,0.55 0.1,-3.5 4.6,-3.1 5.9,0.55 0.55,1.7 0.55,1.7 -0.75,0.05 -1.15,-1.5 -1.6,-1.5 -3.25,-0.3 -2.25,1.65 -1.5,2.7 1.95,2.9 1.35,0.1 2.25,0.5 2,0.9 -0.25,0.4 -1.55,0.5 -2.9,0.15 -1.9,-0.45 -2.45,-0.2 -2.45,1.1 0,0.9 -1,2.55 -2.25,3.65 l -2.25,1.95 2.75,-1.65 c 2.55,-1.55 2.75,-1.55 2.75,0 0,0.9 -0.4,1.4 -0.9,1.1 -1.15,-0.7 -3.3,1.9 -2.35,2.95 0.4,0.4 -0.3,0.2 -1.6,-0.45 -1.55,-0.8 -2.15,-0.85 -1.7,-0.15 0.9,1.45 -0.75,1.4 -2.15,0 -0.65,-0.65 -0.9,-1.75 -0.6,-2.5 0.6,-1.6 -0.55,-1.8 -2.55,-0.5 -0.95,0.6 -1.05,1.05 -0.25,1.55 0.65,0.4 0.85,1.2 0.45,1.75 -0.4,0.7 -0.2,0.8 0.65,0.3 0.8,-0.5 1.95,0.05 3.15,1.6 1.05,1.3 1.8,1.9 1.65,1.25 -0.2,-0.65 0.15,-1.3 0.7,-1.5 0.55,-0.2 1.1,0.45 1.3,1.4 0.3,1.4 -0.35,1.75 -3.25,1.75 -3.4,0 -3.55,0.15 -2.9,2.65 0.45,1.85 0.3,2.45 -0.5,1.95 -1.5,-0.95 -5.15,0.2 -5.15,1.6 0,0.55 1,0.75 2.4,0.4 1.5,-0.35 2.85,-0.05 3.6,0.9 1,1.25 0.95,1.5 -0.45,1.5 -1.05,0 -1.4,0.45 -0.95,1.25 0.55,0.95 0.4,1 -0.6,0.1 -1.3,-1.25 -4.05,-0.7 -5.2,1.05 -0.9,1.35 1.1,3.75 2.45,2.95 0.6,-0.4 0.75,-0.2 0.4,0.45 -0.9,1.4 -15.1,0.9 -16.9,-0.6 -1.1,-0.9 -1.25,-0.4 -0.95,2.35 0.25,2.1 0,3.45 -0.7,3.45 -0.6,0 -1.1,-0.4 -1.1,-0.85 0,-0.5 -1.45,-1.35 -3.25,-2 -2.1,-0.75 -2.35,-0.95 -0.75,-0.7 2.4,0.45 2.4,0.4 0.55,-1 -3.05,-2.3 -4.55,-1.8 -4.15,1.3 0.2,1.5 0.15,2.05 -0.15,1.25 -0.65,-2.15 -2.25,-3.7 -2.25,-2.2 0,0.65 -1,1.15 -2.25,1.1 -1.5,-0.05 -1.75,-0.25 -0.75,-0.6 2.55,-0.95 4,-2.5 3.35,-3.5 -0.35,-0.6 -0.95,-0.5 -1.45,0.35 -0.75,1.15 -0.85,1.15 -0.9,0 0,-1.15 -0.3,-1.15 -1.5,-0.15 -2.45,2 -2.9,0.4 -0.6,-1.9 2.1,-2.1 6.8,-3 5.6,-1.1 -0.35,0.55 0.1,1 1,1 0.95,0 1.35,0.45 0.9,1.15 -0.5,0.8 -0.25,0.9 0.7,0.3 0.75,-0.5 2.2,-0.75 3.15,-0.6 2.05,0.3 2.3,-1.85 0.5,-3.8 -1,-1.05 -1,-1.2 0,-0.65 0.85,0.5 1.25,-0.05 1.2,-1.6 0,-2.25 -0.05,-2.25 -1.7,0.45 -2.6,4.2 -4.15,4.25 -3.65,0.05 0.3,-2.45 -0.1,-4.15 -1.2,-5.4 -1.35,-1.55 -1.4,-1.95 -0.3,-2.4 0.9,-0.3 1.4,-2.1 1.45,-4.75 0.05,-3.65 0.35,-4.2 2,-3.9 1.55,0.25 1.7,0.05 0.7,-0.95 -0.7,-0.7 -1.2,-2 -1.2,-2.85 0.05,-0.95 0.45,-0.7 1,0.7 0.5,1.25 1.35,2.25 1.9,2.25 0.55,0 0.7,0.7 0.4,1.55 -0.35,0.85 -1.25,1.35 -2,1.05 -1.6,-0.65 -1.75,1.3 -0.25,3.4 0.9,1.25 1,1.2 0.5,-0.35 -0.6,-1.9 5.5,-1.95 7.2,-0.1 0.4,0.45 -0.05,0.5 -1,0.15 -0.95,-0.35 -2,-0.2 -2.3,0.25 -0.8,1.35 1.35,2.35 3.3,1.5 0.95,-0.4 2.55,-0.65 3.55,-0.5 1.3,0.15 1.65,-0.2 1.1,-1.1 -0.45,-0.8 -0.4,-1 0.15,-0.5 1.2,1.1 1.2,3 -0.05,3.9 -1.65,1.15 -2.35,0.9 -2.9,-1 -0.4,-1.4 -0.5,-1.35 -0.35,0.25 0.1,1.1 -0.2,2.55 -0.65,3.25 -0.5,0.85 -0.25,1.05 0.8,0.65 1.7,-0.65 1.85,-0.35 1,1.9 -0.35,0.9 -1.35,1.25 -2.5,1 -1.05,-0.3 -1.7,-0.95 -1.4,-1.4 0.3,-0.5 0.05,-0.9 -0.6,-0.9 -0.65,0 -0.95,0.6 -0.65,1.4 0.3,0.75 0.05,1.85 -0.6,2.5 -0.8,0.8 -0.75,1.45 0.15,2.35 1,1 1.15,0.95 0.65,-0.35 -0.35,-1 -0.05,-1.55 0.95,-1.55 2.1,0 3,3.4 1.45,5.45 -1.1,1.45 -1.1,1.5 0.1,0.45 1.75,-1.55 3.35,-1.65 2.4,-0.1 -0.4,0.7 -0.25,0.9 0.4,0.5 0.55,-0.4 1.35,-0.25 1.65,0.25 0.3,0.55 1.35,0.95 2.3,0.95 0.95,0 2.85,0.3 4.2,0.75 2.5,0.75 2.5,0.75 -0.35,-2.05 -2.25,-2.3 -3,-2.55 -3.7,-1.45 -0.5,0.8 -0.9,0.9 -0.9,0.25 0,-0.6 0.7,-1.7 1.55,-2.4 1,-0.85 1.2,-1.6 0.55,-2.25 -1.25,-1.25 -4.35,1.05 -3.45,2.55 0.35,0.55 0,0.8 -0.75,0.55 -0.75,-0.25 -1.35,-1.2 -1.25,-2.15 0.25,-4 0.35,-4.15 1.35,-2.65 0.65,1 0.75,0.25 0.3,-2.35 -0.6,-3.8 -0.55,-3.85 1.65,-2.65 1.9,1 2.15,0.95 1.45,-0.15 -0.45,-0.75 -0.7,-2.55 -0.55,-4 0.25,-2.35 0,-2.6 -2.75,-2.35 -1.7,0.15 -2.9,-0.05 -2.65,-0.4 0.25,-0.4 0,-1.35 -0.5,-2.15 -0.75,-1.2 -0.9,-1.15 -0.95,0.35 0,1 -0.45,1.55 -1,1.2 -0.6,-0.35 -0.75,-1.05 -0.45,-1.55 0.3,-0.55 0.1,-0.95 -0.55,-0.95 -0.75,0 -0.7,-0.7 0.15,-2.25 1,-1.95 1,-2.1 -0.3,-1 -1.2,1 -1.5,0.95 -1.5,-0.15 0,-0.95 0.8,-1.25 2.3,-1 2.9,0.55 3.05,-0.65 0.35,-2.6 -1.1,-0.8 -2,-2.55 -2,-3.95 0.05,-2 0.25,-2.25 1,-1.05 0.55,0.8 1,1.05 1,0.5 0,-0.55 0.4,-0.45 0.8,0.25 0.6,0.95 1.3,0.9 2.95,-0.3 2.35,-1.65 2,-4.95 -0.45,-4 -0.75,0.3 -1.15,0.1 -0.85,-0.4 0.35,-0.5 0.1,-1.2 -0.45,-1.55 -0.55,-0.35 -1.3,0.15 -1.7,1.1 -0.6,1.6 -0.7,1.6 -1.4,-0.15 -0.65,-1.7 -0.75,-1.65 -0.85,0.55 -0.05,1.35 -0.4,2.05 -0.8,1.5 -0.4,-0.55 -1.2,-1.05 -1.75,-1.1 -2.8,-0.3 -5.5,-1.8 -5.5,-3 0,-1.7 1.2,-1.8 2.8,-0.2 0.95,0.95 1.2,0.9 1.2,-0.2 0,-0.95 0.5,-0.75 1.45,0.55 1.4,1.85 1.5,1.85 1.5,0.1 0.05,-1.25 0.55,-1.65 1.6,-1.25 0.9,0.3 1.3,0.15 0.95,-0.4 -0.35,-0.55 -0.15,-1 0.45,-1 0.55,0 1.05,0.5 1.05,1.05 0,0.6 0.45,0.8 1,0.45 0.55,-0.35 1,-0.15 1,0.35 0,0.55 0.9,1.3 2,1.65 2.25,0.7 2.8,5.05 0.75,5.8 -1,0.35 -1,0.7 0,1.8 1.05,1.05 1.25,1.05 1.25,-0.15 0.05,-1.2 0.15,-1.25 0.9,-0.05 0.5,0.75 1.95,1.45 3.25,1.6 1.3,0.15 2.9,0.3 3.55,0.35 0.65,0.1 1,1.05 0.8,2.15 -0.45,2.45 1.05,2.65 1.95,0.3 0.4,-1.1 0,-2.25 -1.15,-3.15 -1.2,-0.95 -1.3,-1.25 -0.3,-0.9 6.45,2.1 6.7,2.05 3.5,-0.65 -1.65,-1.4 -3.35,-2.55 -3.75,-2.55 -0.4,-0.05 -0.75,-0.55 -0.75,-1.15 0,-0.8 0.45,-0.75 1.5,0.1 2.1,1.75 2.05,-1.75 -0.05,-4.8 -0.95,-1.35 -1.15,-2.2 -0.45,-2.2 0.6,0 0.9,-0.4 0.6,-0.85 -0.3,-0.5 0.7,-0.7 2.2,-0.45 2.55,0.35 2.5,0.3 -0.55,-1.1 -1.8,-0.85 -3.25,-1.8 -3.25,-2.1 0,-0.35 0.45,-0.35 1,0 0.55,0.35 1,0.2 1,-0.35 0,-0.5 -0.7,-1.2 -1.55,-1.55 -0.85,-0.3 -1.3,-0.2 -1.05,0.25 0.3,0.5 -0.15,1.7 -1,2.75 -0.85,1.05 -1.3,1.35 -0.95,0.75 0.35,-0.75 -0.6,-1.45 -2.45,-1.85 -3.05,-0.65 -3.35,-1.2 -3.05,-5.25 0.25,-2.9 -1.3,-2.85 -5.25,0.15 -5.75,4.25 -7.25,4.2 -13.85,-0.4 -5.85,-4.15 -8.5,-4.75 -5.75,-1.35 0.95,1.15 1,1.5 0.15,1 -1.6,-0.95 -1.65,0.55 -0.05,2.15 1.15,1.15 0.05,1.75 -2.5,1.3 -0.5,-0.1 -0.6,0.2 -0.35,0.7 0.3,0.45 -0.4,1.35 -1.5,2.05 -1.85,1.15 -1.95,1.1 -1.35,-1.05 0.7,-2.2 0.6,-2.2 -1.05,-0.6 -1.65,1.55 -1.9,1.6 -2.95,0.1 -1.05,-1.4 -1.2,-1.3 -1.1,0.8 0.05,1.3 -0.35,2.4 -0.9,2.45 -2.55,0.3 -4.55,1.85 -4.05,3.15 0.3,0.75 0.2,1.2 -0.25,0.95 -0.4,-0.25 -1.25,0.6 -1.85,1.95 -1.35,2.85 -0.75,3.05 2.05,0.65 1.55,-1.3 1.75,-1.35 0.85,-0.15 -0.7,0.85 -1,1.85 -0.65,2.15 0.3,0.3 0.05,1.55 -0.6,2.8 -0.8,1.45 -0.85,1.95 -0.1,1.5 0.6,-0.35 1.1,-0.25 1.1,0.25 0,0.55 0.95,1.2 2.15,1.5 1.55,0.45 1.95,1.15 1.6,2.65 -0.3,1.15 -0.2,1.8 0.25,1.55 0.5,-0.3 1.2,0 1.6,0.65 0.8,1.3 -2.15,3.85 -3.95,3.45 -0.65,-0.15 -0.85,-0.1 -0.5,0.1 0.4,0.25 0.5,1.5 0.25,2.85 -0.35,2 -0.05,2.45 1.85,2.4 2.15,-0.1 2.15,-0.15 0.25,-0.95 -1.1,-0.45 -1.4,-0.9 -0.7,-0.95 0.75,0 1.05,-0.45 0.75,-1 -0.3,-0.5 -0.15,-1.2 0.45,-1.55 0.55,-0.35 1,0.05 1,0.85 0,0.8 0.7,1.7 1.5,2 1.3,0.5 1.25,0.2 -0.1,-1.9 -1,-1.5 -1.2,-2.45 -0.5,-2.45 0.7,0 0.95,-1.35 0.65,-3.6 -0.2,-2 -0.15,-3.35 0.15,-3 0.75,0.75 3.3,-1.3 3.3,-2.65 0,-0.65 -0.45,-0.65 -1.25,0.05 -0.85,0.7 -1.65,0.6 -2.5,-0.35 -0.75,-0.85 -0.85,-1.55 -0.25,-1.95 0.55,-0.35 1,-0.25 1,0.2 0,0.45 2,0.85 4.45,0.9 2.45,0.05 4.25,-0.25 4,-0.7 -0.25,-0.4 0,-1.05 0.55,-1.4 0.6,-0.35 0.95,-0.05 0.75,0.65 -0.15,0.7 0.75,1.45 2,1.65 1.25,0.2 2.25,-0.1 2.25,-0.6 0,-0.55 1.55,-1.15 3.45,-1.4 1.85,-0.2 3.2,-0.05 3,0.3 -0.25,0.4 0.15,0.95 0.9,1.2 0.75,0.3 1.6,1.7 1.9,3.15 0.3,1.7 0.1,2.5 -0.65,2.2 -0.6,-0.2 -1,-0.8 -0.9,-1.35 0.2,-1.1 -5.65,-1.1 -7.35,0 -0.65,0.4 -1.8,0.45 -2.55,0.15 -2.15,-0.8 -5.95,3.75 -4.65,5.55 0.85,1.25 0.95,1.2 0.5,-0.25 -0.35,-0.95 -0.4,-1.75 -0.2,-1.75 0.2,0 1.2,-0.3 2.2,-0.65 1.5,-0.55 1.6,-0.4 0.6,0.7 -0.7,0.75 -1.25,2.4 -1.25,3.65 0,1.3 -0.55,2.2 -1.25,2.05 -0.7,-0.15 -1.15,0.5 -1,1.4 0.25,1.3 -0.5,1.65 -3.15,1.55 -4.15,-0.1 -6.85,1.85 -6.05,4.45 0.45,1.35 0.2,1.7 -1,1.25 -0.85,-0.35 -1.55,-0.1 -1.55,0.55 0,0.65 0.45,0.9 1,0.55 0.55,-0.35 1,-0.4 1,-0.15 0,0.25 0.3,1.3 0.7,2.3 0.65,1.75 0.6,1.75 -1.1,0.1 -2.15,-2.15 -4,-2.3 -3.2,-0.2 0.3,0.85 0.15,1.3 -0.35,1 -0.5,-0.3 -1.15,0.2 -1.4,1.2 -0.3,0.95 -0.25,0 0.05,-2.15 0.4,-2.8 0.25,-3.7 -0.55,-3.2 -0.7,0.45 -1.85,-0.5 -2.9,-2.35 -0.95,-1.65 -2.55,-3.05 -3.5,-3.05 -2,0 -2.35,-1.5 -0.6,-2.6 0.7,-0.45 0.9,-0.25 0.45,0.45 -0.45,0.7 -0.05,1.1 1.1,1 3.8,-0.35 5.85,0.15 4.45,1.05 -1,0.6 -0.7,0.95 1.05,1.3 3.4,0.65 2.75,-5.45 -0.75,-7.05 -1.9,-0.85 -2.25,-0.8 -1.85,0.3 0.3,0.75 0.05,1.65 -0.55,2 -0.6,0.4 -1.05,-0.2 -1.05,-1.45 0,-1.15 -0.4,-1.85 -0.9,-1.55 -0.95,0.55 -4.1,-3.6 -4.1,-5.45 0,-0.55 1.15,-1.55 2.5,-2.2 2.65,-1.2 3.3,-3.3 1.25,-4.15 -0.9,-0.35 -0.95,-0.75 -0.15,-1.3 0.6,-0.5 1,-1.85 0.9,-3.1 -0.2,-2.8 -1.5,-4.25 -1.5,-1.75 0,1 -0.35,1.5 -0.75,1.1 -0.4,-0.4 -0.75,-1.5 -0.75,-2.4 0,-1.05 -0.85,-1.75 -2.1,-1.8 -3.2,-0.15 -4.4,-1.25 -4.4,-3.95 0,-1.35 -0.4,-2.45 -0.85,-2.45 -7.5,0 -10.1,-58.4 -2.7,-59.85 2.55,-0.5 4.85,-2.85 4.05,-4.15 -0.35,-0.6 0.9,-1.7 2.8,-2.5 2.4,-1 3.95,-2.55 5.05,-5.2 0.85,-2.1 1.55,-3.2 1.6,-2.5 0.05,0.75 0.5,1.05 1,0.75 1.8,-1.1 -0.1,-3.5 -4.55,-5.7 -2.4,-1.2 -4.4,-2.3 -4.4,-2.45 0,-0.15 0.45,-1.4 1,-2.85 0.75,-2 0.65,-2.55 -0.5,-2.55 -0.85,0 -1.45,0.35 -1.4,0.75 0.65,3.9 -2.15,4.4 -4.1,0.75 -1.05,-1.95 -1.1,-2.8 -0.2,-3.7 1.45,-1.45 1.6,-3.15 0.2,-2.3 -0.55,0.35 -1,0.2 -1,-0.35 0,-1.75 5.5,-2.3 8.35,-0.8 l 2.75,1.4 -2.6,0.65 c -2.8,0.7 -2.5,2.6 0.45,2.6 1,0 2.35,0.65 3.05,1.5 1.5,1.8 4.35,2 3.7,0.25 -0.25,-0.7 -1,-1.15 -1.65,-1 -0.65,0.2 -0.9,-0.2 -0.55,-0.75 0.35,-0.6 1.5,-0.8 2.5,-0.5 1.2,0.4 2.75,-0.35 4.5,-2.2 2.25,-2.35 2.6,-2.5 2.3,-0.85 -0.15,1.1 -1.35,2.5 -2.6,3.15 -3.1,1.55 -3.75,2.3 -1.55,1.9 1,-0.2 2.4,-0.4 3.05,-0.4 0.65,-0.05 1.45,-1 1.8,-2.1 0.35,-1.1 1.05,-1.75 1.55,-1.45 0.55,0.3 0.95,-0.15 0.95,-1.05 0,-0.9 -0.4,-1.35 -0.9,-1.05 -0.5,0.3 -0.7,-0.3 -0.4,-1.35 0.3,-1.1 -0.35,-2.75 -1.5,-3.9 -1.15,-1.15 -1.8,-2.25 -1.5,-2.55 0.25,-0.3 -0.4,-0.3 -1.45,0 -1.55,0.4 -2.25,-0.2 -3.1,-2.65 -1,-2.85 -0.95,-3.15 0.6,-2.55 0.95,0.4 2.2,0.8 2.75,0.85 0.55,0.1 1.25,0.55 1.6,1 0.3,0.45 1.55,0.85 2.75,0.95 1.2,0.1 2.15,0.6 2.15,1.1 0,0.5 0.9,0.65 1.95,0.35 2.05,-0.5 4.55,1.45 3.35,2.65 -0.35,0.35 0.35,1.6 1.6,2.75 2.05,1.95 4.1,5.85 4.1,7.85 0,0.5 -1,0.6 -2.25,0.3 -1.9,-0.5 -2.05,-0.35 -1,0.9 0.65,0.85 0.9,1.85 0.5,2.3 -0.4,0.4 -0.3,0.65 0.25,0.5 0.55,-0.1 1.25,-0.1 1.5,0 3,1.2 3.5,0.6 3.5,-4 0,-3.3 -0.35,-4.5 -1.1,-3.9 -0.7,0.6 -1.05,0.4 -1.05,-0.55 0,-1.4 0.4,-1.65 3.45,-1.9 0.7,-0.05 1.7,-0.8 2.25,-1.6 0.8,-1.3 0.9,-1.3 0.95,0.05 0,0.85 -0.55,2.15 -1.25,2.85 -1.05,1.1 -0.85,1.15 1,0.2 1.2,-0.65 2.5,-2.4 2.8,-3.9 0.3,-1.5 0.75,-3.5 0.9,-4.45 0.2,-1 -0.15,-3.1 -0.75,-4.7 -1.45,-3.8 1.5,-7.9 4.15,-5.8 1.25,1.05 1.4,1 0.65,-0.25 -0.75,-1.3 -0.65,-1.3 0.75,-0.15 1.95,1.55 3.7,0.75 3.85,-1.65 0.05,-1.15 0.25,-1.25 0.6,-0.4 0.25,0.75 -0.2,2.1 -1.1,3.1 z m 12.8,1.65 c 0.3,0.85 1,1.35 1.45,1.05 0.5,-0.3 1.7,0.35 2.65,1.4 1,1.1 1.4,2.05 0.9,2.1 -5.5,0.7 -6.4,0.65 -5.8,-0.25 0.35,-0.55 -0.4,-2.1 -1.65,-3.4 -2.25,-2.4 -2.25,-2.45 -0.25,-2.45 1.15,0 2.35,0.7 2.7,1.55 z m -53.15,7.35 c 0.6,2.2 -2.6,8.1 -4.35,8.1 -0.8,0 -0.8,-0.45 0.1,-1.5 0.7,-0.85 0.85,-1.5 0.35,-1.55 -0.45,0 0.2,-0.9 1.5,-2 1.3,-1.05 1.95,-1.95 1.45,-1.95 -0.55,0 -0.95,-0.7 -0.95,-1.5 0,-2.15 1.3,-1.85 1.9,0.4 z m 26.4,2.6 c -0.05,2.45 -0.3,4.05 -0.5,3.5 -0.15,-0.55 -0.95,-1 -1.8,-1 -2.15,0 -0.25,-5.7 2.3,-6.9 0.1,-0.05 0.1,1.9 0,4.4 z m -30.65,0.05 c 0,0.25 -0.35,0.35 -0.75,0.2 -0.45,-0.15 -1.9,0.75 -3.2,2 -2.65,2.5 -3.65,2.75 -4.55,1.25 -0.95,-1.55 1.35,-5 3,-4.35 0.85,0.3 1.5,0.05 1.5,-0.6 0,-0.8 0.55,-0.85 2,-0.05 1.1,0.6 2,1.3 2,1.55 z m 81.2,0.45 c -0.2,0.85 0.55,1.1 2.35,0.75 3.3,-0.65 5.25,3 2.7,5 -0.9,0.65 -1.3,1.55 -0.9,1.9 0.35,0.4 1.8,-0.35 3.15,-1.65 1.95,-1.85 2.8,-2.1 3.7,-1.2 0.95,0.95 0.85,1.2 -0.25,1.2 -0.8,0 -3,1.35 -4.95,3 -4.1,3.5 -8.15,3.85 -11,1 -1.1,-1.1 -2.75,-2 -3.65,-2 -1.5,0 -1.5,-0.2 0.15,-2 0.95,-1.05 2.25,-1.65 2.9,-1.3 0.6,0.35 0.75,0.25 0.35,-0.2 -0.4,-0.45 0.15,-1.45 1.25,-2.2 1.1,-0.8 2,-2.1 2,-2.95 0,-0.85 0.55,-1.3 1.25,-1.05 0.7,0.25 1.1,1 0.95,1.7 z m -106.3,1.1 c 3.1,2.9 1.35,4.8 -2.6,2.9 -1.55,-0.75 -3.45,-1.25 -4.3,-1.15 -1.35,0.2 -1.35,0.1 0,-0.8 0.85,-0.55 1.15,-1.05 0.7,-1.05 -0.45,0 -0.55,-0.45 -0.2,-1 1,-1.65 4,-1.15 6.4,1.1 z m 32.9,4.2 c -0.3,2.3 -3.5,3.4 -6.5,2.25 -1.25,-0.45 -0.9,-1.25 1.8,-3.9 3.65,-3.6 5.35,-2.95 4.7,1.65 z m 64.9,-2.9 c -0.45,2.5 -2.1,3.2 -3.7,1.65 -1,-0.95 -1.2,-1.8 -0.6,-2.2 1.45,-1 4.5,-0.6 4.3,0.55 z m -116.95,9.75 c -1.1,1.5 -1.75,3.4 -1.4,4.3 0.35,0.95 0.05,1.55 -0.9,1.55 -1.75,0 -2.05,-6 -0.3,-7.75 2.6,-2.6 4.75,-1.05 2.6,1.9 z m 39.1,10.1 c 0.15,0.4 0.8,0.45 1.4,0.1 0.7,-0.45 0.8,0.25 0.35,2.1 -0.5,2.05 -0.35,2.55 0.6,2 0.9,-0.5 1,-0.4 0.3,0.3 -1.95,2.05 -4.85,1.8 -6.05,-0.5 -0.6,-1.25 -1.35,-2 -1.65,-1.7 -0.3,0.3 -0.85,-0.2 -1.15,-1.05 -0.4,-1.05 -0.25,-1.35 0.55,-0.9 0.75,0.5 0.9,0.15 0.45,-1.1 -0.6,-1.5 -0.45,-1.6 0.85,-0.5 0.95,0.8 1.5,0.85 1.5,0.15 0,-0.6 -0.9,-1.55 -2,-2.15 -1.1,-0.6 -2,-1.6 -2,-2.2 0,-1.1 6.05,3.75 6.85,5.45 z m -7.55,-3.5 c 1.1,2.15 -1.9,5.15 -3.15,3.15 -0.65,-1.1 -0.95,-2.4 -0.6,-2.95 0.7,-1.15 3.15,-1.25 3.75,-0.2 z m -27.1,3.6 c 0.6,-0.35 0.85,-0.05 0.55,0.75 -0.25,0.75 -1,1.3 -1.6,1.15 -1.5,-0.35 -1.45,1.05 0.05,2.55 0.9,0.9 0.75,1.55 -0.75,2.8 -1.5,1.2 -1.55,1.45 -0.3,1.05 1.15,-0.35 1.6,0 1.4,1.15 -0.15,0.95 -0.55,1.6 -0.9,1.45 -0.35,-0.15 -1.3,-0.25 -2.05,-0.25 -0.85,0 -1.35,-0.95 -1.25,-2.35 0.1,-1.45 0.65,-2.2 1.4,-1.9 1.55,0.55 1.6,-1.2 0.2,-3.9 -0.8,-1.45 -0.75,-2.4 0.25,-3.55 1.2,-1.45 1.35,-1.45 1.65,0.05 0.15,0.9 0.8,1.4 1.35,1 z m 27.45,4.9 c -0.5,-0.8 -0.2,-1.25 0.8,-1.25 0.85,0 1.55,0.8 1.5,1.75 -0.05,2.5 -2.2,5 -3.85,4.45 -1,-0.35 -1.25,0.2 -0.9,2.15 0.3,1.45 0.15,2.65 -0.35,2.65 -0.45,0 -0.85,-0.1 -0.85,-0.25 0,-0.15 -0.4,-1.75 -0.95,-3.55 -0.65,-2.3 -0.6,-3.05 0.2,-2.55 0.7,0.45 0.85,0.1 0.5,-0.85 -0.9,-2.35 1.25,-4.05 3.1,-2.55 1.2,1 1.4,1 0.8,0 z m 135.9,12.35 c -0.45,1.85 -1,2.35 -1.7,1.65 -0.7,-0.7 -0.65,-1.7 0.15,-3.25 1.5,-2.8 2.45,-1.85 1.55,1.6 z m -165.7,15.5 c -1.55,0.95 -3.85,0 -3.85,-1.6 0,-2.05 2.35,-2.45 3.75,-0.7 0.95,1.2 0.95,1.75 0.1,2.3 z m 166.15,5.9 c 0,0.55 0.5,0.9 1.1,0.75 1.95,-0.45 2.9,3.9 1.3,5.9 -1.4,1.75 -1.45,1.75 -1.2,-0.4 0.2,-1.5 -0.7,-3.1 -2.7,-4.7 -2.85,-2.35 -2.9,-2.5 -0.75,-2.5 1.25,-0.05 2.25,0.4 2.25,0.95 z m -5.35,1.65 c -0.35,0.35 0.25,1.3 1.35,2.05 1.5,1.05 1.7,1.7 0.85,2.6 -0.9,0.95 -1.8,0.6 -4.1,-1.55 -1.6,-1.5 -3.45,-2.45 -4,-2.1 -0.6,0.4 -0.75,0.2 -0.35,-0.5 0.4,-0.65 2.1,-1.15 3.85,-1.15 1.7,0 2.8,0.3 2.4,0.65 z m -142.55,8 c -0.35,2 -1.2,3.8 -1.9,3.95 -0.7,0.15 -0.85,0.05 -0.35,-0.2 0.5,-0.3 0.7,-1.4 0.45,-2.45 -0.3,-1.1 -0.05,-2.55 0.55,-3.3 0.65,-0.75 0.8,-1.7 0.4,-2.15 -0.4,-0.45 -0.25,-0.55 0.35,-0.2 0.65,0.4 0.85,2.1 0.5,4.35 z m 2.05,10.35 c 0.45,0 0.85,0.45 0.85,1 0,0.55 -1.05,1 -2.35,1 -2.05,0 -2.25,-0.4 -1.85,-3.25 0.5,-3.1 0.55,-3.15 1.5,-1 0.55,1.25 1.4,2.25 1.85,2.25 z m 117.6,2.25 c 0.85,0.95 1.15,1.75 0.65,1.7 -2.1,-0.15 -5.75,-6.1 -4.3,-7 1,-0.65 1.5,-0.3 1.75,1.35 0.2,1.2 1.05,3 1.9,3.95 z m 3.95,-3.25 c 0.2,2.5 -1.4,3.5 -3.2,2 -1.1,-0.9 -1.15,-1.45 -0.2,-2.55 1.75,-2 3.25,-1.75 3.4,0.55 z m -127,7.8 c 0.8,0.5 0.9,1.25 0.25,2.25 -0.5,0.8 -0.95,1 -0.95,0.45 0,-0.55 -0.45,-0.35 -1,0.5 -0.75,1.15 -0.95,0.9 -1,-1.25 0,-2.85 0.6,-3.3 2.7,-1.95 z m 130.55,3.55 c 0.95,0.75 1.75,1.6 1.75,1.9 0,0.3 -0.8,0.4 -1.75,0.25 -0.95,-0.2 -2.05,-0.4 -2.45,-0.4 -1.35,-0.2 -3.8,-3.3 -3.25,-4.2 0.6,-0.95 2.4,-0.15 5.7,2.45 z m -13.5,7.95 c -0.7,2 -1.25,2.6 -1.6,1.65 -0.25,-0.8 -0.95,-1.8 -1.55,-2.2 -0.75,-0.5 -0.7,-0.7 0.15,-0.75 0.7,0 1.25,-0.65 1.25,-1.45 0,-0.9 0.6,-1.25 1.4,-0.95 1.15,0.45 1.25,1.15 0.35,3.7 z m 9.25,0.8 c 0,0.4 -0.9,0.5 -2,0.2 -2,-0.55 -2.65,-2.35 -1.3,-3.7 0.7,-0.7 3.3,2.05 3.3,3.5 z m 5,1.4 c -1.6,1.9 -4,1.95 -4,0.05 0,-0.75 1,-1.55 2.25,-1.75 2.95,-0.5 3.3,-0.15 1.75,1.7 z m -81,2 c 0,0.8 0.45,1.55 1,1.6 0.55,0.1 1.45,0.25 2,0.4 0.55,0.15 1.8,0.3 2.75,0.4 1.45,0.15 1.25,0.6 -1.05,2.65 -1.6,1.4 -2.5,2.95 -2.1,3.6 0.5,0.8 0,1 -1.65,0.55 -1.3,-0.35 -2.95,-0.1 -3.7,0.5 -0.75,0.65 -1.3,0.7 -1.2,0.2 0.45,-2.3 -0.2,-2.6 -1.65,-0.85 -1.35,1.65 -1.5,1.7 -1,0.2 0.6,-2 -0.45,-2.3 -2.2,-0.55 -1.5,1.5 -1.55,0.3 -0.05,-2.5 1.7,-3.1 3.1,-4.25 5.25,-4.2 1.05,0 2.15,-0.65 2.4,-1.4 0.3,-0.9 0.05,-1.1 -0.8,-0.6 -0.85,0.55 -1.05,0.4 -0.6,-0.35 1,-1.65 2.6,-1.45 2.6,0.35 z m 62.6,1.5 c 0.75,0 1.4,-0.5 1.4,-1.05 0,-0.6 0.55,-0.75 1.2,-0.35 0.8,0.5 0.5,1.05 -1,1.75 -1.2,0.5 -2.2,1.55 -2.2,2.3 0,0.75 -0.7,1.35 -1.55,1.35 -1.1,0 -1.3,-0.45 -0.6,-1.75 0.45,-0.95 0.75,-2.3 0.6,-3.05 -0.15,-0.7 -0.05,-0.8 0.2,-0.25 0.3,0.6 1.15,1.05 1.95,1.05 z m -58.6,22.45 c -0.6,1.55 -0.55,2.7 0.05,3.05 1.55,1 1.1,2.75 -0.55,2.15 -0.9,-0.35 -1.5,0 -1.5,0.8 0,0.75 0.8,1.25 1.75,1.1 3.2,-0.5 3.6,0.7 0.65,1.95 l -2.9,1.25 2.7,1.25 c 1.5,0.7 2.5,1.7 2.2,2.15 -0.3,0.45 -0.05,0.85 0.55,0.85 0.75,0 0.7,0.55 -0.05,1.8 -1.25,2 -5.4,2.85 -4.25,0.9 0.5,-0.75 0.15,-0.75 -0.9,0.1 -0.85,0.75 -2.2,1.2 -2.95,1 -0.75,-0.15 -1.45,0.15 -1.5,0.7 -0.1,0.55 0.7,0.9 1.75,0.75 1.1,-0.1 1.95,0 1.95,0.25 0,0.75 -3.9,4.5 -4.65,4.5 -0.4,0 -0.4,-0.3 -0.05,-0.65 0.35,-0.35 0.1,-1.55 -0.55,-2.75 -0.65,-1.15 -1.1,-2.4 -0.95,-2.8 0.1,-0.4 -0.45,-0.5 -1.2,-0.2 -3.55,1.35 -4.3,-9.7 -0.8,-11.35 2.8,-1.35 4.55,-0.7 2.15,0.8 -0.8,0.5 -1.1,0.95 -0.65,0.95 0.45,0 0.45,0.55 0.05,1.25 -1.15,1.85 -1.35,6.85 -0.25,6.2 0.55,-0.35 0.85,-1.35 0.7,-2.3 -0.2,-1 0.25,-1.55 1.1,-1.35 1.15,0.25 1.2,0 0.2,-1.15 -1,-1.2 -0.65,-2.05 1.95,-4.7 1.75,-1.75 3.6,-4.5 4.15,-6.1 0.55,-1.55 1.4,-2.85 1.85,-2.85 0.5,0 0.5,1.1 -0.05,2.45 z m 51.9,12.4 c 0.6,20.9 -15.8,52.15 -27.35,52.15 -0.85,0 -1.55,0.45 -1.55,1 0,0.55 -0.5,1 -1.05,1 -0.6,0 -0.8,-0.4 -0.5,-0.95 0.3,-0.5 0.1,-1.2 -0.5,-1.6 -0.6,-0.35 -0.85,-1.3 -0.55,-2.05 0.3,-0.85 -0.1,-1.4 -1.05,-1.4 -1,0 -1.35,-0.55 -1,-1.5 0.75,-1.9 -0.3,-1.95 -1.75,-0.05 -1.2,1.6 -8.6,0.45 -11.45,-1.8 -2.2,-1.75 -4.1,-1.65 -3.4,0.15 0.35,0.95 0.75,1.15 1,0.45 0.25,-0.7 1.1,-0.4 2.3,0.8 2.5,2.5 2.45,2.9 -0.2,2.2 -1.5,-0.4 -1.95,-0.2 -1.45,0.6 0.4,0.65 1.15,0.9 1.65,0.6 0.55,-0.3 0.95,-0.05 0.95,0.6 0,0.7 -0.85,0.95 -2,0.65 -2.5,-0.65 -2.6,0.75 -0.15,2.5 1,0.7 1.75,2.1 1.6,3.1 -0.25,1.6 0.45,1.75 6.05,1.5 3.5,-0.15 6.1,-0.6 5.85,-1.05 -0.25,-0.4 -0.05,-0.75 0.5,-0.75 0.55,0 1.65,-0.25 2.5,-0.6 1,-0.35 1.65,0.2 1.95,1.75 0.4,2.1 0.45,2.05 0.55,-0.4 0.1,-2.2 0.65,-2.75 2.5,-2.75 1.3,0 3.65,-1.25 5.15,-2.75 2.55,-2.5 2.4,-2.05 -1.35,4.85 -2.3,4.15 -4.15,8.35 -4.15,9.25 0,4.15 -20.45,5.1 -26.25,1.25 -1.5,-1 -2.8,-1.45 -2.8,-0.95 -0.05,0.45 -0.5,-0.05 -1,-1.15 -0.55,-1.1 -2.4,-3.9 -4.2,-6.2 -7.05,-9.05 -8.3,-10.95 -6,-8.95 1.2,1.05 2.65,1.5 3.35,1.1 0.85,-0.55 1.05,-0.3 0.65,0.8 -0.8,2.05 5.25,5.35 11.05,6 3.75,0.45 4.2,0.25 4.2,-1.65 -0.05,-1.5 -0.25,-1.75 -0.9,-0.75 -0.65,1.1 -0.9,1.05 -1.4,-0.15 -0.3,-0.75 -1.4,-1.65 -2.5,-1.95 -2.35,-0.6 -5,0.8 -3.8,1.95 0.5,0.45 1.05,0.3 1.3,-0.35 0.2,-0.6 1.25,-0.9 2.35,-0.65 2.95,0.8 2.35,2.1 -0.85,1.9 -3.4,-0.15 -8.5,-3.3 -7.65,-4.7 0.4,-0.65 1.15,-0.6 2.05,0.2 1.95,1.6 2.85,0.5 1.5,-1.75 -0.55,-1.05 -1.05,-1.35 -1.05,-0.7 -0.05,1.25 -1.8,1.25 -3.7,0.05 -0.65,-0.4 -1.35,-0.15 -1.6,0.55 -0.35,1 -0.8,0.95 -2.1,-0.1 -0.9,-0.75 -1.35,-1.85 -1,-2.4 0.4,-0.6 0.2,-0.75 -0.5,-0.35 -1.45,0.9 -5.6,-2.9 -4.7,-4.3 0.35,-0.6 0.15,-1.1 -0.45,-1.1 -0.65,0 -0.8,-0.55 -0.35,-1.25 0.4,-0.75 -0.05,-0.6 -1.15,0.25 -1.05,0.8 -1.6,1 -1.2,0.35 0.35,-0.6 -0.25,-4.65 -1.35,-9 -2.55,-9.9 -5.05,-22.6 -4.55,-23.1 0.25,-0.2 0.05,-1.7 -0.4,-3.3 -1.1,-3.8 0.65,-4.9 2.8,-1.8 0.95,1.3 1.7,2.8 1.75,3.35 0,0.55 0.6,0.9 1.25,0.75 0.65,-0.15 1.25,0.2 1.35,0.75 0.05,0.55 0.15,1.4 0.25,1.9 0.15,1.45 1.6,2.55 1.6,1.25 0,-0.6 0.4,-1.15 0.85,-1.15 0.5,0 0.85,1 0.75,2.25 -0.05,1.6 0.45,2.25 1.9,2.25 1.3,0.05 1.9,0.65 1.7,1.7 -0.3,2 0.75,2.75 4.2,3 1.45,0.15 2.6,0.55 2.6,1 0,0.4 0.6,0.5 1.3,0.25 0.75,-0.3 2.15,0.35 3.1,1.45 1.05,1.15 2.45,1.7 3.35,1.35 1.05,-0.4 1.35,-0.2 0.85,0.6 -0.45,0.7 0,1.15 1.3,1.15 1.1,0 2.25,-0.4 2.55,-0.95 0.8,-1.25 6.05,-0.6 6.05,0.75 0,0.55 0.4,1.4 0.9,1.85 0.55,0.5 0.6,0.3 0.1,-0.55 -0.6,-1.1 -0.2,-1.3 1.85,-0.9 1.45,0.3 2.65,0.1 2.65,-0.45 0,-0.55 0.85,-0.75 1.9,-0.5 1.35,0.35 2.1,-0.1 2.55,-1.6 0.65,-2.1 0.7,-2.1 1.55,-0.15 0.8,1.85 0.85,1.85 0.95,0.15 0.05,-1.45 0.35,-1.65 1.4,-0.8 0.75,0.65 1.65,0.8 2,0.45 0.4,-0.4 1.7,-0.85 2.85,-1 1.2,-0.2 2.9,-0.95 3.75,-1.65 0.85,-0.75 2.4,-1.65 3.4,-2 1.5,-0.55 1.65,-0.95 0.7,-2.1 -0.95,-1.15 -0.75,-1.3 1.05,-0.8 1.8,0.45 2.1,0.25 1.6,-1.1 -0.4,-1.1 -0.1,-1.65 0.9,-1.65 0.85,0 1.25,-0.4 0.95,-0.9 -0.3,-0.5 0.2,-1.2 1.15,-1.55 0.9,-0.35 2,-0.05 2.45,0.65 0.6,0.95 0.8,0.85 0.85,-0.4 0,-0.9 -0.45,-1.95 -1.05,-2.35 -0.75,-0.45 -0.75,-1 0,-1.9 0.55,-0.65 0.7,-1.6 0.3,-2.05 -0.4,-0.45 0.25,-0.55 1.45,-0.25 2.25,0.55 2.75,-1.05 0.8,-2.5 -0.65,-0.45 -0.55,-0.7 0.15,-0.75 0.65,0 1.05,-0.8 0.9,-1.75 -0.4,-2.45 0.55,-3.7 1.55,-2.1 0.65,1 0.85,0.75 0.9,-0.9 0,-5.6 1.7,-1.5 1.9,4.6 z m 7.75,4 c 0.1,0.8 1.45,2.7 2.95,4.25 1.5,1.6 2.5,3.15 2.15,3.45 -1.1,1.15 -6.75,-2.6 -6.75,-4.45 0,-1 -0.25,-3.35 -0.55,-5.25 -0.5,-3 -0.45,-3.15 0.7,-1.35 0.7,1.1 1.35,2.6 1.5,3.35 z m 21.25,5.8 c 5.7,2.95 8.3,5.35 5.85,5.35 -0.85,0 -2,-0.6 -2.6,-1.35 -0.65,-0.75 -2.95,-2.15 -5.15,-3.15 -2.2,-1 -4,-2.2 -4,-2.65 0,-1.2 0.25,-1.15 5.9,1.8 z m -135.55,2.85 c -0.3,0.8 -0.15,1.5 0.35,1.5 0.45,0 0.95,0.85 1,1.95 0.1,1.2 -0.3,1.75 -1.15,1.45 -0.7,-0.3 -1.5,0.4 -1.8,1.55 -0.3,1.1 -0.25,2.05 0.1,2.05 0.35,0 1.65,0.3 2.9,0.65 1.7,0.45 2.25,0.15 2.25,-1.2 0,-2.3 0.95,-1.35 1.5,1.5 0.3,1.65 0.05,2.1 -1,1.7 -0.8,-0.3 -1.7,-0.1 -2.05,0.45 -0.4,0.6 -1.15,0.35 -1.9,-0.7 -1,-1.35 -1.4,-1.45 -2.05,-0.4 -0.55,0.85 -0.4,1.05 0.35,0.6 0.7,-0.45 1.15,-0.05 1.15,0.9 0,1.25 -0.4,1.35 -2,0.5 -1.15,-0.6 -1.85,-1.9 -1.75,-3.15 0.15,-1.2 -0.4,-2.3 -1.25,-2.55 -1.35,-0.4 -1.35,-0.3 0,0.7 1.3,1 1.25,1.1 -0.35,0.6 -1,-0.35 -2.8,0.1 -3.95,0.9 -1.4,1 -3.35,1.3 -5.7,0.95 -3.15,-0.5 -3.35,-0.45 -1.7,0.85 1.6,1.3 1.6,1.55 0.15,2.1 -2.65,1 -3.45,0.7 -3.45,-1.35 0,-1.05 -0.45,-2.2 -1,-2.55 -2.15,-1.3 -0.8,-2 3.25,-1.7 4.85,0.4 12.35,-1.85 12,-3.55 -0.1,-0.7 0.45,-0.95 1.3,-0.6 0.85,0.35 1.4,0.1 1.25,-0.45 -0.15,-0.6 0.6,-1.75 1.7,-2.6 2.5,-1.9 2.55,-1.95 1.85,-0.1 z m -8.65,0.85 c 0.85,0.85 0.2,1.4 -2.2,1.8 -1.1,0.2 -2.25,0.65 -2.5,1.05 -0.6,0.75 -6,1.9 -6,1.3 0,-4.25 7.65,-7.2 10.7,-4.15 z m -15.8,8.05 c 0.7,4.95 0.55,5.6 -1,5.6 -0.95,0 -2.45,0.7 -3.35,1.55 -1.4,1.45 -1.55,1.4 -1.55,-0.5 0,-1.4 0.65,-2.05 2.05,-2.05 1.15,0 1.8,-0.45 1.45,-1 -0.4,-0.65 -1.35,-0.6 -2.7,0.1 -1.85,1 -2,0.9 -1.45,-0.75 0.45,-1.3 0.1,-1.1 -1.25,0.65 -1.4,1.75 -1.65,2.65 -0.8,3.2 0.85,0.5 0.9,1.45 0.1,3.55 -0.6,1.6 -0.75,3.8 -0.3,4.95 0.4,1.1 0.35,3.8 -0.1,5.9 -0.6,2.65 -0.5,4.3 0.3,5.3 0.95,1.15 0.95,1.3 0,0.75 -0.8,-0.45 -1.45,0.15 -1.9,1.8 -0.35,1.4 -1.25,2.55 -2,2.55 -1.3,0 -1.95,-2.15 -1.4,-4.5 0.15,-0.55 0.35,-3.85 0.5,-7.35 0.15,-4.1 0.75,-6.7 1.65,-7.25 1.15,-0.7 1.15,-1.2 0,-3 -1.15,-1.85 -1.15,-2.1 0.05,-1.65 1,0.4 0.7,-0.85 -0.9,-4.1 -2.4,-4.7 -1.7,-6.7 1.25,-3.75 1.85,1.85 3.45,2.1 3.45,0.55 0,-0.6 0.4,-0.8 0.9,-0.5 0.5,0.3 1.85,-1.1 3.05,-3.1 2.6,-4.4 3,-4.1 3.95,3.05 z m 143.15,-2.2 c 4,2.95 4,5.05 -0.05,3.65 -1.7,-0.6 -4.15,-0.8 -5.5,-0.45 -2.85,0.7 -2.85,0.65 -1.5,-2.85 1.15,-3.15 3.15,-3.25 7.05,-0.35 z m 27,1.25 c 0.8,-0.45 1,-0.35 0.6,0.3 -1.15,1.85 -6.3,3.25 -6.3,1.7 0,-0.75 0.3,-1.15 0.7,-0.9 0.4,0.25 1.05,-0.35 1.4,-1.3 0.55,-1.35 0.8,-1.4 1.5,-0.35 0.5,0.8 1.35,1.05 2.1,0.55 z m -127.5,2.55 c 0.8,0 1.45,0.95 1.45,2.05 0,1.75 -0.55,2.05 -3.25,1.75 -2.7,-0.25 -3.25,-0.7 -3.3,-2.8 -0.05,-2.65 2.8,-4.7 3.35,-2.35 0.2,0.75 1,1.35 1.75,1.35 z m 139.65,6.1 c -0.35,2.5 -0.6,2.65 -1.9,1.35 -1.7,-1.7 -3.7,-1.85 -6.35,-0.4 -1.75,0.9 -1.95,0.7 -1.95,-2 0,-2.4 0.45,-3.05 2.05,-3.05 1.15,0 1.8,0.45 1.45,1 -0.35,0.55 0.2,1 1.25,1 1,0 2.4,0.55 3.05,1.2 1.9,1.9 1.4,-0.3 -0.55,-2.55 -0.95,-1.1 -1.2,-1.7 -0.55,-1.3 0.65,0.35 1.5,0.15 1.9,-0.5 1.05,-1.75 2.1,1.7 1.6,5.25 z m -162.05,-0.85 c -0.85,0.85 -1.15,0.85 -1.15,-0.1 0,-0.9 -0.5,-0.95 -2.05,-0.15 -1.1,0.6 -1.8,1.45 -1.5,1.9 0.65,1.05 -3.25,2.6 -6.35,2.6 -1.35,0 -2.6,-0.55 -2.85,-1.25 -0.25,-0.8 0.65,-1.25 2.7,-1.25 1.85,0 3.75,-0.8 4.8,-2 0.9,-1.1 2.25,-2 2.95,-2 0.75,0 1.3,-0.5 1.3,-1.05 0,-0.6 0.75,-0.35 1.65,0.55 1.2,1.2 1.35,1.9 0.5,2.75 z m 117.65,-3.05 c 0.65,0.65 1.2,2.05 1.2,3.1 0,1.35 0.45,1.75 1.65,1.3 1.3,-0.5 1.4,-0.35 0.5,0.7 -0.6,0.75 -0.85,1.7 -0.45,2.05 0.35,0.35 0.2,0.65 -0.35,0.65 -0.55,0 -1,0.65 -1,1.5 0,2.85 1.4,1.5 3.1,-3.05 1.6,-4.1 1.9,-4.35 3.05,-2.8 0.7,0.95 1.05,2.35 0.8,3.05 -0.3,0.7 -0.05,1.3 0.5,1.3 0.55,0 1.2,1.45 1.5,3.25 0.3,1.8 1.05,5.05 1.65,7.25 0.65,2.2 1.35,4.9 1.55,6 0.2,1.1 1.3,5.75 2.5,10.35 1.15,4.6 1.9,8.85 1.7,9.5 -0.25,0.65 0.3,2 1.2,3.05 0.85,1.1 1.05,1.6 0.35,1.2 -0.8,-0.45 -1.25,-0.1 -1.3,1.1 0,1.65 -0.1,1.6 -1.15,-0.2 -0.6,-1.1 -1.7,-2.35 -2.4,-2.8 -0.75,-0.4 -1.05,-1.5 -0.7,-2.35 0.4,-1.05 0.15,-1.45 -0.6,-1.2 -0.7,0.2 -1.25,0.85 -1.25,1.4 -0.05,0.5 -0.5,1.8 -1.05,2.85 -0.85,1.55 -0.75,1.8 0.55,1.3 1.1,-0.4 1.4,-0.15 1,0.9 -0.35,0.8 -0.85,1.25 -1.1,0.95 -0.3,-0.3 -1.15,0.25 -1.9,1.2 -1.25,1.65 -1.3,1.6 -0.7,-0.15 0.55,-1.6 0.35,-1.8 -1.1,-1.25 -1.5,0.55 -1.6,0.45 -0.65,-0.75 0.7,-0.8 1.15,-2.05 1.05,-2.8 -0.6,-4.5 0.05,-5.8 3.05,-5.8 1.65,0 2.95,-0.35 2.85,-0.75 -0.1,-0.4 0.2,-2.05 0.6,-3.6 0.9,-3.05 -0.6,-4.9 -3.1,-3.95 -0.9,0.35 -1.55,-0.55 -2,-2.65 -0.4,-2.15 -0.9,-2.8 -1.45,-1.95 -0.4,0.75 -0.55,1.65 -0.3,2.05 0.25,0.4 -0.1,1.05 -0.75,1.45 -0.65,0.4 -0.9,0.3 -0.5,-0.35 0.35,-0.55 0,-1.55 -0.75,-2.2 -0.8,-0.6 -1.65,-0.75 -1.95,-0.3 -0.3,0.5 -2.15,0.65 -4.15,0.45 -2,-0.25 -3.35,-0.7 -3.05,-1 0.3,-0.3 -0.35,-1.15 -1.45,-1.9 -2.3,-1.65 -2.25,-8.9 0.1,-10.4 1.2,-0.75 1.2,-0.85 0.05,-0.9 -1.05,0 -1.1,-0.35 -0.3,-1.35 0.6,-0.7 1.25,-2.25 1.45,-3.45 0.15,-1.2 0.7,-2.5 1.15,-2.9 0.5,-0.45 0.55,-0.25 0.15,0.45 -0.8,1.4 -0.45,1.5 1.8,0.65 0.9,-0.35 1.6,-1.05 1.6,-1.55 0,-0.55 -0.45,-0.7 -1,-0.35 -0.55,0.35 -1,0.15 -1,-0.4 0,-0.55 -0.55,-0.9 -1.25,-0.75 -0.7,0.2 -0.95,0.15 -0.55,-0.1 0.4,-0.2 0.45,-1.7 0.15,-3.3 -0.65,-3.1 0.4,-3.8 2.45,-1.75 z m -6.3,8.05 c -0.9,2.9 -1.9,5.9 -2.2,6.65 -0.35,0.85 -0.15,1.1 0.55,0.7 1.75,-1.1 1.3,0.6 -0.85,3.4 -1.1,1.35 -1.95,3.15 -1.95,4 0,0.8 0.95,-0.1 2.05,-2 1.1,-1.95 1.75,-2.6 1.4,-1.5 -1.6,4.95 -1.75,8.7 -0.4,9.6 0.9,0.55 0.95,0.9 0.2,0.9 -0.65,0 -1.75,-0.55 -2.5,-1.25 -0.7,-0.7 -2.3,-1.25 -3.5,-1.15 -1.25,0.05 -2,-0.25 -1.7,-0.75 0.3,-0.45 0.15,-0.85 -0.35,-0.85 -0.45,0 -1.6,1.35 -2.6,3 -1.9,3.25 -3.3,3.9 -3.3,1.5 0,-0.85 0.3,-1.5 0.7,-1.5 0.4,0 1.05,-1.2 1.4,-2.6 0.35,-1.45 0.95,-2.35 1.25,-2 0.35,0.35 1.55,-0.2 2.65,-1.15 1.9,-1.65 1.95,-1.65 1.35,0.05 -0.45,1.25 -0.3,1.55 0.5,1.1 0.75,-0.5 0.95,-0.2 0.5,0.95 -0.35,0.9 -0.3,1.65 0.15,1.65 1.65,0 2.1,-1.35 0.95,-2.75 -0.9,-1.1 -0.9,-1.85 0,-3.3 1.25,-2 -0.75,-1.85 -3.55,0.35 -0.85,0.6 -1.25,0.55 -1.25,-0.2 0,-0.65 1.15,-1.6 2.5,-2.1 1.4,-0.5 2.5,-1.45 2.5,-2.05 0,-0.6 -0.55,-0.8 -1.25,-0.45 -0.7,0.35 -0.05,-0.3 1.4,-1.45 1.75,-1.35 2.9,-3.5 3.35,-6.05 0.35,-2.2 1.1,-4 1.65,-4 0.55,0 0.7,-0.45 0.35,-1 -0.35,-0.55 -0.3,-1.55 0.1,-2.2 1.6,-2.55 1.55,1.25 -0.1,6.45 z m -123.75,1.2 c 1.65,1.75 1.65,1.8 -0.25,1.1 -4.15,-1.6 -5.5,-1.75 -5.5,-0.65 0,0.6 -1,1.1 -2.15,1.1 -1.2,0 -3,0.75 -4,1.65 -1.75,1.55 -1.85,1.5 -1.85,-0.85 0,-4.55 10.1,-6.25 13.75,-2.35 z m -8.2,4.3 c 1.4,3.25 0.95,5.55 -1.35,6.35 -2.05,0.75 -2.2,0.55 -2.2,-2.95 0,-5.15 1.95,-7.05 3.55,-3.4 z m -52.45,1.5 c 0,0.4 0.4,1.95 0.8,3.5 0.7,2.45 0.55,2.75 -1.45,2.75 -1.7,0 -2,-0.3 -1.25,-1.25 0.95,-1.1 0.45,-1.6 -1.3,-1.4 -0.35,0 -0.4,-1.05 -0.15,-2.45 0.45,-2.2 3.35,-3.2 3.35,-1.15 z m 105.15,3.6 c 0.25,-0.75 0.75,0 1.15,1.7 0.35,1.65 1.75,4.3 3.15,5.9 2.6,3 3.1,4.55 1.5,4.55 -1.45,0 -8.05,-9.05 -8.05,-11.1 0,-0.95 -0.45,-2.05 -1,-2.4 -0.55,-0.35 -1,-1.15 -1,-1.8 0,-0.65 0.85,0.1 1.9,1.65 1.25,1.9 2,2.4 2.35,1.5 z m -42.25,4.9 c 0.3,0.3 -0.05,0.75 -0.75,0.95 -0.7,0.25 -0.95,0.95 -0.6,1.55 0.4,0.65 0.2,0.75 -0.5,0.35 -0.65,-0.4 -0.95,-1.1 -0.65,-1.6 0.3,-0.45 -0.75,-1.3 -2.25,-1.9 -2.6,-1 -2.55,-1.05 0.75,-0.45 1.95,0.3 3.75,0.8 4,1.1 z m 81.5,1.05 c 0,0.55 0.4,1.4 0.9,1.85 0.55,0.5 0.65,0.35 0.25,-0.35 -0.95,-1.6 3.2,-3.85 4.55,-2.5 0.65,0.65 0.3,1.25 -1.1,1.65 -1.15,0.4 -2.1,1.15 -2.1,1.75 0,0.65 0.6,0.55 1.5,-0.2 1.85,-1.5 3,-0.7 2.15,1.45 -0.35,0.95 -1.2,1.25 -2.3,0.85 -1.15,-0.45 -1.45,-0.25 -0.95,0.55 0.85,1.4 -0.6,1.55 -1.95,0.2 -0.55,-0.55 -2.1,-0.7 -3.45,-0.3 l -2.5,0.65 2.5,0.7 2.5,0.7 -2.7,0.1 c -3.1,0.1 -3.85,-1.85 -2.45,-6.55 0.9,-3.15 5.15,-3.6 5.15,-0.55 z m 88.9,-1.2 c 0.9,0.35 1.6,1.25 1.6,2 0,0.75 0.45,1.4 1,1.4 0.55,0 1,0.5 1,1.05 0,0.6 -0.55,0.75 -1.15,0.35 -0.8,-0.5 -1,-0.2 -0.6,0.85 1,2.5 -0.45,2.95 -2.05,0.6 -1.35,-1.9 -2.55,-6.85 -1.7,-6.85 0.2,0 1.05,0.25 1.9,0.6 z m -235.65,1.55 c 0.9,0.9 1.55,0.85 2.75,-0.15 2.15,-1.75 2.25,-1.55 4.45,8.8 1.95,9.1 8.65,22.2 11.35,22.2 0.8,0 0.8,0.3 0,1.1 -1.7,1.7 -2.9,0.5 -8.95,-8.7 -3.05,-4.6 -5.9,-8.4 -6.35,-8.4 -0.5,0 -1,-1 -1.2,-2.25 -0.25,-1.75 -1.05,-2.3 -3.65,-2.55 -3.1,-0.3 -3.3,-0.55 -2.6,-3 0.45,-1.5 0.9,-3.85 1.05,-5.2 0.1,-1.4 0.25,-2.6 0.3,-2.75 0.25,-0.65 1.8,-0.15 2.85,0.9 z m 224.9,1.4 c 0,0.85 -0.55,1.3 -1.25,1.05 -0.7,-0.25 -1.45,0.05 -1.65,0.7 -0.2,0.6 -0.65,0.25 -0.95,-0.85 -0.4,-1.55 0,-2.1 1.7,-2.2 1.35,-0.15 2.15,0.35 2.15,1.3 z m -172.65,6.55 c 0,1.1 0.45,1.75 1,1.4 0.55,-0.35 1,-0.15 1,0.45 0,1.4 -1.3,1.35 -2.95,-0.2 -0.75,-0.7 -1.05,-0.75 -0.75,-0.15 0.65,1.15 -1.9,5.4 -3.25,5.4 -1.15,0 1.5,-7.35 2.85,-7.8 0.6,-0.2 0.8,-0.85 0.45,-1.45 -0.4,-0.6 -0.2,-0.75 0.5,-0.35 0.65,0.4 1.15,1.6 1.15,2.7 z m 72,9.85 c 0,-0.85 -1.6,-3 -3.5,-4.8 -1.95,-1.85 -3.25,-3.7 -2.95,-4.2 0.95,-1.55 2.9,0 5.25,4.05 1.25,2.2 2.85,4 3.55,4 0.7,0 2.35,1.1 3.6,2.45 1.25,1.35 3.25,2.6 4.4,2.75 1.65,0.25 2.25,1.1 2.45,3.65 l 0.35,3.35 9.2,-0.35 c 9.4,-0.35 15.5,-3.7 15.6,-8.6 0.05,-0.7 0.55,-1.25 1.1,-1.25 1.2,0 0.8,0.8 -3.3,6.5 -1.6,2.2 -3.35,4 -3.85,4 -0.55,0 -1.35,0.6 -1.8,1.35 -0.6,1 -1.05,1.05 -1.55,0.25 -0.45,-0.75 -2,-0.9 -4.2,-0.5 -3.8,0.7 -15.35,-1.35 -15.35,-2.75 0,-0.45 -0.35,-0.75 -0.75,-0.65 -1.25,0.35 -7.25,-3.2 -7.25,-4.3 0,-1.4 -10.05,-11.9 -11.4,-11.9 -0.6,0 -1.65,-1.25 -2.35,-2.75 -0.9,-1.9 0.9,-0.6 5.75,4.25 3.85,3.8 7,6.25 7,5.45 z m 139.1,-10.5 c 1,-0.6 0.55,3.7 -0.55,5.45 -0.3,0.5 0,1.15 0.7,1.4 0.7,0.25 0,0.4 -1.5,0.3 -2.4,-0.1 -2.75,-0.45 -2.35,-2.6 0.6,-3.8 1.9,-6.6 2.35,-5.2 0.25,0.65 0.85,0.95 1.35,0.65 z m 21.25,2.1 c -0.3,0.8 -0.05,1.45 0.6,1.45 0.75,0 0.6,0.6 -0.4,1.55 -0.85,0.9 -1.55,2.65 -1.55,3.95 0,1.3 -0.4,2.6 -0.85,2.9 -0.5,0.3 -1.2,2 -1.55,3.75 -0.85,4.3 -1.8,2.95 -1.9,-2.6 -0.05,-6.25 -1.6,-4.3 -2.7,3.4 -1.2,8.7 -2.35,9.1 -1.45,0.55 0.45,-3.85 0.85,-7.8 0.9,-8.8 0.1,-1 0.95,-2.7 1.85,-3.75 2.1,-2.45 2.15,-3.35 0.15,-2.55 -0.95,0.35 -1.3,0.15 -0.9,-0.45 0.35,-0.6 1.95,-0.85 3.55,-0.6 1.6,0.25 2.9,0.05 2.9,-0.5 0,-0.55 0.45,-0.7 0.95,-0.4 0.55,0.35 0.7,1.25 0.4,2.1 z m -271.95,8.4 c 2.1,6.5 1.95,7.45 -0.45,2.6 -1.75,-3.5 -2.6,-7.55 -1.55,-7.55 0.2,0 1.1,2.2 2,4.95 z m 279.85,-4.3 c -0.7,0.3 -1,0.9 -0.7,1.4 0.75,1.25 -1.35,4.95 -2.85,4.95 -0.7,0 -1.25,-0.9 -1.25,-2 0,-1.1 0.35,-2 0.8,-2 0.5,0 0.6,-0.4 0.3,-0.9 -0.3,-0.55 0.2,-1.15 1.2,-1.4 2.4,-0.65 4.05,-0.65 2.5,-0.05 z m -232.9,4.95 c -0.6,1.45 3.1,2.85 4.9,1.8 0.85,-0.45 0.95,-0.35 0.25,0.35 -2.2,2.35 -8.1,3.15 -8.25,1.15 -0.05,-1.05 0.3,-2.15 0.85,-2.45 0.5,-0.3 0.7,-0.95 0.45,-1.35 -0.25,-0.4 0.15,-0.75 0.9,-0.75 0.75,0 1.15,0.55 0.9,1.25 z m 225.65,5.85 c 0,0.7 -0.65,1.85 -1.5,2.55 -1.75,1.45 -2,5.65 -0.35,6.2 0.7,0.25 0.5,1 -0.65,2.15 -2.5,2.5 -4.05,1.5 -3.8,-2.45 0.35,-5.1 0.55,-5.85 1.45,-5.3 0.5,0.3 0.85,-0.3 0.85,-1.35 0,-2.15 1.95,-4.4 3.15,-3.65 0.45,0.3 0.85,1.1 0.85,1.85 z m -201.1,-0.1 c 1.2,1.5 0.4,7.65 -1,7.65 -1.05,0 -2.4,-2.65 -3.3,-6.25 -0.7,-3.1 2.1,-4 4.3,-1.4 z m 85.4,0.3 c -0.3,0.75 -0.95,1.35 -1.5,1.35 -0.55,0 -0.75,0.65 -0.45,1.5 0.35,0.8 0.15,1.5 -0.4,1.5 -0.5,0 -1,-0.45 -1.05,-1 -0.1,-0.55 -0.2,-1.55 -0.3,-2.25 -0.2,-1.45 0.95,-2.4 2.85,-2.4 0.75,0 1.15,0.6 0.85,1.3 z m -2.3,5.9 c 0,1.35 -4.5,6.45 -5.7,6.45 -2.1,0 -1.5,-3.75 0.9,-5.45 2.2,-1.5 4.8,-2.05 4.8,-1 z"
     id="path4"
     style="fill:#000000;stroke:none;stroke-width:0.05" />
  <path
     d="m 142.55152,24.8375 c 1,1.65 2.75,3.25 3.85,3.55 1.95,0.45 1.95,0.4 0.35,-0.8 -1.85,-1.4 -2.5,-3.15 -0.75,-2.1 0.55,0.35 1,-0.1 1,-0.95 0,-0.85 0.55,-1.55 1.15,-1.55 0.65,0 0.9,-0.25 0.6,-0.6 -0.35,-0.3 -1.4,-0.15 -2.4,0.4 -1.2,0.7 -2.4,0.7 -3.7,0 -1.8,-0.95 -1.85,-0.9 -0.1,2.05 z"
     id="path6"
     style="fill:#000000;stroke:none;stroke-width:0.05" />
  <path
     d="m 209.00152,27.7875 c 0,1.7 -0.45,3.35 -1,3.7 -0.6,0.35 -0.7,-0.15 -0.35,-1.2 0.5,-1.35 0.35,-1.55 -0.55,-0.7 -0.9,0.8 -0.8,1.7 0.3,3.85 1.15,2.2 1.5,2.4 1.75,1 0.2,-1 1.3,-1.85 2.5,-1.95 1.4,-0.1 2,0.3 1.65,1.15 -0.3,0.75 -0.9,1.1 -1.4,0.8 -0.5,-0.3 -0.9,-0.1 -0.9,0.5 0,0.55 1.05,0.95 2.35,0.85 1.75,-0.15 2.25,-0.7 1.9,-2 -0.35,-1.35 -0.05,-1.65 1.15,-1.2 0.85,0.35 1.6,0.1 1.6,-0.5 0,-0.6 -0.55,-1.15 -1.25,-1.2 -1.75,-0.2 -2,-0.15 -4.05,0.65 -1.5,0.6 -1.7,0.25 -1.3,-1.85 0.25,-1.5 -0.15,-3.05 -1,-3.75 -1.15,-1 -1.4,-0.65 -1.4,1.85 z"
     id="path8"
     style="fill:#000000;stroke:none;stroke-width:0.05" />
  <path
     d="m 211.70152,37.6375 c -1.45,1.4 2.4,3.5 5.3,2.85 2.75,-0.6 4.4,-3.5 2,-3.5 -0.55,0 -1,0.55 -1,1.2 0,0.95 -0.25,0.95 -1.2,0 -1.75,-1.75 -2.8,-1.45 -2.2,0.55 0.55,1.65 0.5,1.65 -0.85,0 -0.8,-0.95 -1.7,-1.45 -2.05,-1.1 z"
     id="path10"
     style="fill:#000000;stroke:none;stroke-width:0.05" />
  <path
     d="m 117.25152,36.3875 -2.3,1.2 2.05,2.2 c 2.65,2.8 3.4,2.75 4.75,-0.15 1.75,-3.8 -0.5,-5.45 -4.5,-3.25 z"
     id="path12"
     style="fill:#000000;stroke:none;stroke-width:0.05" />
  <path
     d="m 117.00152,61.7875 c 0,0.75 -0.4,1.05 -0.9,0.75 -0.45,-0.3 -1.1,0.4 -1.4,1.5 -0.4,1.5 -0.1,2 1.15,1.75 0.9,-0.15 2.2,0.1 2.9,0.55 1.6,1 1.6,0.5 -0.25,-3 -0.8,-1.55 -1.5,-2.25 -1.5,-1.55 z"
     id="path14"
     style="fill:#000000;stroke:none;stroke-width:0.05" />
  <path
     d="m 107.90152,62.7375 c -0.1,0.4 -0.1,1.1 0,1.5 0.05,0.4 -1.15,0.8 -2.65,0.85 l -2.75,0.15 3,0.65 c 2.2,0.5 3.2,0.25 3.7,-0.85 0.95,-2.25 0.95,-3.05 -0.2,-3.05 -0.55,0 -1.05,0.35 -1.1,0.75 z"
     id="path16"
     style="fill:#000000;stroke:none;stroke-width:0.05" />
  <path
     d="m 108.00152,93.4375 c 0,0.8 0.45,1.7 1,2.05 0.55,0.35 1.05,1.6 1.1,2.8 0.1,2.05 0.15,2 0.85,-0.3 0.4,-1.4 0.55,-3.05 0.3,-3.65 -0.6,-1.8 -3.25,-2.5 -3.25,-0.9 z"
     id="path18"
     style="fill:#000000;stroke:none;stroke-width:0.05" />
  <path
     d="m 155.35152,48.4875 c -0.35,0.9 -1.2,1.4 -1.9,1.1 -0.7,-0.25 -1.55,0.15 -1.85,0.95 -0.4,1.05 0.2,1.45 2,1.45 1.4,0 2.25,-0.4 1.95,-0.95 -0.35,-0.5 0.15,-1.35 1.05,-1.85 1.15,-0.65 1.3,-1.15 0.5,-1.6 -0.6,-0.4 -1.4,0 -1.75,0.9 z"
     id="path20"
     style="fill:#000000;stroke:none;stroke-width:0.05" />
  <path
     d="m 151.90152,58.6375 c -0.85,0.25 -2.15,2 -2.9,3.9 -0.75,1.9 -1.75,3.45 -2.25,3.45 -0.5,0 -0.55,0.5 -0.2,1.1 0.45,0.7 -0.45,0.95 -2.6,0.75 -2.1,-0.25 -3.4,0.15 -3.75,1.05 -0.25,0.85 0,1.1 0.65,0.7 0.65,-0.4 1.2,-0.25 1.3,0.35 0.05,0.55 0.2,1.5 0.35,2.05 0.15,0.55 0.3,1.4 0.4,1.9 0.25,1.95 3.1,1.85 5.75,-0.2 1.5,-1.2 2.4,-1.6 2,-0.95 -0.45,0.7 -0.3,1.25 0.35,1.25 0.65,0 0.9,-0.8 0.55,-1.9 -0.35,-1.1 -0.8,-2.75 -1,-3.75 -0.2,-1.05 -0.7,-2.65 -1.1,-3.65 -0.4,-1 -0.3,-1.7 0.2,-1.6 2.65,0.45 3.85,-0.3 3.85,-2.6 0,-1.4 0,-2.45 0,-2.4 0,0.1 -0.7,0.3 -1.6,0.55 z m -5.4,12.35 c 0,0.85 0.45,1.85 1,2.25 0.6,0.45 0.45,0.75 -0.4,0.75 -1.4,0 -4,-2.75 -4.05,-4.3 -0.05,-0.5 0.75,-0.7 1.7,-0.5 0.95,0.2 1.75,1 1.75,1.8 z"
     id="path22"
     style="fill:#000000;stroke:none;stroke-width:0.05" />
  <path
     d="m 227.75152,63.4375 c -2.05,1.5 -2.25,2.55 -0.5,2.55 2.25,-0.05 4.3,-1.85 3.25,-2.9 -0.65,-0.6 -1.6,-0.5 -2.75,0.35 z"
     id="path24"
     style="fill:#000000;stroke:none;stroke-width:0.05" />
  <path
     d="m 174.50152,64.9875 c -0.35,1.1 -1.2,2.55 -1.95,3.3 -1.05,1.05 -0.85,1.5 1.15,2.45 2.1,0.95 2.25,0.9 1.25,-0.3 -0.65,-0.8 -0.8,-1.45 -0.3,-1.45 0.45,0 0.9,-1.35 0.95,-3 0.15,-3.5 -0.2,-3.8 -1.1,-1 z"
     id="path26"
     style="fill:#000000;stroke:none;stroke-width:0.05" />
  <path
     d="m 208.20152,67.1875 c -1.8,1.8 -1.55,9.45 0.25,9.45 0.8,0 1.25,-0.3 1,-0.7 -0.2,-0.4 0.7,-0.7 2.1,-0.7 1.4,0 3.4,-0.8 4.45,-1.75 1.05,-0.95 2.6,-1.5 3.45,-1.15 1,0.35 1.55,0 1.55,-1 0,-1.7 -5.2,-1.1 -5.8,0.65 -0.25,0.7 -4.25,-0.4 -6.1,-1.7 -0.2,-0.15 0.7,-1.15 2,-2.25 2.3,-1.9 2.3,-2 0.35,-2 -1.15,-0.05 -2.6,0.5 -3.25,1.15 z"
     id="path28"
     style="fill:#000000;stroke:none;stroke-width:0.05" />
  <path
     d="m 201.35152,70.3375 c -0.05,1.45 0.75,2.6 2.35,3.35 1.95,0.95 2.25,0.95 1.4,-0.1 -0.6,-0.7 -0.9,-1.45 -0.7,-1.7 0.2,-0.2 -0.4,-1.15 -1.3,-2.05 -1.5,-1.55 -1.6,-1.5 -1.75,0.5 z"
     id="path30"
     style="fill:#000000;stroke:none;stroke-width:0.05" />
  <path
     d="m 219.55152,75.0875 c 0.3,0.5 -0.5,0.9 -1.8,0.9 -1.3,0 -3,0.55 -3.8,1.25 -0.8,0.7 -1.3,1.15 -1.05,1 0.25,-0.1 0.9,0.15 1.5,0.6 2.15,1.65 5.45,1.95 6,0.55 0.3,-0.75 1.25,-1.4 2.05,-1.4 2.35,0 1.85,-1.35 -0.95,-2.65 -1.4,-0.65 -2.25,-0.75 -1.95,-0.25 z"
     id="path32"
     style="fill:#000000;stroke:none;stroke-width:0.05" />
  <path
     d="m 229.00152,77.5875 c 0,1.95 0.4,2.45 1.55,2 0.9,-0.3 1.3,-0.15 0.95,0.4 -0.35,0.55 0.1,1 1,1 0.9,0 1.35,-0.45 1,-1 -0.35,-0.55 0.15,-1 1.1,-1 0.95,0 1.45,-0.3 1.1,-0.65 -0.4,-0.35 -0.2,-1.25 0.45,-2 0.8,-1 0.8,-1.35 -0.05,-1.35 -0.6,0 -1.1,0.45 -1.1,1 0,0.55 -0.65,1 -1.5,1 -0.8,0 -1.5,-0.45 -1.5,-1 0,-0.55 -0.65,-1 -1.5,-1 -0.95,0 -1.5,0.95 -1.5,2.6 z"
     id="path34"
     style="fill:#000000;stroke:none;stroke-width:0.05" />
  <path
     d="m 134.55152,91.4875 c -2.8,1.7 -4.45,2.1 -5.65,1.45 -1.2,-0.65 -1.85,-0.5 -2.3,0.65 -0.9,2.35 -0.75,2.55 1.2,1.5 1,-0.55 2.4,-0.6 3.15,-0.15 0.75,0.5 2.85,0.75 4.7,0.6 4.1,-0.35 4.15,0.2 0.45,3.7 -1.6,1.5 -3.4,4.15 -4,5.9 -0.6,1.75 -0.8,2.9 -0.45,2.5 0.4,-0.35 1.5,0.1 2.5,1 1.05,0.9 1.85,1.35 1.85,0.95 0,-0.4 0.7,-0.05 1.5,0.75 0.85,0.85 1.5,2 1.5,2.6 0,0.55 0.85,1.05 1.95,1.05 1.05,0 2.2,0.45 2.55,1 0.35,0.55 3.25,0.9 6.45,0.75 3.2,-0.15 5.65,-0.55 5.45,-0.9 -0.55,-0.9 2.6,-2 3.7,-1.3 0.5,0.35 0.65,1.1 0.25,1.75 -0.45,0.8 -0.2,0.8 0.7,-0.05 0.75,-0.7 2.15,-1.25 3.1,-1.25 0.95,0 2.45,-1 3.3,-2.2 1.6,-2.35 2.15,-6.8 0.75,-6.8 -0.4,0 -1.25,-1.35 -1.9,-2.95 -0.6,-1.65 -0.8,-2.95 -0.45,-2.9 3.4,0.45 4.15,-0.15 2.35,-1.9 -2.85,-2.8 -6.5,-4.35 -11.1,-4.7 -2.4,-0.15 -4.6,-0.75 -4.95,-1.35 -1.5,-2.35 -12.4,-2.15 -16.6,0.3 z m 17.25,6.9 c 1.5,0.8 3.85,2.7 5.2,4.25 2.1,2.4 2.15,2.55 0.25,0.95 -1.25,-1.05 -2.25,-1.5 -2.25,-1 0,0.5 1.25,1.7 2.75,2.65 2.75,1.7 2.75,1.75 0.5,2.35 -1.25,0.35 -2.25,0.95 -2.25,1.35 0,2.6 -9.75,3.25 -15.1,1 -4.8,-2 -3.9,-6.95 1.8,-9.85 3.2,-1.6 3.4,-1.4 1.55,1.8 -2.95,5.15 3.2,9.6 7.15,5.2 4.75,-5.2 -2.2,-11.05 -9.85,-8.3 -2.8,1.05 -2.9,1 -1.1,-0.35 2.45,-1.85 7.85,-1.85 11.35,-0.05 z"
     id="path36"
     style="fill:#000000;stroke:none;stroke-width:0.05" />
  <path
     d="m 194.40152,92.0875 c -0.9,1 -2.05,1.6 -2.55,1.3 -0.5,-0.3 -3.7,0.45 -7.1,1.65 -3.45,1.25 -7.15,2.2 -8.25,2.15 -1.5,-0.1 -1.65,0.1 -0.55,0.75 1.5,0.95 2.15,7.45 2,19.75 -0.05,5.7 0.3,7.55 1.75,9 2.45,2.45 8.3,11.4 8.35,12.7 0.05,1.75 4.65,4.65 6.4,4 1.6,-0.65 -0.75,-6.4 -2.65,-6.4 -0.45,0 -0.8,-0.6 -0.8,-1.35 0,-0.75 -1.25,-3.1 -2.75,-5.25 -2.7,-3.8 -6.45,-11.05 -7.65,-14.75 -0.55,-1.6 -0.2,-1.8 1.9,-1.4 1.7,0.3 2.5,0.05 2.5,-0.9 0,-1.7 0.45,-1.7 3.8,0 2.85,1.45 8.9,2 9.6,0.85 0.2,-0.4 2.2,-0.65 4.45,-0.6 3.15,0.05 4.1,-0.35 4.5,-1.85 0.35,-1.25 0.95,-1.65 1.75,-1.2 0.75,0.5 0.95,0.35 0.5,-0.4 -0.45,-0.75 0.15,-1.15 1.85,-1.15 1.6,0 2.55,-0.55 2.55,-1.5 0,-0.85 -0.45,-1.5 -0.95,-1.5 -0.55,0 -0.75,-0.65 -0.45,-1.45 0.65,-1.6 -7.8,-7.6 -10.55,-7.5 -0.85,0 -0.2,0.7 1.45,1.5 2.45,1.15 2.55,1.3 0.5,0.8 -1.35,-0.35 -3.05,-0.65 -3.8,-0.65 -0.7,-0.05 -1.1,-0.5 -0.9,-1.1 0.6,-1.75 14.35,-1.75 15.75,0 1.45,1.75 5,1.85 4.9,0.15 -0.15,-1.95 -1.8,-5.4 -1.9,-3.9 -0.05,0.95 -1.05,0.6 -3.35,-1.1 -4.3,-3.3 -17.5,-3.7 -20.3,-0.65 z m 2.6,6.6 c -0.8,0.3 -3.4,1.35 -5.75,2.35 -2.35,1 -4.25,1.7 -4.25,1.5 0,-1.1 6.9,-4.5 9,-4.45 1.5,0.05 1.9,0.3 1,0.6 z m 8.1,4.4 c 2.85,3.05 2.75,6.9 -0.2,6.9 -0.55,0 -0.8,0.35 -0.55,0.75 1.25,2.05 -13.85,0.4 -15.2,-1.65 -0.75,-1.15 -2,-2.1 -2.7,-2.1 -0.7,0 -1.55,-0.55 -1.9,-1.25 -0.3,-0.7 -0.35,-0.15 -0.1,1.15 0.3,1.7 0.15,2.1 -0.65,1.3 -1.75,-1.75 -0.15,-4.7 1.7,-3.2 0.85,0.7 1.5,0.85 1.5,0.35 0,-0.8 5.1,-4.35 6.15,-4.35 0.2,0 0.35,1.4 0.35,3.15 0,4 2.4,5.7 5.9,4.05 2.8,-1.25 3.5,-4.9 1.4,-7 -0.95,-0.95 -0.9,-1.2 0.1,-1.2 0.7,0 2.6,1.4 4.2,3.1 z"
     id="path38"
     style="fill:#000000;stroke:none;stroke-width:0.05" />
  <path
     d="m 164.40152,121.7375 c -0.85,1.35 -0.8,2.1 0.25,3.1 0.75,0.7 1.2,1.6 1,1.95 -0.25,0.4 0.15,1.25 0.85,1.9 1,0.9 1.2,0.5 1,-2 -0.15,-1.75 -0.35,-4 -0.4,-4.95 -0.15,-2.25 -1.3,-2.25 -2.7,0 z"
     id="path40"
     style="fill:#000000;stroke:none;stroke-width:0.05" />
  <path
     d="m 158.35152,129.8375 c -0.3,1.15 -1.4,2.35 -2.45,2.7 -1.05,0.3 -1.9,0.95 -1.9,1.35 0,0.45 -0.9,1.8 -2,3.1 -1.05,1.25 -1.75,2.6 -1.45,3.05 0.25,0.45 0.05,1.1 -0.55,1.45 -0.55,0.35 -1,1.45 -1,2.5 0,1 -0.55,2.05 -1.25,2.35 -0.85,0.35 -0.9,0.5 -0.1,0.55 0.65,0.05 2.65,-1.5 4.5,-3.4 1.8,-1.95 4,-3.55 4.8,-3.55 1.6,-0.1 7.6,-10.95 6.05,-10.95 -0.45,0 -1.6,-0.3 -2.5,-0.65 -1.1,-0.4 -1.8,0.05 -2.15,1.5 z"
     id="path42"
     style="fill:#000000;stroke:none;stroke-width:0.05" />
  <path
     d="m 196.00152,156.9375 c 0,0.5 0.45,1.2 1,1.55 0.55,0.35 1,1.95 1,3.55 0,2.3 0.45,2.95 2,2.95 1.1,0 2,-0.5 2,-1.05 0,-0.6 -0.4,-0.8 -0.9,-0.5 -0.5,0.3 -1.15,-0.15 -1.5,-1 -0.3,-0.85 -0.2,-1.3 0.25,-1.05 0.5,0.3 1.35,-0.55 1.95,-1.9 0.9,-1.95 0.85,-2.3 -0.25,-1.9 -0.75,0.3 -1.65,0.05 -2,-0.55 -0.8,-1.3 -3.55,-1.4 -3.55,-0.1 z"
     id="path44"
     style="fill:#000000;stroke:none;stroke-width:0.05" />
  <path
     d="m 205.00152,161.4875 c 0,0.8 -0.45,1.5 -1,1.5 -1.4,0 -1.25,3.35 0.25,4.95 1,1.1 0.95,1.25 -0.5,0.75 -1.6,-0.6 -2.45,1.9 -1.85,5.55 0.05,0.4 -0.4,0.75 -0.95,0.75 -0.6,0 -0.85,-0.95 -0.55,-2.25 0.35,-1.25 0.3,-1.7 0,-1 -0.3,0.7 -1,1 -1.5,0.7 -0.5,-0.3 -0.4,0.6 0.25,2 1.35,2.95 5.85,3.65 5.85,0.95 0,-1.05 0.55,-1.4 1.55,-1 0.9,0.3 1.3,0.15 0.95,-0.4 -0.35,-0.55 -1.5,-1 -2.6,-1 -1.1,0 -1.75,-0.45 -1.4,-1 0.35,-0.6 1,-0.8 1.45,-0.55 0.45,0.3 0.8,-0.6 0.8,-1.95 0,-1.4 -0.4,-2.5 -0.85,-2.5 -0.5,0 -0.9,-0.65 -0.9,-1.4 0,-0.9 0.7,-1.25 2,-0.9 1.1,0.3 2,0.05 2,-0.55 0,-0.6 -0.65,-0.85 -1.45,-0.55 -1,0.4 -1.25,0 -0.85,-1.5 0.3,-1.15 0.25,-2.1 -0.1,-2.1 -0.3,0 -0.6,0.65 -0.6,1.5 z"
     id="path46"
     style="fill:#000000;stroke:none;stroke-width:0.05" />
  <path
     d="m 137.70152,168.6375 c -1.75,1.7 -0.7,4.5 1.45,3.8 1.25,-0.4 1.85,-0.3 1.5,0.3 -1.1,1.8 4.3,3.45 5.9,1.85 0.8,-0.8 1.45,-1.85 1.45,-2.3 0,-1.35 -4.35,-1.35 -5.3,0 -0.45,0.7 -0.55,0.15 -0.1,-1.3 0.6,-2.25 0.55,-2.35 -1,-1.05 -1.3,1.05 -1.65,1.1 -1.4,0.1 0.35,-1.45 -1.45,-2.45 -2.5,-1.4 z"
     id="path48"
     style="fill:#000000;stroke:none;stroke-width:0.05" />
  <path
     d="m 192.05152,187.2375 c -1.9,2.9 -1.9,5 -0.05,5.5 1.35,0.35 1.35,0.3 0,-0.65 -1.35,-0.95 -1.35,-1.05 0,-1.1 1.35,-0.05 1.35,-0.15 0,-1 -1.3,-0.85 -1.25,-0.95 0.2,-1 0.9,0 2,0.5 2.35,1.05 0.4,0.7 1.15,0.4 2,-0.75 1.85,-2.4 1.8,-3.65 -0.1,-2.9 -0.9,0.3 -1.3,0.15 -0.95,-0.4 1.3,-2.1 -2.1,-0.9 -3.45,1.25 z"
     id="path50"
     style="fill:#000000;stroke:none;stroke-width:0.05" />
  <path
     d="m 217.00152,56.4875 c -1.05,1.25 -0.9,1.5 0.65,1.5 3,-0.05 4.9,-1.6 2.85,-2.35 -2.2,-0.85 -2.05,-0.9 -3.5,0.85 z"
     id="path52"
     style="fill:#000000;stroke:none;stroke-width:0.05" />
  <path
     d="m 156.00152,156.9875 c -0.8,1.5 -0.75,2 0.2,2.1 0.7,0 2.1,0.2 3.05,0.4 0.95,0.15 1.75,-0.1 1.75,-0.65 0,-0.55 0.45,-0.7 1,-0.35 0.55,0.35 1,0.1 1,-0.5 0,-0.6 0.45,-0.85 1,-0.5 0.55,0.35 1,0.2 1,-0.3 0,-1.7 -4.2,-2.15 -5.7,-0.65 -1.85,1.85 -2.4,1.85 -1.65,-0.05 0.85,-2.2 -0.4,-1.85 -1.65,0.5 z"
     id="path54"
     style="fill:#000000;stroke:none;stroke-width:0.05" />
  <path
     d="m 156.70152,216.2875 c -0.7,1.95 4.8,2 6.35,0.15 1.4,-1.7 -0.15,-1.95 -1.8,-0.3 -0.9,0.9 -1.5,0.9 -2.6,0 -1.1,-0.95 -1.55,-0.9 -1.95,0.15 z"
     id="path56"
     style="fill:#000000;stroke:none;stroke-width:0.05" />
  <path
     d="m 170.05152,222.2875 c 0.8,0.65 1.45,1.75 1.35,2.45 -0.1,0.7 -0.2,1.75 -0.25,2.3 -0.25,1.85 -2.15,-0.1 -2.15,-2.15 0,-1.2 -0.45,-1.75 -1.05,-1.35 -0.6,0.35 -0.8,0.9 -0.5,1.2 0.3,0.35 -0.7,1.4 -2.2,2.4 -1.5,1 -2.15,1.85 -1.45,1.85 0.75,0 1.05,0.55 0.7,1.25 -0.35,0.7 0,0.45 0.8,-0.5 0.8,-0.95 2.15,-1.75 3,-1.75 0.9,0 2.1,0.8 2.7,1.75 0.8,1.3 1,1.4 0.9,0.25 -0.25,-2.9 0.1,-4.1 1.1,-3.5 0.6,0.35 0.7,-0.1 0.3,-1.1 -0.5,-1.3 -0.3,-1.5 0.8,-0.85 1.15,0.7 1.2,0.55 0.1,-0.75 -0.7,-0.85 -2.25,-1.85 -3.5,-2.15 -1.85,-0.45 -1.95,-0.35 -0.65,0.65 z"
     id="path58"
     style="fill:#000000;stroke:none;stroke-width:0.05" />
  <path
     d="m 179.55152,226.9375 c -0.9,1.4 3.45,3.45 4.7,2.2 0.55,-0.55 1.75,-0.75 2.6,-0.4 0.9,0.3 1.3,0.2 0.85,-0.3 -0.4,-0.45 -2.35,-0.75 -4.3,-0.6 -2.25,0.15 -3.35,-0.15 -2.9,-0.8 0.35,-0.6 0.4,-1.05 0.1,-1.05 -0.25,0 -0.75,0.45 -1.05,0.95 z"
     id="path60"
     style="fill:#000000;stroke:none;stroke-width:0.05" />
  <path
     d="m 160.65152,233.4375 c -0.3,0.75 0.15,1.65 1.05,2 0.95,0.35 1.35,1.3 1,2.55 -0.3,1.1 -0.1,2 0.4,2 1.45,0 1.05,-5 -0.5,-6.55 -1.2,-1.2 -1.5,-1.2 -1.95,0 z"
     id="path62"
     style="fill:#000000;stroke:none;stroke-width:0.05" />
  <path
     d="m 236.00152,204.7875 c 0,2.55 2.45,5.65 3.85,4.8 1.9,-1.15 1.3,-3.25 -1.35,-5 -2.35,-1.55 -2.5,-1.55 -2.5,0.2 z"
     id="path64"
     style="fill:#000000;stroke:none;stroke-width:0.05" />
  <path
     d="m 240.00152,211.0375 c 0,0.6 -0.4,0.85 -0.85,0.55 -0.5,-0.3 -0.65,0.6 -0.4,1.95 0.5,2.4 0.6,2.45 2.35,0.85 1.45,-1.3 1.65,-2.05 0.75,-3.05 -1.3,-1.65 -1.85,-1.7 -1.85,-0.3 z"
     id="path68"
     style="fill:#000000;stroke:none;stroke-width:0.05" />
  <path
     d="m 110.20152,222.6375 c 0.45,2.55 2.8,2.85 2.8,0.45 0,-1.25 -0.65,-2.1 -1.55,-2.1 -0.95,0 -1.45,0.7 -1.25,1.65 z"
     id="path70"
     style="fill:#000000;stroke:none;stroke-width:0.05" />
  <path
     d="m 47.00152,227.9875 c -1.15,0.7 -1.1,1.45 0.25,4.65 0.9,2.15 1.95,5.4 2.35,7.35 0.6,3.05 0.8,3.25 1.55,1.5 0.8,-1.75 0.85,-1.7 0.45,0.35 -0.25,1.3 0.35,6.35 1.4,11.15 1.05,4.85 2.2,11.65 2.6,15.15 0.35,3.5 0.75,7 0.9,7.8 0.1,0.8 0.7,1.6 1.3,1.8 1.95,0.65 0.8,-21.05 -1.7,-33 -0.7,-3.15 -0.9,-6.25 -0.5,-6.9 0.4,-0.7 0.3,-0.9 -0.35,-0.5 -0.6,0.35 -1.25,-0.1 -1.45,-1.1 -0.25,-1.25 0.65,-2.05 3.15,-2.85 3.4,-1.1 3.25,-1.15 -2.45,-0.9 -5.45,0.2 -7.45,-0.5 -7.5,-2.7 0,-0.35 0.8,-0.8 1.75,-1 1,-0.2 1.3,-0.6 0.7,-1 -0.55,-0.35 -1.65,-0.3 -2.45,0.2 z"
     id="path72"
     style="fill:#000000;stroke:none;stroke-width:0.05" />
  <path
     d="m 261.00152,247.6375 c 0,5.25 2,15.55 3.25,16.85 0.65,0.65 0.8,-0.05 0.35,-2 -0.35,-1.65 -1.1,-6.35 -1.7,-10.45 -1.15,-8.55 -1.9,-10.2 -1.9,-4.4 z"
     id="path74"
     style="fill:#000000;stroke:none;stroke-width:0.05" />
  <path
     d="m 131.75152,249.8375 c 1.45,0.9 1.3,18.15 -0.15,18.15 -0.5,0 -0.1,0.9 0.9,2 2.9,3.2 4.35,2.55 3.95,-1.75 -0.5,-5.15 0.35,-7.55 2.35,-6.75 1.25,0.45 1.15,0.05 -0.45,-1.7 -2.1,-2.35 -3.75,-6.8 -2.45,-6.8 2.6,0 0.5,-3.55 -2.25,-3.7 -1.8,-0.15 -2.6,0.1 -1.9,0.55 z"
     id="path76"
     style="fill:#000000;stroke:none;stroke-width:0.05" />
  <path
     d="m 245.35152,254.7875 c 0.45,3.55 6.9,12.8 8.8,12.45 0.8,-0.15 2.25,1.15 3.25,2.85 1.8,3.1 1.8,3.1 -0.3,1.95 -1.15,-0.6 -2.1,-1.65 -2.1,-2.25 0,-0.6 -0.3,-0.85 -0.65,-0.45 -0.35,0.35 0.05,1.45 0.9,2.4 0.85,0.95 1.7,2.65 1.9,3.75 0.3,1.5 1.3,2.1 4.25,2.3 l 3.85,0.35 -2.85,-2.55 c -4.05,-3.55 -0.2,-3.65 4.6,-0.1 5.5,4.05 9.4,2.9 5,-1.5 -1.05,-1.05 -1.7,-2.6 -1.4,-3.4 0.3,-0.75 0.05,-1.7 -0.5,-2.05 -0.65,-0.4 -0.85,-0.1 -0.55,0.7 1.7,4.4 -4.55,4.1 -8.8,-0.45 -8.2,-8.7 -10.75,-11.75 -10.75,-12.9 0,-1.2 -2.9,-3.8 -4.25,-3.85 -0.4,-0.05 -0.55,1.2 -0.4,2.75 z"
     id="path78"
     style="fill:#000000;stroke:none;stroke-width:0.05" />
  <path
     d="m 126.45152,266.0875 c -1.05,1.65 1.3,3.55 2.65,2.2 1.15,-1.15 0.45,-3.3 -1.1,-3.3 -0.5,0 -1.2,0.5 -1.55,1.1 z"
     id="path80"
     style="fill:#000000;stroke:none;stroke-width:0.05" />
  <path
     d="m 34.60152,266.8375 c -0.5,0.75 2.2,3.25 10.35,9.6 2.85,2.25 1.45,-0.15 -2.05,-3.45 -0.85,-0.85 -2.35,-2.75 -3.35,-4.25 -1.75,-2.7 -3.95,-3.55 -4.95,-1.9 z"
     id="path82"
     style="fill:#000000;stroke:none;stroke-width:0.05" />
  <path
     d="m 26.25152,269.4375 c 0.2,1.35 0.75,2.85 1.2,3.25 0.5,0.45 0.5,0.1 0,-0.7 -0.5,-0.85 0.8,0.1 2.8,2.05 3.1,3 4.4,3.6 8.45,3.7 2.65,0.1 4.15,-0.1 3.4,-0.45 -1.5,-0.6 -4.3,-2.75 -7.25,-5.55 -1,-0.95 -2.25,-1.75 -2.75,-1.75 -0.45,0 -1.4,-0.7 -2.1,-1.5 -2,-2.4 -4.1,-1.85 -3.75,0.95 z"
     id="path84"
     style="fill:#000000;stroke:none;stroke-width:0.05" />
  <path
     d="m 141.45152,267.7875 c 0.45,0.75 0,2.15 -1,3.25 -1.6,1.8 -1.65,1.95 0,2.55 1,0.4 1.5,1.4 1.25,2.4 -0.3,1.25 0.15,1.7 1.7,1.6 1.45,-0.1 2,-0.7 1.8,-1.95 -0.2,-1.1 0.1,-1.6 0.75,-1.2 0.55,0.35 1.05,0.2 1.05,-0.4 0,-0.55 -0.4,-1.05 -0.95,-1.05 -0.5,0 -1.1,-0.8 -1.35,-1.75 -0.45,-1.65 -0.45,-1.65 -0.6,0 -0.1,1.8 -1.25,2.3 -2.4,1.1 -0.4,-0.35 -0.15,-1.3 0.45,-2.05 0.9,-1.05 0.85,-1.65 -0.15,-2.6 -1,-0.95 -1.15,-0.9 -0.55,0.1 z"
     id="path86"
     style="fill:#000000;stroke:none;stroke-width:0.05" />
  <path
     d="m 323.80152,272.2375 c -0.3,3 -0.55,3.25 -3.55,3 -2.1,-0.15 -3.25,0.2 -3.25,1 0,0.8 1.4,1.3 3.8,1.35 3.85,0.1 3.85,0.05 4.05,-4.25 0.3,-5.05 -0.55,-5.9 -1.05,-1.1 z"
     id="path88"
     style="fill:#000000;stroke:none;stroke-width:0.05" />
  <path
     d="m 169.35152,273.6375 c -0.2,3 8.05,2.95 11.15,-0.05 2,-1.95 2,-1.95 -0.65,-0.3 -2.25,1.35 -2.85,1.4 -3.8,0.25 -2.05,-2.5 -6.55,-2.45 -6.7,0.1 z"
     id="path90"
     style="fill:#000000;stroke:none;stroke-width:0.05" />
</svg>
